<?xml version="1.0" standalone="no"?>
<!DOCTYPE svg PUBLIC "-//W3C//DTD SVG 1.1//EN" "http://www.w3.org/Graphics/SVG/1.1/DTD/svg11.dtd" >
<svg xmlns="http://www.w3.org/2000/svg">
<metadata></metadata>
<defs>
<font id="calendas_plusitalic" horiz-adv-x="673" >
<font-face units-per-em="1000" ascent="750" descent="-250" />
<missing-glyph horiz-adv-x="233" />
<glyph unicode="&#x2e;&#x2e;&#x2e;" horiz-adv-x="893" d="M95 -16q-22 0 -36 14t-14 36q0 27 19.5 48.5t47.5 21.5q22 0 35.5 -14t13.5 -36q0 -27 -19 -48.5t-47 -21.5zM407 -16q-22 0 -36 14t-14 36q0 27 19.5 48.5t47.5 21.5q22 0 35.5 -14t13.5 -36q0 -27 -19 -48.5t-47 -21.5zM720 -16q-22 0 -36 14t-14 36q0 27 19.5 48.5 t47.5 21.5q22 0 35.5 -14t13.5 -36q0 -27 -19 -48.5t-47 -21.5z" />
<glyph unicode="ff" horiz-adv-x="605" d="M687 446l-21 -50h-131l-83 -248q-149 -451 -344 -451q-42 0 -61.5 17.5t-19.5 42.5q0 27 17.5 40.5t40.5 13.5l13 -1q-6 -14 -6 -25q0 -40 48 -40q59 0 103.5 62.5t82.5 189.5l120 399h-209l-83 -248q-149 -451 -344 -451q-42 0 -61.5 17.5t-19.5 42.5q0 27 17.5 40.5 t40.5 13.5l13 -1q-6 -14 -6 -25q0 -40 48 -40q59 0 103.5 62.5t82.5 189.5l123 408h-76l7 24l83 17l8 26q37 114 119.5 175t186.5 61q75 0 110 -32q96 103 216 103q56 0 85 -18.5t29 -47.5q0 -24 -19 -41t-44 -17q-18 0 -34 8q9 16 9 31q0 16 -17.5 28.5t-56.5 12.5 q-60 0 -105.5 -56t-81.5 -171l-19 -62h136zM463 446l9 27q22 67 55 121q-3 32 -28 51t-65 19q-51 0 -95 -37t-68 -120l-18 -61h210z" />
<glyph unicode="fi" horiz-adv-x="551" d="M546 465l-118 -307q-27 -72 -27 -94q0 -14 13 -14q17 0 58 35.5t59 61.5l15 -10q-28 -52 -84 -102.5t-103 -50.5q-38 0 -38 38q0 42 25 110l73 205q7 19 7 32q0 16 -15 22t-49 6h-126l-83 -249q-149 -451 -344 -451q-42 0 -61.5 17.5t-19.5 42.5q0 27 17.5 40.5 t40.5 13.5l13 -1q-6 -14 -6 -25q0 -40 48 -40q59 0 103.5 62.5t82.5 189.5l123 408h-76l7 24l83 17l9 27q44 132 133 219t200 87q66 0 95 -26t29 -59q0 -26 -21 -47.5t-50 -21.5q-20 0 -36 8q7 23 7 40q0 62 -67 62q-63 0 -109.5 -55.5t-82.5 -171.5l-19 -62h246q27 8 48 19 z" />
<glyph unicode="fl" horiz-adv-x="575" d="M642 750l-203 -585q-24 -69 -24 -90t20 -21q42 0 106 93l15 -11q-81 -152 -167 -152q-58 0 -58 66q0 28 17 81l169 500q8 24 8 47q0 57 -62 57q-63 0 -109.5 -55.5t-82.5 -171.5l-19 -62h166l-17 -50h-165l-83 -248q-149 -451 -344 -451q-42 0 -61.5 17.5t-19.5 42.5 q0 27 17.5 40.5t40.5 13.5l13 -1q-6 -14 -6 -25q0 -40 48 -40q59 0 103.5 62.5t82.5 189.5l123 408h-76l7 24l83 17l9 27q44 132 133 219t200 87q69 0 101 -43q21 7 35 14z" />
<glyph unicode="ffi" horiz-adv-x="849" d="M462 446l9 27q22 67 55 121q-3 32 -28 51t-65 19q-51 0 -95 -37t-68 -120l-18 -61h210zM660 397h-126l-83 -249q-149 -451 -344 -451q-42 0 -61.5 17.5t-19.5 42.5q0 27 17.5 40.5t40.5 13.5l13 -1q-6 -14 -6 -25q0 -40 48 -40q59 0 103.5 62.5t82.5 189.5l120 399h-209 l-83 -248q-149 -451 -344 -451q-42 0 -61.5 17.5t-19.5 42.5q0 27 17.5 40.5t40.5 13.5l13 -1q-6 -14 -6 -25q0 -40 48 -40q59 0 103.5 62.5t82.5 189.5l123 408h-76l7 24l83 17l8 26q37 114 119.5 175t186.5 61q75 0 110 -32q96 103 216 103q66 0 95 -26t29 -59 q0 -26 -21 -47.5t-50 -21.5q-18 0 -36 9q9 22 9 39q0 24 -14.5 43t-54.5 19q-63 0 -109.5 -55.5t-82.5 -171.5l-19 -62h246q27 8 48 19l-118 -307q-27 -72 -27 -94q0 -14 13 -14q17 0 58 35.5t59 61.5l15 -10q-28 -52 -84 -102.5t-103 -50.5q-38 0 -38 38q0 42 25 110 l73 205q7 19 7 32q0 16 -15 22t-49 6z" />
<glyph unicode="ffl" horiz-adv-x="872" d="M939 750l-203 -585q-24 -69 -24 -90t20 -21q42 0 106 93l15 -11q-81 -152 -167 -152q-58 0 -58 66q0 28 17 81l169 500q8 24 8 47q0 57 -62 57q-63 0 -109.5 -55.5t-82.5 -171.5l-19 -62h166l-17 -50h-165l-83 -248q-149 -451 -344 -451q-42 0 -61.5 17.5t-19.5 42.5 q0 27 17.5 40.5t40.5 13.5l13 -1q-6 -14 -6 -25q0 -40 48 -40q59 0 103.5 62.5t82.5 189.5l120 399h-208l-83 -248q-149 -451 -344 -451q-42 0 -61.5 17.5t-19.5 42.5q0 27 17.5 40.5t40.5 13.5l13 -1q-6 -14 -6 -25q0 -40 48 -40q59 0 103.5 62.5t82.5 189.5l123 408h-76 l7 24l83 17l8 26q37 114 119.5 175t186.5 61q74 0 109 -32q96 103 216 103q69 0 101 -43q21 7 35 14zM270 507l-18 -61h209l9 27q21 64 56 122q-4 32 -29 50.5t-64 18.5q-51 0 -95 -37t-68 -120z" />
<glyph unicode="Th" horiz-adv-x="996" d="M542 48l193 571q3 9 3 14q0 17 -19 21.5t-69 4.5h-161l-130 -560q-4 -20 -4 -29q0 -17 11 -24.5t35 -11.5l32 -5l-7 -29q-54 3 -140 3l-132 -3l7 29l21 5q41 10 62.5 32.5t31.5 65.5l122 526h-150q-37 0 -57 -12.5t-20 -30.5q0 -15 10 -30q-10 -18 -41 -18q-46 0 -46 42 q0 28 24 46t55 24t77 9q320 19 439.5 29.5t172.5 27.5q-65 -170 -120 -313.5t-75 -196t-21 -55.5h4q59 118 134 202t145 84q53 0 53 -50q0 -34 -19 -88l-60 -170q-27 -76 -27 -94q0 -14 15 -14q29 0 86 82l15 -11q-30 -56 -71 -96.5t-87 -40.5q-38 0 -38 38t34 136l60 171 q12 34 12 50q0 20 -15 20q-47 0 -114.5 -80t-114.5 -177.5t-47 -149.5q-12 -8 -36 -8q-17 0 -27.5 9.5t-10.5 25.5q0 12 5 29z" />
<glyph unicode="&#x164;h" horiz-adv-x="996" d="M542 48l193 571q3 9 3 14q0 17 -19 21.5t-69 4.5h-161l-130 -560q-4 -20 -4 -29q0 -17 11 -24.5t35 -11.5l32 -5l-7 -29q-54 3 -140 3l-132 -3l7 29l21 5q41 10 62.5 32.5t31.5 65.5l122 526h-150q-37 0 -57 -12.5t-20 -30.5q0 -15 10 -30q-10 -18 -41 -18q-46 0 -46 42 q0 28 24 46t55 24t77 9q320 19 439.5 29.5t172.5 27.5q-65 -170 -120 -313.5t-75 -196t-21 -55.5h4q59 118 134 202t145 84q53 0 53 -50q0 -34 -19 -88l-60 -170q-27 -76 -27 -94q0 -14 15 -14q29 0 86 82l15 -11q-30 -56 -71 -96.5t-87 -40.5q-38 0 -38 38t34 136l60 171 q12 34 12 50q0 20 -15 20q-47 0 -114.5 -80t-114.5 -177.5t-47 -149.5q-12 -8 -36 -8q-17 0 -27.5 9.5t-10.5 25.5q0 12 5 29zM467 751l-130 131l63 35l77 -120q24 42 66.5 80t79.5 38q36 0 36 -28z" />
<glyph unicode="&#x162;h" horiz-adv-x="996" d="M542 48l193 571q3 9 3 14q0 17 -19 21.5t-69 4.5h-161l-130 -560q-4 -20 -4 -29q0 -17 11 -24.5t35 -11.5l32 -5l-7 -29q-54 3 -140 3l-132 -3l7 29l21 5q41 10 62.5 32.5t31.5 65.5l122 526h-150q-37 0 -57 -12.5t-20 -30.5q0 -15 10 -30q-10 -18 -41 -18q-46 0 -46 42 q0 28 24 46t55 24t77 9q320 19 439.5 29.5t172.5 27.5q-65 -170 -120 -313.5t-75 -196t-21 -55.5h4q59 118 134 202t145 84q53 0 53 -50q0 -34 -19 -88l-60 -170q-27 -76 -27 -94q0 -14 15 -14q29 0 86 82l15 -11q-30 -56 -71 -96.5t-87 -40.5q-38 0 -38 38t34 136l60 171 q12 34 12 50q0 20 -15 20q-47 0 -114.5 -80t-114.5 -177.5t-47 -149.5q-12 -8 -36 -8q-17 0 -27.5 9.5t-10.5 25.5q0 12 5 29zM268 -62q24 0 39.5 -15t15.5 -40q0 -64 -60.5 -109t-129.5 -54l-2 18q45 12 70.5 37.5t25.5 53.5q0 33 -35 48q6 27 27 44t49 17z" />
<glyph unicode="fj" horiz-adv-x="535" d="M362 397h-126l-83 -249q-149 -451 -344 -451q-42 0 -61.5 17.5t-19.5 42.5q0 27 17.5 40.5t40.5 13.5l13 -1q-6 -14 -6 -25q0 -40 48 -40q59 0 103.5 62.5t82.5 189.5l123 408h-76l7 24l83 17l9 27q44 132 133 219t200 87q66 0 95 -26t29 -59q0 -26 -21 -47.5t-50 -21.5 q-20 0 -36 8q7 23 7 40q0 62 -67 62q-63 0 -109.5 -55.5t-82.5 -171.5l-19 -62h246q19 6 48 19l-134 -416q-22 -67 -48.5 -111.5t-71.5 -77.5q-30 -21 -94 -36t-96 -35l-6 19q25 22 80.5 44.5t75.5 41.5q43 40 70 127l102 315q6 24 6 33q0 28 -68 28z" />
<glyph unicode="ffj" horiz-adv-x="834" d="M661 397h-126l-83 -249q-149 -451 -344 -451q-42 0 -61.5 17.5t-19.5 42.5q0 27 17.5 40.5t40.5 13.5l13 -1q-6 -14 -6 -25q0 -40 48 -40q59 0 103.5 62.5t82.5 189.5l120 399h-209l-83 -248q-149 -451 -344 -451q-42 0 -61.5 17.5t-19.5 42.5q0 27 17.5 40.5t40.5 13.5 l13 -1q-6 -14 -6 -25q0 -40 48 -40q59 0 103.5 62.5t82.5 189.5l123 408h-76l7 24l83 17l8 26q37 114 119.5 175t186.5 61q75 0 110 -32q96 103 216 103q66 0 95 -26t29 -59q0 -26 -21 -47.5t-50 -21.5q-20 0 -36 8q7 23 7 40q0 62 -67 62q-63 0 -109.5 -55.5t-82.5 -171.5 l-19 -62h246q19 6 48 19l-134 -416q-22 -67 -48.5 -111.5t-71.5 -77.5q-30 -21 -94 -36t-96 -35l-6 19q25 22 80.5 44.5t75.5 41.5q43 40 70 127l102 315q6 24 6 33q0 28 -68 28zM463 446l9 27q23 70 55 121q-3 32 -28 51t-65 19q-51 0 -95 -37t-68 -120l-18 -61h210z" />
<glyph unicode="fb" horiz-adv-x="769" d="M642 750l-175 -462h4q37 69 89.5 123.5t114.5 54.5q46 0 70.5 -26t24.5 -75q0 -81 -44 -169.5t-121 -150t-160 -61.5q-103 0 -103 117q0 51 27 126l147 400q9 26 9 51q0 57 -62 57q-63 0 -109.5 -55.5t-82.5 -171.5l-19 -62h166l-17 -50h-165l-83 -248 q-149 -451 -344 -451q-42 0 -61.5 17.5t-19.5 42.5q0 27 17.5 40.5t40.5 13.5l13 -1q-6 -14 -6 -25q0 -40 48 -40q59 0 103.5 62.5t82.5 189.5l123 408h-76l7 24l83 17l9 27q44 132 133 219t200 87q69 0 101 -44q15 5 35 15zM640 409q-40 0 -94 -57t-93 -136t-39 -137 t52 -58q58 0 111.5 60t82 135t28.5 130q0 63 -48 63z" />
<glyph unicode="ffb" horiz-adv-x="1065" d="M938 750l-175 -462h4q37 69 89.5 123.5t114.5 54.5q46 0 70.5 -26t24.5 -75q0 -81 -44 -169.5t-121 -150t-160 -61.5q-103 0 -103 117q0 51 27 126l147 400q9 26 9 51q0 57 -62 57q-63 0 -109.5 -55.5t-82.5 -171.5l-19 -62h166l-17 -50h-165l-83 -248 q-149 -451 -344 -451q-42 0 -61.5 17.5t-19.5 42.5q0 27 17.5 40.5t40.5 13.5l13 -1q-6 -14 -6 -25q0 -40 48 -40q59 0 103.5 62.5t82.5 189.5l120 399h-207l-83 -248q-149 -451 -344 -451q-42 0 -61.5 17.5t-19.5 42.5q0 27 17.5 40.5t40.5 13.5l13 -1q-6 -14 -6 -25 q0 -40 48 -40q59 0 103.5 62.5t82.5 189.5l123 408h-76l7 24l83 17l8 26q37 114 119.5 175t186.5 61q73 0 108 -32q96 103 216 103q69 0 101 -44q15 5 35 15zM936 409q-40 0 -94 -57t-93 -136t-39 -137t52 -58q58 0 111.5 60t82 135t28.5 130q0 63 -48 63zM270 507l-18 -61 h208l9 27q21 66 56 123q-4 31 -29 49.5t-63 18.5q-51 0 -95 -37t-68 -120z" />
<glyph unicode="fh" horiz-adv-x="775" d="M642 750q-63 -165 -119.5 -313.5t-76.5 -201t-21 -55.5h4q59 118 134 202t145 84q53 0 53 -50q0 -34 -19 -88l-60 -170q-27 -76 -27 -94q0 -14 15 -14q29 0 86 82l15 -11q-30 -56 -70.5 -96.5t-87.5 -40.5q-38 0 -38 38t34 136l60 171q12 34 12 50q0 20 -15 20 q-47 0 -114.5 -80t-114.5 -177.5t-47 -149.5q-12 -8 -36 -8q-17 0 -27.5 9.5t-10.5 25.5q0 12 5 29l194 573q10 32 10 53q0 61 -62 61q-63 0 -109.5 -55.5t-82.5 -171.5l-19 -62h166l-17 -50h-165l-83 -248q-149 -451 -344 -451q-42 0 -61.5 17.5t-19.5 42.5q0 27 17.5 40.5 t40.5 13.5l13 -1q-6 -14 -6 -25q0 -40 48 -40q59 0 103.5 62.5t82.5 189.5l123 408h-76l7 24l83 17l9 27q44 132 133 219t200 87q69 0 101 -44q15 5 35 15z" />
<glyph unicode="ffh" horiz-adv-x="1070" d="M937 750q-63 -165 -119.5 -313.5t-76.5 -201t-21 -55.5h4q59 118 134 202t145 84q53 0 53 -50q0 -34 -19 -88l-60 -170q-27 -76 -27 -94q0 -14 15 -14q29 0 86 82l15 -11q-30 -56 -71 -96.5t-87 -40.5q-38 0 -38 38t34 136l60 171q12 34 12 50q0 20 -15 20 q-47 0 -114.5 -80t-114.5 -177.5t-47 -149.5q-12 -8 -36 -8q-17 0 -27.5 9.5t-10.5 25.5q0 12 5 29l194 573q10 32 10 53q0 61 -62 61q-63 0 -109.5 -55.5t-82.5 -171.5l-19 -62h166l-17 -50h-165l-83 -248q-149 -451 -344 -451q-42 0 -61.5 17.5t-19.5 42.5q0 27 17.5 40.5 t40.5 13.5l13 -1q-6 -14 -6 -25q0 -40 48 -40q59 0 103.5 62.5t82.5 189.5l120 399h-206l-83 -248q-149 -451 -344 -451q-42 0 -61.5 17.5t-19.5 42.5q0 27 17.5 40.5t40.5 13.5l13 -1q-6 -14 -6 -25q0 -40 48 -40q59 0 103.5 62.5t82.5 189.5l123 408h-76l7 24l83 17l8 26 q37 114 119.5 175t186.5 61q72 0 107 -32q96 103 216 103q69 0 101 -44q15 5 35 15zM270 507l-18 -61h207l9 27q20 63 57 124q-5 30 -30 48.5t-62 18.5q-51 0 -95 -37t-68 -120z" />
<glyph unicode="fk" horiz-adv-x="804" d="M320 48l195 573q10 32 10 53q0 61 -62 61q-63 0 -109.5 -55.5t-82.5 -171.5l-19 -62h166l-17 -50h-165l-83 -248q-149 -451 -344 -451q-42 0 -61.5 17.5t-19.5 42.5q0 27 17.5 40.5t40.5 13.5l13 -1q-6 -14 -6 -25q0 -40 48 -40q59 0 103.5 62.5t82.5 189.5l123 408h-76 l7 24l83 17l9 27q44 132 133 219t200 87q69 0 101 -44q15 5 35 15q-216 -564 -218 -570h4q60 126 133 206t152 80q49 0 70.5 -25t21.5 -54q0 -125 -219 -178l14 -51q19 -71 47 -101t73 -30q29 0 58 12l7 -10q-4 -5 -11.5 -12.5t-33 -20.5t-53.5 -13q-65 0 -100 37t-52 121 l-15 72q42 13 86 33t82.5 53t38.5 65q0 35 -42 35q-59 0 -131 -80.5t-118.5 -177t-46.5 -149.5q-12 -8 -36 -8q-17 0 -27.5 9.5t-10.5 25.5q0 12 5 29z" />
<glyph unicode="ffk" horiz-adv-x="1099" d="M615 48l195 573q10 32 10 53q0 61 -62 61q-63 0 -109.5 -55.5t-82.5 -171.5l-19 -62h166l-17 -50h-165l-83 -248q-149 -451 -344 -451q-42 0 -61.5 17.5t-19.5 42.5q0 27 17.5 40.5t40.5 13.5l13 -1q-6 -14 -6 -25q0 -40 48 -40q59 0 103.5 62.5t82.5 189.5l120 399h-206 l-83 -248q-149 -451 -344 -451q-42 0 -61.5 17.5t-19.5 42.5q0 27 17.5 40.5t40.5 13.5l13 -1q-6 -14 -6 -25q0 -40 48 -40q59 0 103.5 62.5t82.5 189.5l123 408h-76l7 24l83 17l8 26q37 114 119.5 175t186.5 61q72 0 107 -32q96 103 216 103q69 0 101 -44q15 5 35 15 q-216 -564 -218 -570h4q60 126 133 206t152 80q49 0 70.5 -25t21.5 -54q0 -125 -219 -178l14 -51q19 -71 47 -101t73 -30q29 0 58 12l7 -10q-4 -5 -11.5 -12.5t-33 -20.5t-53.5 -13q-65 0 -100 37t-52 121l-15 72q42 13 86 33t82.5 53t38.5 65q0 35 -42 35q-59 0 -131 -80.5 t-118.5 -177t-46.5 -149.5q-12 -8 -36 -8q-17 0 -27.5 9.5t-10.5 25.5q0 12 5 29zM270 507l-18 -61h207l9 27q20 63 57 124q-5 30 -30.5 48.5t-61.5 18.5q-51 0 -95 -37t-68 -120z" />
<glyph unicode="fr" horiz-adv-x="693" d="M338 48l81 287q7 25 7 34q0 16 -15 22t-49 6h-125l-84 -249q-151 -451 -344 -451q-42 0 -61.5 17.5t-19.5 42.5q0 27 17.5 40.5t40.5 13.5l13 -1q-6 -14 -6 -25q0 -40 48 -40q59 0 103.5 62.5t82.5 189.5l123 408h-76l7 24l82 10l10 34q39 132 129.5 219t203.5 87 q66 0 95 -26t29 -59q0 -26 -21 -47.5t-50 -21.5q-20 0 -36 8q7 23 7 40q0 62 -67 62q-130 0 -192 -227l-17 -62h245q24 7 47 19q-103 -256 -114 -285h4q2 6 7 16t19.5 40t30 57t38.5 59.5t45.5 56.5t49.5 40t52 16q30 0 47 -16.5t17 -42.5q0 -28 -19.5 -43.5t-42.5 -15.5 l-7 1q2 6 2 13q0 11 -8 21t-28 10q-45 0 -101.5 -79.5t-93.5 -174.5t-37 -146q-12 -7 -36 -7q-17 0 -26.5 11.5t-9.5 28.5q0 13 3 23z" />
<glyph unicode="ffr" horiz-adv-x="987" d="M632 48l81 287q7 24 7 34q0 16 -15 22t-49 6h-125l-84 -249q-151 -451 -344 -451q-42 0 -61.5 17.5t-19.5 42.5q0 27 17.5 40.5t40.5 13.5l13 -1q-6 -14 -6 -25q0 -40 48 -40q59 0 103.5 62.5t82.5 189.5l120 399h-205l-83 -248q-149 -451 -344 -451q-42 0 -61.5 17.5 t-19.5 42.5q0 27 17.5 40.5t40.5 13.5l13 -1q-6 -14 -6 -25q0 -40 48 -40q59 0 103.5 62.5t82.5 189.5l123 408h-76l7 24l83 17l8 26q37 114 119.5 175t186.5 61q69 0 104 -30q98 101 218 101q66 0 95 -26t29 -59q0 -26 -21 -47.5t-50 -21.5q-20 0 -36 8q7 23 7 40 q0 62 -67 62q-130 0 -192 -227l-17 -62h245q24 7 47 19q-103 -256 -114 -285h4q2 6 7 16t19.5 40t30 57t38.5 59.5t45.5 56.5t49.5 40t52 16q30 0 47 -16.5t17 -42.5q0 -28 -19.5 -43.5t-42.5 -15.5l-7 1q2 6 2 13q0 11 -8 21t-28 10q-45 0 -101.5 -79.5t-93.5 -174.5 t-37 -146q-12 -7 -36 -7q-17 0 -26.5 11.5t-9.5 28.5q0 13 3 23zM270 507l-18 -61h207l8 27q18 65 57 128q-7 28 -31.5 45.5t-59.5 17.5q-51 0 -95 -37t-68 -120z" />
<glyph unicode="ft" horiz-adv-x="603" d="M584 573q-10 -10 -23.5 -40t-21.5 -55l-8 -25h127l-18 -44h-124l-67 -182q-44 -118 -44 -148q0 -19 17 -19q24 0 57.5 34t63.5 78l17 -10q-31 -60 -84 -119t-101 -59q-52 0 -52 62q0 39 16 84l98 278h-197l-87 -260q-149 -451 -344 -451q-42 0 -61.5 17.5t-19.5 42.5 q0 27 17.5 40.5t40.5 13.5l13 -1q-6 -14 -6 -25q0 -40 48 -40q59 0 103.5 62.5t82.5 189.5l123 408h-76l7 24l83 17l9 27q44 132 133 219t200 87q56 0 85 -18.5t29 -47.5q0 -24 -19 -41t-44 -17q-18 0 -34 8q9 16 9 31q0 41 -74 41q-60 0 -105.5 -56t-81.5 -171l-19 -62 l201 10l26 71q20 57 71 57q23 0 34 -11z" />
<glyph unicode="fft" horiz-adv-x="902" d="M883 573q-10 -10 -23.5 -40t-21.5 -55l-8 -25h127l-18 -44h-124l-67 -182q-44 -118 -44 -148q0 -19 17 -19q24 0 57.5 34t63.5 78l17 -10q-31 -60 -84 -119t-101 -59q-52 0 -52 62q0 39 16 84l98 278h-197l-87 -260q-149 -451 -344 -451q-42 0 -61.5 17.5t-19.5 42.5 q0 27 17.5 40.5t40.5 13.5l13 -1q-6 -14 -6 -25q0 -40 48 -40q59 0 103.5 62.5t82.5 189.5l120 399h-209l-83 -248q-149 -451 -344 -451q-42 0 -61.5 17.5t-19.5 42.5q0 27 17.5 40.5t40.5 13.5l13 -1q-6 -14 -6 -25q0 -40 48 -40q59 0 103.5 62.5t82.5 189.5l123 408h-76 l7 24l83 17l8 26q37 114 119.5 175t186.5 61q75 0 110 -32q96 103 216 103q56 0 85 -18.5t29 -47.5q0 -24 -19 -41t-44 -17q-18 0 -34 8q9 16 9 31q0 41 -74 41q-60 0 -105.5 -56t-81.5 -171l-19 -62l201 10l26 71q20 57 71 57q23 0 34 -11zM463 446l9 27q23 70 55 121 q-3 32 -28 51t-65 19q-51 0 -95 -37t-68 -120l-18 -61h210z" />
<glyph unicode="fy" horiz-adv-x="760" d="M775 396q0 -67 -59.5 -176t-145 -211.5t-191 -177t-187.5 -74.5q-30 0 -47.5 14.5t-17.5 38.5q0 43 45 55q10 -32 53 -32q71 0 137 39t85 78q6 13 6 86q0 143 -24 341q-2 19 -15.5 26t-41.5 6l-132 -3l-87 -258q-151 -451 -344 -451q-42 0 -61.5 17.5t-19.5 42.5 q0 27 17.5 40.5t40.5 13.5l13 -1q-6 -14 -6 -25q0 -40 48 -40q59 0 103.5 62.5t82.5 189.5l123 408h-76l7 24l82 10l10 34q39 132 129.5 219t203.5 87q66 0 95 -26t29 -59q0 -26 -21 -47.5t-50 -21.5q-20 0 -36 8q7 23 7 40q0 62 -67 62q-62 0 -108.5 -55.5t-83.5 -171.5 l-22 -69l171 13q38 2 44 2q39 0 42 -50q11 -194 11 -401q67 64 121.5 166t54.5 173q0 58 -44 65q4 27 21.5 42.5t40.5 15.5q29 0 46.5 -19.5t17.5 -49.5z" />
<glyph unicode="ffy" horiz-adv-x="1059" d="M1074 396q0 -67 -59.5 -176t-145 -211.5t-191 -177t-187.5 -74.5q-30 0 -47.5 14.5t-17.5 38.5q0 43 45 55q10 -32 53 -32q71 0 137 39t85 78q6 13 6 86q0 141 -24 339q-2 19 -14 24.5t-43 5.5h-132l-87 -257q-151 -451 -344 -451q-42 0 -61.5 17.5t-19.5 42.5 q0 27 17.5 40.5t40.5 13.5l13 -1q-6 -14 -6 -25q0 -40 48 -40q59 0 103.5 62.5t82.5 189.5l123 408h-209l-86 -257q-149 -451 -344 -451q-42 0 -61.5 17.5t-19.5 42.5q0 27 17.5 40.5t40.5 13.5l13 -1q-6 -14 -6 -25q0 -40 48 -40q59 0 103.5 62.5t82.5 189.5l123 408h-76 l7 24l81 11l10 32q36 114 118.5 175t187.5 61q72 0 108 -31q99 102 218 102q66 0 95 -26t29 -59q0 -26 -21 -47.5t-50 -21.5q-20 0 -36 8q7 23 7 40q0 62 -67 62q-63 0 -109.5 -55.5t-82.5 -171.5l-20 -64l169 8q38 2 44 2q39 0 42 -50q11 -194 11 -401q67 64 121.5 166 t54.5 173q0 58 -44 65q4 27 21.5 42.5t40.5 15.5q29 0 46.5 -19.5t17.5 -49.5zM271 507l-21 -68l213 3l9 31q20 68 54 124q-4 31 -28.5 49t-63.5 18q-114 0 -163 -157z" />
<glyph unicode="gf" horiz-adv-x="744" d="M1058 713q0 -24 -19 -41t-44 -17q-18 0 -34 8q9 16 9 31q0 41 -74 41q-60 0 -105.5 -56t-81.5 -171l-19 -62h136l-21 -50h-131l-83 -248q-18 -54 -34 -94.5t-39 -85.5t-48 -77.5t-59 -63t-73 -49t-90 -30t-111 -11.5q-81 0 -130 36t-49 93q0 38 21.5 61t53.5 23 q17 0 27.5 -8t12.5 -19q-47 -8 -47 -57q0 -38 35 -65t95 -27q72 0 106.5 28.5t34.5 65.5q0 32 -21.5 49t-75.5 33q-33 10 -49 15.5t-38.5 17.5t-32.5 28t-10 38q0 37 27.5 59t63.5 27q-71 21 -71 106t59.5 155t139.5 70q44 0 75 -28q28 -6 51 -6q33 0 62 16q16 -12 16 -30 q0 -38 -40 -38q-14 0 -41 13.5t-28 14.5q10 -22 10 -59q0 -81 -53.5 -146t-128.5 -72q-74 -13 -74 -53q0 -14 14.5 -25t31.5 -17t53 -17q72 -21 102 -52t30 -79q0 -46 -35 -84q89 54 131 193l123 408h-76l7 24l83 17l9 27q44 132 133 219t200 87q56 0 85 -18.5t29 -47.5z M267 437q-36 0 -61 -35.5t-34.5 -76t-9.5 -77.5q0 -89 53 -89q36 0 61.5 35t35.5 76t10 78q0 89 -55 89z" />
<glyph unicode="gfl" horiz-adv-x="1013" d="M602 446l9 27q44 132 133 219t200 87q69 0 101 -43q21 7 35 14l-203 -585q-24 -69 -24 -90t20 -21q42 0 106 93l15 -11q-81 -152 -167 -152q-58 0 -58 66q0 28 17 81l169 500q8 24 8 47q0 57 -62 57q-63 0 -109.5 -55.5t-82.5 -171.5l-19 -62h136l-21 -50h-131l-83 -248 q-18 -54 -34 -94.5t-39 -85.5t-48 -77.5t-59 -63t-73 -49t-90 -30t-111 -11.5q-81 0 -130 36t-49 93q0 38 21.5 61t53.5 23q17 0 27.5 -8t12.5 -19q-47 -8 -47 -57q0 -38 35 -65t95 -27q72 0 106.5 28.5t34.5 65.5q0 32 -21.5 49t-75.5 33q-33 10 -49 15.5t-38.5 17.5 t-32.5 28t-10 38q0 37 27.5 59t63.5 27q-71 21 -71 106t59.5 155t139.5 70q44 0 75 -28q28 -6 51 -6q33 0 62 16q16 -12 16 -30q0 -38 -40 -38q-14 0 -41 13.5t-28 14.5q10 -22 10 -59q0 -81 -53.5 -146t-128.5 -72q-74 -13 -74 -53q0 -14 14.5 -25t31.5 -17t53 -17 q72 -21 102 -52t30 -79q0 -46 -35 -84q89 54 131 193l123 408h-76l7 24zM267 437q-36 0 -61 -35.5t-34.5 -76t-9.5 -77.5q0 -89 53 -89q36 0 61.5 35t35.5 76t10 78q0 89 -55 89z" />
<glyph unicode="f&#xe4;" horiz-adv-x="784" d="M680 50q38 0 93 90l15 -10q-23 -54 -62.5 -100.5t-86.5 -46.5q-52 0 -52 57q0 37 30 115h-4q-16 -33 -28 -54t-36 -53t-54.5 -48.5t-66.5 -16.5q-44 0 -66 31.5t-22 82.5q0 80 40 159.5t107 131t139 51.5q39 0 77 -31q6 19 21 38t37 19q21 0 38 -15q-28 -32 -83 -172 t-55 -206q0 -22 19 -22zM465 42q39 0 84.5 58.5t76.5 128t47 127.5q-19 45 -67 45q-75 0 -131.5 -90.5t-56.5 -193.5q0 -40 10.5 -57.5t36.5 -17.5zM770 556q-20 0 -32 12.5t-12 31.5q0 23 17 42t42 19q19 0 31 -12.5t12 -31.5q0 -23 -17.5 -42t-40.5 -19zM584 556 q-19 0 -31 10t-12 27q0 15 14.5 42.5t14.5 43.5q0 60 -88 60q-139 0 -211 -231l-19 -62h136l-21 -50h-131l-83 -248q-149 -451 -344 -451q-42 0 -61.5 17.5t-19.5 42.5q0 27 17.5 40.5t40.5 13.5l13 -1q-6 -14 -6 -25q0 -40 48 -40q59 0 103.5 62.5t82.5 189.5l123 408h-76 l7 24l83 17l9 27q44 132 133 219t200 87q77 0 108.5 -37.5t31.5 -91.5q0 -32 -16 -63t-46 -31z" />
<glyph unicode="ff&#xe4;" horiz-adv-x="1090" d="M885 556q-19 0 -31 10t-12 27q0 15 14.5 42.5t14.5 43.5q0 60 -88 60q-139 0 -211 -231l-19 -62h136l-21 -50h-131l-83 -248q-149 -451 -344 -451q-42 0 -61.5 17.5t-19.5 42.5q0 27 17.5 40.5t40.5 13.5l13 -1q-6 -14 -6 -25q0 -40 48 -40q59 0 103.5 62.5t82.5 189.5 l120 399h-211l-83 -248q-149 -451 -344 -451q-42 0 -61.5 17.5t-19.5 42.5q0 27 17.5 40.5t40.5 13.5l13 -1q-6 -14 -6 -25q0 -40 48 -40q59 0 103.5 62.5t82.5 189.5l123 408h-76l7 24l83 17l8 26q37 114 119.5 175t186.5 61q78 0 110 -34q97 105 218 105q77 0 108.5 -37.5 t31.5 -91.5q0 -32 -16 -63t-46 -31zM981 50q38 0 93 90l15 -10q-23 -54 -62.5 -100.5t-86.5 -46.5q-52 0 -52 57q0 37 30 115h-4q-16 -33 -28 -54t-36 -53t-54.5 -48.5t-66.5 -16.5q-44 0 -66 31.5t-22 82.5q0 80 40 159.5t107 131t139 51.5q39 0 77 -31q6 19 21 38t37 19 q21 0 38 -15q-28 -32 -83 -172t-55 -206q0 -22 19 -22zM766 42q39 0 84.5 58.5t76.5 128t47 127.5q-19 45 -67 45q-75 0 -131.5 -90.5t-56.5 -193.5q0 -40 10.5 -57.5t36.5 -17.5zM271 507l-18 -61h212l9 27q20 63 53 117q-4 35 -29 54.5t-64 19.5q-51 0 -95 -37t-68 -120z M1071 556q-20 0 -32 12.5t-12 31.5q0 23 17 42t42 19q19 0 31 -12.5t12 -31.5q0 -23 -17.5 -42t-40.5 -19z" />
<glyph unicode="f&#xeb;" horiz-adv-x="710" d="M584 556q-19 0 -31 10t-12 27q0 15 14.5 42.5t14.5 43.5q0 60 -88 60q-139 0 -211 -231l-19 -62h136l-21 -50h-131l-83 -248q-149 -451 -344 -451q-42 0 -61.5 17.5t-19.5 42.5q0 27 17.5 40.5t40.5 13.5l13 -1q-6 -14 -6 -25q0 -40 48 -40q59 0 103.5 62.5t82.5 189.5 l123 408h-76l7 24l83 17l9 27q44 132 133 219t200 87q77 0 108.5 -37.5t31.5 -91.5q0 -32 -16 -63t-46 -31zM763 556q-20 0 -32 12.5t-12 31.5q0 23 17 42t42 19q19 0 31 -12.5t12 -31.5q0 -23 -17.5 -42t-40.5 -19zM652 390q0 36 -34 36q-30 0 -57.5 -20t-48 -51.5t-34 -59 t-23.5 -54.5q197 58 197 149zM729 397q0 -57 -69.5 -101.5t-212.5 -81.5q-15 -51 -15 -98q0 -32 16.5 -53.5t52.5 -21.5q42 0 84.5 31t65.5 65l15 -11q-9 -17 -21.5 -34t-38 -45t-60.5 -45.5t-74 -17.5q-59 0 -90.5 31.5t-31.5 89.5q0 43 13 92t40 97t62.5 86.5t84 62 t102.5 23.5q39 0 58 -20.5t19 -48.5z" />
<glyph unicode="ff&#xeb;" horiz-adv-x="1016" d="M885 556q-19 0 -31 10t-12 27q0 15 14.5 42.5t14.5 43.5q0 60 -88 60q-139 0 -211 -231l-19 -62h136l-21 -50h-131l-83 -248q-149 -451 -344 -451q-42 0 -61.5 17.5t-19.5 42.5q0 27 17.5 40.5t40.5 13.5l13 -1q-6 -14 -6 -25q0 -40 48 -40q59 0 103.5 62.5t82.5 189.5 l120 399h-211l-83 -248q-149 -451 -344 -451q-42 0 -61.5 17.5t-19.5 42.5q0 27 17.5 40.5t40.5 13.5l13 -1q-6 -14 -6 -25q0 -40 48 -40q59 0 103.5 62.5t82.5 189.5l123 408h-76l7 24l83 17l8 26q37 114 119.5 175t186.5 61q78 0 110 -34q97 105 218 105q77 0 108.5 -37.5 t31.5 -91.5q0 -32 -16 -63t-46 -31zM271 507l-18 -61h212l9 27q20 63 53 117q-4 35 -29 54.5t-64 19.5q-51 0 -95 -37t-68 -120zM1069 556q-20 0 -32 12.5t-12 31.5q0 23 17 42t42 19q19 0 31 -12.5t12 -31.5q0 -23 -17.5 -42t-40.5 -19zM958 390q0 36 -34 36 q-30 0 -57.5 -20t-48 -51.5t-34 -59t-23.5 -54.5q197 58 197 149zM1035 397q0 -57 -69.5 -101.5t-212.5 -81.5q-15 -51 -15 -98q0 -32 16.5 -53.5t52.5 -21.5q42 0 84.5 31t65.5 65l15 -11q-9 -17 -21.5 -34t-38 -45t-60.5 -45.5t-74 -17.5q-59 0 -90.5 31.5t-31.5 89.5 q0 43 13 92t40 97t62.5 86.5t84 62t102.5 23.5q39 0 58 -20.5t19 -48.5z" />
<glyph unicode="f&#xf6;" horiz-adv-x="741" d="M565 556q-38 0 -38 37q0 15 14.5 42.5t14.5 43.5q0 31 -15 45.5t-59 14.5q-139 0 -211 -231l-19 -62h136l-21 -50h-131l-83 -248q-149 -451 -344 -451q-42 0 -61.5 17.5t-19.5 42.5q0 27 17.5 40.5t40.5 13.5l13 -1q-6 -14 -6 -25q0 -40 48 -40q59 0 103.5 62.5 t82.5 189.5l123 408h-76l7 24l83 17l9 27q44 132 133 219t200 87q70 0 100.5 -33t30.5 -84q0 -32 -20 -69t-52 -37zM752 556q-20 0 -32 12.5t-12 31.5q0 23 17 42t42 19q19 0 31 -12.5t12 -31.5q0 -23 -17.5 -42t-40.5 -19zM467 -16q-53 0 -84.5 37t-31.5 102q0 55 21.5 116 t57 111t87.5 83t107 33q54 0 85.5 -37t31.5 -103q0 -75 -35.5 -153.5t-100 -133.5t-138.5 -55zM496 21q43 0 82 50.5t60 118.5t21 126q0 112 -63 112q-43 0 -82 -50.5t-60 -118t-21 -125.5q0 -113 63 -113z" />
<glyph unicode="ff&#xf6;" horiz-adv-x="1047" d="M866 556q-38 0 -38 37q0 15 14.5 42.5t14.5 43.5q0 31 -15 45.5t-59 14.5q-139 0 -211 -231l-19 -62h136l-21 -50h-131l-83 -248q-149 -451 -344 -451q-42 0 -61.5 17.5t-19.5 42.5q0 27 17.5 40.5t40.5 13.5l13 -1q-6 -14 -6 -25q0 -40 48 -40q59 0 103.5 62.5 t82.5 189.5l120 399h-211l-83 -248q-149 -451 -344 -451q-42 0 -61.5 17.5t-19.5 42.5q0 27 17.5 40.5t40.5 13.5l13 -1q-6 -14 -6 -25q0 -40 48 -40q59 0 103.5 62.5t82.5 189.5l123 408h-76l7 24l83 17l8 26q37 114 119.5 175t186.5 61q78 0 110 -34q98 105 218 105 q70 0 100.5 -33t30.5 -84q0 -36 -20.5 -71t-51.5 -35zM271 507l-18 -61h212l8 27q19 60 54 117q-4 35 -29 54.5t-64 19.5q-51 0 -95 -37t-68 -120zM1058 556q-20 0 -32 12.5t-12 31.5q0 23 17 42t42 19q19 0 31 -12.5t12 -31.5q0 -23 -17.5 -42t-40.5 -19zM773 -16 q-53 0 -84.5 37t-31.5 102q0 55 21.5 116t57 111t87.5 83t107 33q54 0 85.5 -37t31.5 -103q0 -75 -35.5 -153.5t-100 -133.5t-138.5 -55zM802 21q43 0 82 50.5t60 118.5t21 126q0 112 -63 112q-43 0 -82 -50.5t-60 -118t-21 -125.5q0 -113 63 -113z" />
<glyph unicode="f&#xfc;" horiz-adv-x="802" d="M578 556q-19 0 -31 10t-12 27q0 15 14.5 42.5t14.5 43.5q0 60 -82 60q-139 0 -211 -231l-19 -62h136l-21 -50h-131l-83 -248q-149 -451 -344 -451q-42 0 -61.5 17.5t-19.5 42.5q0 27 17.5 40.5t40.5 13.5l13 -1q-6 -14 -6 -25q0 -40 48 -40q59 0 103.5 62.5t82.5 189.5 l123 408h-76l7 24l83 17l9 27q44 132 133 219t200 87q70 0 102 -36t32 -87q0 -33 -16 -66.5t-46 -33.5zM760 556q-20 0 -32 12.5t-12 31.5q0 23 17 42t42 19q19 0 31 -12.5t12 -31.5q0 -23 -17.5 -42t-40.5 -19zM451 400q-29 0 -86 -82l-15 10q74 138 158 138q38 0 38 -39 q0 -37 -34 -135l-60 -172q-12 -33 -12 -50q0 -19 15 -19q47 0 114.5 80t114.5 177.5t47 149.5q10 8 34 8q38 0 38 -36q0 -11 -5 -28l-94 -289q-7 -23 -7 -32q0 -28 69 -28v-22q-97 -4 -184 -46q99 243 114 285h-4q-64 -119 -137.5 -202.5t-141.5 -83.5q-53 0 -53 50 q0 35 19 87l60 171q27 76 27 94q0 14 -15 14z" />
<glyph unicode="ff&#xfc;" horiz-adv-x="1108" d="M866 556q-38 0 -38 37q0 15 14.5 42.5t14.5 43.5q0 31 -15 45.5t-59 14.5q-139 0 -211 -231l-19 -62h136l-21 -50h-131l-83 -248q-149 -451 -344 -451q-42 0 -61.5 17.5t-19.5 42.5q0 27 17.5 40.5t40.5 13.5l13 -1q-6 -14 -6 -25q0 -40 48 -40q59 0 103.5 62.5 t82.5 189.5l120 399h-211l-83 -248q-149 -451 -344 -451q-42 0 -61.5 17.5t-19.5 42.5q0 27 17.5 40.5t40.5 13.5l13 -1q-6 -14 -6 -25q0 -40 48 -40q59 0 103.5 62.5t82.5 189.5l123 408h-76l7 24l83 17l8 26q37 114 119.5 175t186.5 61q78 0 110 -34q98 105 218 105 q70 0 100.5 -33t30.5 -84q0 -36 -20.5 -71t-51.5 -35zM271 507l-18 -61h212l8 27q19 60 54 117q-4 35 -29 54.5t-64 19.5q-51 0 -95 -37t-68 -120zM1058 556q-20 0 -32 12.5t-12 31.5q0 23 17 42t42 19q19 0 31 -12.5t12 -31.5q0 -23 -17.5 -42t-40.5 -19zM757 400 q-29 0 -86 -82l-15 10q74 138 158 138q38 0 38 -39q0 -37 -34 -135l-60 -172q-12 -33 -12 -50q0 -19 15 -19q47 0 114.5 80t114.5 177.5t47 149.5q10 8 34 8q38 0 38 -36q0 -11 -5 -28l-94 -289q-7 -23 -7 -32q0 -28 69 -28v-22q-97 -4 -184 -46q99 243 114 285h-4 q-64 -119 -137.5 -202.5t-141.5 -83.5q-53 0 -53 50q0 35 19 87l60 171q27 76 27 94q0 14 -15 14z" />
<glyph unicode=" "  horiz-adv-x="233" />
<glyph unicode="&#x09;" horiz-adv-x="233" />
<glyph unicode="&#xa0;" horiz-adv-x="233" />
<glyph unicode="!" horiz-adv-x="286" d="M283 714q22 0 35.5 -14t13.5 -36q0 -7 -2 -17q-13 -64 -65.5 -206t-66.5 -207l-7 -47h-34q6 18 12 47q14 62 21 208t25 211q17 61 68 61zM130 -16q-22 0 -36 14t-14 36q0 27 19.5 48.5t47.5 21.5q22 0 35.5 -14t13.5 -36q0 -27 -19 -48.5t-47 -21.5z" />
<glyph unicode="&#x22;" horiz-adv-x="323" d="M188 709q14 0 22.5 -8.5t8.5 -21.5q0 -6 -2 -16q-7 -36 -32 -89t-34 -97l-4 -27h-27q4 14 7 27q9 41 9 106q0 56 8 87q11 39 44 39zM312 709q14 0 22.5 -8.5t8.5 -21.5q0 -6 -2 -16q-7 -36 -32 -89t-34 -97l-4 -27h-27q4 14 7 27q9 41 9 106q0 56 8 87q11 39 44 39z" />
<glyph unicode="#" horiz-adv-x="626" d="M186 403l29 57h107l84 166h57l-83 -166h154l83 166h57l-83 -166h121l-29 -57h-124l-92 -182h117l-29 -58h-120l-81 -163h-56l81 163h-155l-82 -163h-57l82 163h-108l29 58h110l93 182h-105zM348 403l-93 -182h156l91 182h-154z" />
<glyph unicode="$" horiz-adv-x="510" d="M425 147q0 56 -85 109q-30 -95 -72 -238q60 0 108.5 37t48.5 92zM180 -131l36 113q-73 0 -116.5 34.5t-43.5 79.5q0 31 22 52.5t64 22.5q-7 -28 -7 -57q0 -97 94 -97l80 253q-58 35 -92 75.5t-34 98.5q0 84 65.5 146.5t175.5 66.5l33 115h40l-36 -116q58 -2 100 -30.5 t42 -69.5q0 -27 -24.5 -48t-62.5 -25q6 25 6 49q0 73 -72 83l-75 -237q65 -35 102.5 -74.5t37.5 -101.5q0 -97 -78 -159t-184 -62q-22 -71 -33 -112h-40zM269 497q0 -56 79 -103l65 224q-64 -2 -104 -36.5t-40 -84.5z" />
<glyph unicode="%" horiz-adv-x="758" d="M662 635h61q-213 -252 -284 -337l-267 -323h-62q217 253 289 339zM297 603q-31 0 -54.5 -31.5t-33 -68t-9.5 -66.5q0 -35 14 -54.5t36 -19.5q44 0 70.5 56.5t26.5 107.5q0 34 -12.5 55t-37.5 21zM321 643q47 0 72 -29.5t25 -76.5q0 -83 -58 -148.5t-134 -65.5 q-43 0 -69.5 27.5t-26.5 76.5q0 83 57.5 149.5t133.5 66.5zM574 245q-31 0 -54.5 -31.5t-33 -68t-9.5 -66.5q0 -35 14 -54.5t36 -19.5q44 0 70.5 56.5t26.5 107.5q0 34 -12.5 55t-37.5 21zM598 285q47 0 72 -29.5t25 -76.5q0 -83 -58 -148.5t-134 -65.5q-43 0 -69.5 27.5 t-26.5 76.5q0 83 57.5 149.5t133.5 66.5z" />
<glyph unicode="&#x26;" horiz-adv-x="731" d="M386 714q50 0 80 -24.5t30 -63.5q0 -36 -23.5 -58.5t-58.5 -22.5q-28 0 -45 12q34 30 34 69q0 50 -52 50q-31 0 -58 -29.5t-27 -89.5q0 -43 14 -107q40 0 63.5 -15t23.5 -42q0 -18 -12.5 -28t-30.5 -10q2 8 2 20q0 50 -51 50q-65 0 -105 -59t-40 -128q0 -199 236 -199 q107 0 187.5 66.5t80.5 154.5q0 52 -30.5 93.5t-79.5 51.5q-82 -38 -82 -113q0 -28 18 -44t41 -16q15 0 29 6q2 -8 2 -20q-1 -23 -18.5 -36.5t-43.5 -13.5q-43 0 -71 27.5t-28 70.5q0 52 34 90.5t82.5 62.5t97.5 48t83 61t34 86q0 25 -15 45.5t-41 29.5q16 31 51 31 q40 0 64 -30t24 -69q0 -75 -50 -114.5t-147 -68.5v-4q81 -58 81 -163q0 -76 -50.5 -142.5t-133.5 -105.5t-176 -39q-115 0 -194 55t-79 162q0 59 22.5 106.5t58 76t71 44.5t67.5 20q-48 48 -48 114q0 67 49.5 109.5t129.5 42.5z" />
<glyph unicode="'" horiz-adv-x="199" d="M188 709q14 0 22.5 -8.5t8.5 -21.5q0 -6 -2 -16q-7 -36 -32 -89t-34 -97l-4 -27h-27q4 14 7 27q9 41 9 106q0 56 8 87q11 39 44 39z" />
<glyph unicode="(" horiz-adv-x="342" d="M107 202q0 79 24.5 156t62 137t90 117t100 96t100.5 75l13 -16q-309 -278 -309 -589q0 -195 94 -341l-20 -16q-64 63 -109.5 163t-45.5 218z" />
<glyph unicode=")" horiz-adv-x="365" d="M397 402q0 -79 -24.5 -156t-62 -137t-90 -117t-100 -96t-100.5 -75l-13 16q309 278 309 589q0 195 -94 341l20 16q64 -63 109.5 -163t45.5 -218z" />
<glyph unicode="*" horiz-adv-x="324" d="M264 565q11 -4 36 -12t39.5 -14t26.5 -14q13 -8 13 -22q0 -11 -7.5 -18.5t-17.5 -7.5q-6 0 -12 3q-37 21 -85 69q16 -96 16 -109q0 -10 -7.5 -17t-18.5 -7q-10 0 -17 7t-7 17q0 11 14 109q-48 -48 -85 -69q-6 -3 -12 -3q-10 0 -17.5 7.5t-7.5 18.5q0 14 13 22 q12 8 26.5 14t39.5 14t36 12q-11 4 -36 12t-39.5 14t-26.5 14q-13 8 -13 22q0 11 7.5 18.5t17.5 7.5q6 0 12 -3q37 -21 85 -69q-14 98 -14 109q0 10 7 17t17 7q11 0 18.5 -7t7.5 -17q0 -13 -16 -109q48 48 85 69q6 3 12 3q10 0 17.5 -7.5t7.5 -18.5q0 -14 -13 -22 q-12 -8 -26.5 -14t-39.5 -14t-36 -12z" />
<glyph unicode="+" horiz-adv-x="457" d="M199 449h59v-199h198v-59h-198v-191h-59v191h-199v59h199v199z" />
<glyph unicode="," horiz-adv-x="268" d="M106 104q25 0 40 -18t15 -46q0 -72 -55.5 -127.5t-130.5 -71.5l-3 15q44 16 75 49.5t31 77.5q0 47 -33 64q5 24 21.5 40.5t39.5 16.5z" />
<glyph unicode="-" horiz-adv-x="389" d="M354 273q-140 -8 -285 -55l-7 14q46 35 115 66.5t132 31.5q24 0 37.5 -11t13.5 -27q0 -11 -6 -19z" />
<glyph unicode="." horiz-adv-x="268" d="M95 -16q-22 0 -36 14t-14 36q0 27 19.5 48.5t47.5 21.5q22 0 35.5 -14t13.5 -36q0 -27 -19 -48.5t-47 -21.5z" />
<glyph unicode="/" horiz-adv-x="411" d="M250 307l250 475h66q-184 -329 -264 -475l-251 -475h-66q185 329 265 475z" />
<glyph unicode="0" horiz-adv-x="590" d="M314 24q67 0 114 43.5t66.5 101t19.5 119.5q0 77 -36.5 122.5t-90.5 45.5q-52 0 -92 -25.5t-62.5 -66.5t-33.5 -85.5t-11 -88.5q0 -77 35.5 -121.5t90.5 -44.5zM425 496q85 0 139 -52t54 -141q0 -58 -25.5 -115.5t-69.5 -102.5t-108.5 -73t-137.5 -28q-87 0 -141 51.5 t-54 140.5q0 122 99.5 221t243.5 99z" />
<glyph unicode="1" horiz-adv-x="375" d="M427 460l-38 -16q-38 -16 -57 -43.5t-32 -83.5l-49 -223q-13 -56 42 -61l45 -4l-7 -29q-59 3 -140 3l-145 -3l7 29l30 4q79 10 99 100l47 209q14 66 -33 72l-52 7l7 29q76 3 146 14q36 6 69 13t48 11l14 5z" />
<glyph unicode="2" horiz-adv-x="485" d="M355 496q63 0 100 -32t37 -82q0 -78 -75 -143t-261 -172l162 7q55 2 86.5 21.5t61.5 66.5l18 -5l-80 -157h-355l-3 24l226 174q67 52 95 86.5t28 80.5q0 31 -19.5 53t-55.5 22q-54 0 -83 -32t-29 -75q0 -12 1 -16q-18 -6 -32 -6q-20 0 -32.5 11.5t-12.5 31.5 q0 49 64.5 95.5t158.5 46.5z" />
<glyph unicode="3" horiz-adv-x="462" d="M332 496q63 0 98 -31.5t35 -78.5q0 -57 -52 -112t-146 -83v-4q18 3 36 3q58 0 93 -31t35 -79q0 -83 -62 -143.5t-158 -90.5t-215 -35l3 33q136 10 232.5 72t96.5 143q0 40 -31 63.5t-82 23.5q-17 0 -35 -2.5t-27 -5.5l-9 -2l2 41q35 11 58 19.5t57.5 26.5t55 37t36 48.5 t15.5 64.5q0 28 -17 47.5t-55 19.5q-53 0 -82.5 -32t-29.5 -75q0 -12 1 -16q-16 -6 -32 -6q-20 0 -32 11.5t-12 31.5q0 50 64.5 96t158.5 46z" />
<glyph unicode="4" horiz-adv-x="560" d="M525 10h-130l-45 -203h-79l46 203h-264l-8 23l223 241q73 79 73 145q0 34 -15 54q23 23 54 23q27 0 41.5 -18.5t14.5 -46.5q0 -45 -30 -90t-111 -115l-184 -159h218l32 144l87 34l-40 -178h130z" />
<glyph unicode="5" horiz-adv-x="470" d="M557 568l19 -4l-75 -151h-259l-46 -113q92 0 148.5 -50.5t56.5 -133.5q0 -122 -100.5 -212.5t-232.5 -90.5q-58 0 -87 24.5t-29 54.5q0 26 19.5 45t52.5 19q8 0 12 -1q-9 -27 -9 -42q0 -59 63 -59q83 0 148 70t65 156q0 69 -51 107t-127 38l107 259h200q73 0 125 84z" />
<glyph unicode="6" horiz-adv-x="535" d="M218 267q-24 -68 -24 -118q0 -59 24 -93t66 -34q58 0 101 53.5t43 124.5q0 46 -24 74t-65 28q-28 0 -67 -16t-54 -19zM605 665l5 -29q-98 -31 -181 -91t-131 -123.5t-71 -126.5q9 1 37 17t64 31t67 15q57 0 95 -35t38 -98q0 -75 -45 -132t-104 -82.5t-116 -25.5 q-78 0 -118.5 51t-40.5 127q0 101 47.5 190t124 150.5t160.5 102t169 59.5z" />
<glyph unicode="7" horiz-adv-x="497" d="M181 484h402l5 -17l-277 -320q-118 -137 -118 -227q0 -48 22 -80q-32 -21 -65 -21q-28 0 -46.5 23.5t-18.5 59.5q0 53 32 101.5t138 158.5l246 257l-225 -9q-54 -2 -93 -30.5t-60 -70.5l-19 4z" />
<glyph unicode="8" horiz-adv-x="507" d="M163 111q0 -41 24.5 -66.5t64.5 -25.5q54 0 97.5 36.5t43.5 88.5q0 40 -27.5 80t-54.5 60l-27 21l-34.5 -34.5t-35 -36.5t-25 -33t-20.5 -42.5t-6 -47.5zM402 617q-54 0 -94.5 -35t-40.5 -86q0 -39 27.5 -72t81.5 -75q13 15 37 38t37 37t24 41t11 62q0 38 -22.5 64 t-60.5 26zM566 534q0 -43 -21.5 -79t-46 -54t-57.5 -38.5t-42 -27.5q4 -2 10 -7t22 -20t28.5 -31.5t22.5 -42t10 -51.5q0 -49 -25 -89t-63 -63.5t-80 -36t-80 -12.5q-70 0 -116 34t-46 93q0 44 21 79t45.5 53.5t61 42t51.5 37.5q-46 39 -66.5 69.5t-20.5 70.5 q0 84 70.5 139.5t168.5 55.5q66 0 109.5 -34t43.5 -88z" />
<glyph unicode="9" horiz-adv-x="532" d="M424 214q25 71 25 118q0 59 -24 93t-66 34q-58 0 -101.5 -53.5t-43.5 -124.5q0 -46 25 -74t66 -28q27 0 65.5 16t53.5 19zM37 -184l-4 29q145 45 246 142.5t137 198.5q-9 -1 -37 -17t-64.5 -31t-67.5 -15q-56 0 -94 35t-38 98q0 46 17.5 86t45 67.5t62.5 47.5t70.5 29.5 t68.5 9.5q79 0 119.5 -51t40.5 -127q0 -82 -32 -156.5t-83.5 -129.5t-118 -100t-134 -73t-134.5 -43z" />
<glyph unicode=":" horiz-adv-x="268" d="M95 -16q-22 0 -36 14t-14 36q0 27 19.5 48.5t47.5 21.5q22 0 35.5 -14t13.5 -36q0 -27 -19 -48.5t-47 -21.5zM160 294q-22 0 -36 14t-14 36q0 27 19.5 48.5t47.5 21.5q22 0 35.5 -14t13.5 -36q0 -27 -19 -48.5t-47 -21.5z" />
<glyph unicode=";" horiz-adv-x="268" d="M160 294q-22 0 -36 14t-14 36q0 27 19.5 48.5t47.5 21.5q22 0 35.5 -14t13.5 -36q0 -27 -19 -48.5t-47 -21.5zM106 104q25 0 40 -18t15 -46q0 -72 -55.5 -127.5t-130.5 -71.5l-3 15q44 16 75 49.5t31 77.5q0 47 -33 64q5 24 21.5 40.5t39.5 16.5z" />
<glyph unicode="&#x3c;" horiz-adv-x="555" d="M489 0l-431 188v65l431 188v-69l-357 -152l357 -151v-69z" />
<glyph unicode="=" horiz-adv-x="457" d="M457 93h-457v59h457v-59zM457 347v-59h-457v59h457z" />
<glyph unicode="&#x3e;" horiz-adv-x="545" d="M489 189l-431 -189v69l357 151l-357 152v69l431 -188v-64z" />
<glyph unicode="?" horiz-adv-x="401" d="M187 188h-19q-23 36 -23 88q0 43 26 78.5t62.5 60.5t73.5 49t63 56.5t26 70.5q0 28 -25 52.5t-67 24.5q-32 0 -50.5 -12t-18.5 -34q0 -8 1.5 -15t3.5 -10l2 -3q-17 -7 -38 -7t-35.5 13t-14.5 33q0 41 34 61t79 20q67 0 120.5 -43t53.5 -103q0 -51 -19 -90.5t-48 -62.5 t-62 -46t-62 -42t-48 -49t-19 -68q0 -12 4 -22zM120 -16q-22 0 -36 14t-14 36q0 27 19.5 48.5t47.5 21.5q22 0 35.5 -14t13.5 -36q0 -27 -19 -48.5t-47 -21.5z" />
<glyph unicode="@" horiz-adv-x="785" d="M483 103q-47 0 -47 43q0 24 22 84h-4q-57 -127 -137 -127q-33 0 -49.5 23.5t-16.5 60.5q0 91 66 171t148 80q32 0 58 -22q5 14 16 28t27 14t29 -11q-21 -24 -62 -126t-41 -152q0 -24 18 -24q39 0 75.5 12.5t68.5 38t51.5 70.5t19.5 104q0 95 -69 157.5t-192 62.5 q-78 0 -144.5 -34.5t-108 -89t-64.5 -117t-23 -121.5q0 -124 76.5 -205.5t234.5 -81.5q66 0 120 19t80 41q1 -2 1 -7q0 -32 -72 -60.5t-159 -28.5q-164 0 -258.5 85.5t-94.5 236.5q0 52 16.5 106.5t51.5 107t83 93.5t118.5 66.5t151.5 25.5q132 0 214.5 -73t82.5 -179 q0 -122 -87 -196.5t-200 -74.5zM344 147q30 0 64 43t57.5 94t35.5 94q-14 32 -51 32q-56 0 -98 -66.5t-42 -141.5q0 -30 7 -42.5t27 -12.5z" />
<glyph unicode="A" d="M441 303l-26 294l-163 -294h189zM428 705l67 11l57 -623q2 -28 15 -41t42 -18l32 -5l-7 -29q-54 3 -125 3l-155 -3l7 29l21 5q80 16 74 90l-10 138h-213l-72 -137q-25 -46 -25 -64q0 -21 41 -27l32 -5l-7 -29q-72 3 -119 3l-120 -3l7 29l21 5q44 10 68 34.5t51 72.5z" />
<glyph unicode="B" horiz-adv-x="595" d="M401 666q-30 0 -53 -7l-64 -278q12 2 31 2q33 0 67 -6q58 7 98.5 51t40.5 114q0 53 -30.5 88.5t-89.5 35.5zM277 349l-53 -224q-6 -24 -6 -40q0 -51 81 -51q76 0 127.5 39.5t51.5 114.5q0 47 -18.5 81t-47.5 50.5t-55.5 24t-51.5 7.5zM294 697q33 0 77 1.5t73 1.5 q75 0 121.5 -42t46.5 -112q0 -45 -19.5 -80.5t-50 -56t-57 -31.5t-50.5 -16q56 -14 97.5 -58.5t41.5 -115.5q0 -91 -72.5 -139.5t-180.5 -48.5q-98 3 -179 3l-132 -3l7 29l21 5q41 10 62.5 32.5t31.5 65.5l107 469q4 20 4 29q0 17 -11 24.5t-35 11.5l-32 5l7 29 q34 -3 122 -3z" />
<glyph unicode="C" horiz-adv-x="679" d="M718 596q0 -34 -22.5 -58t-53.5 -24q-11 0 -21 2t-15 4l-4 3q12 29 12 58q0 38 -33.5 65.5t-101.5 27.5q-103 0 -177.5 -59t-109 -148t-34.5 -194q0 -115 49.5 -182t130.5 -67q181 0 265 152l26 -7l-65 -147q-23 0 -93 -19t-146 -19q-125 0 -196 73t-71 196 q0 93 34.5 177.5t95 147t149 99.5t190.5 37q86 0 138.5 -34.5t52.5 -83.5z" />
<glyph unicode="D" horiz-adv-x="804" d="M341 659l-122 -534q-6 -24 -6 -40q0 -51 81 -51q173 0 286.5 96.5t113.5 265.5q0 124 -70 197t-206 73q-42 0 -77 -7zM140 3l-132 -3l7 29l21 5q41 10 62.5 32.5t31.5 65.5l107 469q4 20 4 29q0 17 -11 24.5t-35 11.5l-32 5l7 29q29 -3 117 -3q25 0 79.5 1.5t72.5 1.5 q166 0 260.5 -81t94.5 -203q0 -191 -132.5 -303.5t-354.5 -112.5q-28 0 -82.5 1.5t-84.5 1.5z" />
<glyph unicode="E" horiz-adv-x="565" d="M282 34q147 0 234 154l21 -3l-62 -185q-249 3 -335 3l-132 -3l7 29l21 5q41 10 62.5 32.5t31.5 65.5l107 469q4 20 4 29q0 17 -11 24.5t-35 11.5l-32 5l7 29q52 -3 140 -3l319 3l-43 -164h-20q0 61 -35.5 95.5t-107.5 34.5q-48 0 -78 -7l-67 -281h77q41 0 65.5 19 t43.5 58l19 39h26q-25 -71 -38 -128q-6 -28 -10.5 -55.5t-6.5 -40.5l-1 -14h-25l-1 25q-2 58 -60 58h-99l-51 -214q-6 -24 -6 -40q0 -27 16.5 -39t54.5 -12z" />
<glyph unicode="F" horiz-adv-x="565" d="M266 330l-53 -231q-4 -20 -4 -29q0 -17 11 -24.5t35 -11.5l32 -5l-7 -29q-54 3 -140 3l-132 -3l7 29l21 5q41 10 62.5 32.5t31.5 65.5l107 469q4 20 4 29q0 17 -11 24.5t-35 11.5l-32 5l7 29q52 -3 140 -3l319 3l-44 -164h-20q0 130 -142 130q-48 0 -78 -7l-69 -290h74 q41 0 67 19t45 58l19 39h26q-25 -71 -38 -128q-6 -28 -10.5 -55.5t-6.5 -41.5l-1 -13h-25l-1 25q-2 58 -60 58h-99z" />
<glyph unicode="G" horiz-adv-x="737" d="M666 523l-16 2q0 29 -5 51.5t-20.5 47t-50 38t-86.5 13.5q-99 0 -175.5 -57t-116 -147.5t-39.5 -196.5q0 -111 56 -181t146 -70q148 0 174 105l21 83q3 9 3 17q0 18 -11.5 27t-39.5 13l-39 5l7 29h258l-6 -29l-15 -5q-57 -19 -80 -96l-37 -128q-23 0 -60.5 -15t-88.5 -30 t-108 -15q-134 0 -207 72.5t-73 216.5q0 184 134.5 312.5t331.5 128.5q44 0 106.5 -14t86.5 -14z" />
<glyph unicode="H" horiz-adv-x="825" d="M707 34l32 -5l-7 -29q-54 3 -140 3l-132 -3l7 29l21 5q41 10 62.5 32.5t31.5 65.5l48 210h-362l-55 -243q-4 -20 -4 -29q0 -17 11 -24.5t35 -11.5l32 -5l-7 -29q-54 3 -140 3l-132 -3l7 29l21 5q41 10 62.5 32.5t31.5 65.5l107 469q4 20 4 29q0 17 -11 24.5t-35 11.5 l-32 5l7 29q52 -3 140 -3l132 3l-7 -29l-21 -5q-41 -10 -62.5 -32.5t-31.5 -65.5l-42 -185h361l50 218q4 20 4 29q0 17 -11 24.5t-35 11.5l-32 5l7 29q52 -3 140 -3l132 3l-7 -29l-21 -5q-41 -10 -62.5 -32.5t-31.5 -65.5l-107 -469q-4 -20 -4 -29q0 -17 11 -24.5t35 -11.5z " />
<glyph unicode="I" horiz-adv-x="373" d="M255 34l32 -5l-7 -29q-54 3 -140 3l-132 -3l7 29l21 5q41 10 62.5 32.5t31.5 65.5l107 469q4 20 4 29q0 17 -11 24.5t-35 11.5l-32 5l7 29q52 -3 140 -3l132 3l-7 -29l-21 -5q-41 -10 -62.5 -32.5t-31.5 -65.5l-107 -469q-4 -20 -4 -29q0 -17 11 -24.5t35 -11.5z" />
<glyph unicode="J" horiz-adv-x="544" d="M521 684l-88 -366l78 15v-44l-87 -17l-57 -217q-32 -120 -101.5 -194.5t-175.5 -74.5q-42 0 -66.5 17t-24.5 47q0 22 16 34.5t34 12.5q9 0 13 -2q-5 -13 -5 -25q0 -21 14.5 -35t43.5 -14q45 0 87 46t70 157l59 233l-135 -26l-6 46l151 26l82 335h-4q-33 -37 -85 -37 q-28 0 -74 24t-74 24t-48 -18t-20 -47q0 -44 41 -44q16 0 29 7.5t18 14.5l4 8q29 -14 29 -48q0 -21 -17.5 -36.5t-52.5 -15.5t-59 26.5t-24 64.5q0 56 47 99t108 43q37 0 75 -25t60 -25q21 0 43 17t38 37t38.5 37t43.5 17q23 0 41.5 -10.5t25.5 -21.5l7 -11l-6 -26 q-24 18 -54 18q-25 0 -32 -26z" />
<glyph unicode="K" horiz-adv-x="742" d="M255 34l32 -5l-7 -29q-54 3 -140 3l-132 -3l7 29l21 5q41 10 62.5 32.5t31.5 65.5l107 469q4 20 4 29q0 17 -11 24.5t-35 11.5l-32 5l7 29q52 -3 140 -3l132 3l-7 -29l-21 -5q-41 -10 -62.5 -32.5t-31.5 -65.5l-49 -213h79l250 265q11 11 11 23q0 19 -27 23l-29 5l7 29 q80 -3 137 -3l125 3l-7 -29l-34 -5q-79 -11 -139 -73l-226 -232l140 -257q42 -76 119 -76l36 2l-4 -21q-33 -17 -84 -17q-57 0 -95 20t-62 67l-92 184q-26 51 -77 51q-25 0 -39 -8l-47 -207q-4 -20 -4 -29q0 -17 11 -24.5t35 -11.5z" />
<glyph unicode="L" horiz-adv-x="558" d="M255 34q105 0 168 46.5t104 125.5l21 -3l-61 -203q-245 2 -347 3l-132 -3l7 29l21 5q41 10 62.5 32.5t31.5 65.5l107 469q4 20 4 29q0 17 -11 24.5t-35 11.5l-32 5l7 29q52 -3 140 -3l132 3l-7 -29l-21 -5q-41 -10 -62.5 -32.5t-31.5 -65.5l-107 -469q-4 -20 -4 -29 q0 -36 46 -36z" />
<glyph unicode="M" horiz-adv-x="974" d="M102 144l141 457q4 15 4 29q0 17 -10.5 23.5t-35.5 11.5l-32 6l7 29q86 -3 164 -3q-2 -8 -2 -18q0 -26 6 -50l116 -515l347 490q44 62 53 93l169 3l-7 -29l-21 -5q-40 -9 -64.5 -36.5t-29.5 -61.5l-67 -462q-2 -16 -2 -23q0 -44 48 -49l47 -5l-7 -29q-78 4 -151 4 l-151 -4l7 29l21 5q47 11 72 35.5t33 74.5l66 406l-392 -555l-31 -4l-129 552l-120 -402q-13 -44 -13 -63q0 -37 53 -44l43 -5l-7 -29q-69 4 -151 4l-104 -4l7 29l21 5q40 10 63 34.5t39 75.5z" />
<glyph unicode="N" horiz-adv-x="815" d="M679 666l-43 5l7 29q73 -3 154 -3l109 3l-7 -29l-21 -5q-41 -10 -62.5 -32.5t-31.5 -65.5l-126 -573l-31 -4l-344 581l-97 -418q-14 -64 -14 -76q0 -38 54 -44l45 -5l-7 -29q-84 3 -146 3l-110 -3l7 29l21 5q42 10 63 32t31 66l107 469q4 16 4 29q0 17 -11 24.5t-35 11.5 l-32 5l7 29q48 -3 161 -3q0 -27 21 -64l294 -500l90 447q5 22 5 33q0 26 -15.5 37.5t-46.5 15.5z" />
<glyph unicode="O" horiz-adv-x="760" d="M368 23q70 0 128 40t92 102t52 129.5t18 130.5q0 117 -60 183.5t-151 66.5q-70 0 -128 -40t-92 -102t-52 -129.5t-18 -130.5q0 -117 60 -183.5t151 -66.5zM495 714q117 0 190 -72t73 -197q0 -121 -58.5 -227t-160 -170t-219.5 -64q-117 0 -190 72t-73 197q0 121 58.5 227 t160 170t219.5 64z" />
<glyph unicode="P" horiz-adv-x="597" d="M375 338q67 0 113 56.5t46 126.5q0 64 -39 104.5t-96 40.5q-30 0 -53 -7l-71 -305q12 0 44.5 -8t55.5 -8zM310 697q20 0 58 1.5t65 1.5q87 0 142 -48.5t55 -130.5q0 -93 -69 -159.5t-156 -66.5q-47 0 -87 14.5t-53 14.5l-52 -225q-4 -20 -4 -29q0 -17 11 -24.5t35 -11.5 l32 -5l-7 -29q-54 3 -140 3l-132 -3l7 29l21 5q41 10 62.5 32.5t31.5 65.5l107 469q4 20 4 29q0 17 -11 24.5t-35 11.5l-32 5l7 29q52 -3 140 -3z" />
<glyph unicode="Q" horiz-adv-x="763" d="M787 -85q28 0 46.5 -16.5t18.5 -46.5q0 -40 -35 -70t-83.5 -43.5t-85 -20t-55.5 -6.5q-61 0 -142 32t-146.5 70.5t-138.5 70.5t-120 32q-36 0 -64 -15t-28 -43t22 -28q6 0 10 2q2 -6 2 -11q0 -27 -34 -27q-18 0 -29 14.5t-11 33.5q0 32 25.5 57.5t68.5 44t99 35t117.5 35 t123.5 40.5t118 55t99 74.5t68.5 103.5t25.5 137q0 117 -60 183.5t-151 66.5q-114 0 -202 -100.5t-88 -225.5q0 -30 5 -57t17 -52.5t36 -40.5t57 -15q56 0 88.5 38t32.5 85q0 54 -32 82q18 18 46 18q29 0 47.5 -19.5t18.5 -50.5q0 -59 -40.5 -105t-96 -67.5t-110.5 -21.5 q-86 0 -127.5 48t-41.5 128t38.5 154.5t100.5 126.5t141 83t158 31q117 0 190 -71.5t73 -197.5q0 -56 -11 -104.5t-27 -86t-45.5 -70.5t-56.5 -56t-70 -44t-75 -34t-83.5 -27.5t-84 -22t-86.5 -18.5q-100 -22 -150 -37l2 -3q37 10 74 10q53 0 132.5 -30.5t147 -67.5 t137 -67.5t106.5 -30.5q42 0 70 19.5t28 60.5q0 37 -22 65q18 14 42 14z" />
<glyph unicode="R" horiz-adv-x="677" d="M310 697q24 0 58 1.5t61 1.5q86 0 143.5 -46t57.5 -120q0 -51 -19.5 -90.5t-52 -62.5t-62.5 -36t-62 -19q26 -23 45 -76l43 -124q17 -49 49.5 -74.5t69.5 -25.5q17 0 39 5l-5 -21q-31 -18 -90 -18q-68 0 -107 27.5t-54 87.5l-34 135q-10 39 -34.5 58.5t-55.5 19.5 q-10 0 -19.5 -2t-14.5 -4l-4 -1l-49 -214q-4 -20 -4 -29q0 -17 11 -24.5t35 -11.5l32 -5l-7 -29q-54 3 -140 3l-132 -3l7 29l21 5q41 10 62.5 32.5t31.5 65.5l107 469q4 20 4 29q0 17 -11 24.5t-35 11.5l-32 5l7 29q52 -3 140 -3zM394 666q-30 0 -53 -7l-73 -319 q31 20 70 20q16 0 32.5 -4t25.5 -8l8 -4q55 21 90 69.5t35 120.5q0 56 -38.5 94t-96.5 38z" />
<glyph unicode="S" horiz-adv-x="487" d="M542 693l-47 -156h-29q4 20 4 35q0 45 -33.5 74t-93.5 29q-52 0 -83.5 -30.5t-31.5 -75.5q0 -40 22 -74.5t53.5 -62t63 -57.5t53.5 -76t22 -104q0 -86 -63.5 -148.5t-178.5 -62.5q-37 0 -92.5 15t-90.5 15l30 163h25v-16q0 -137 138 -137q68 0 110.5 35.5t42.5 90.5 q0 43 -22 81t-53.5 68t-63 61t-53.5 75t-22 95q0 78 57.5 131t153.5 53q37 0 92.5 -10.5t89.5 -10.5z" />
<glyph unicode="T" horiz-adv-x="681" d="M625 661l-136 -2l-130 -560q-4 -20 -4 -29q0 -17 11 -24.5t35 -11.5l32 -5l-7 -29q-54 3 -140 3l-132 -3l7 29l21 5q41 10 62.5 32.5t31.5 65.5l122 526h-150q-37 0 -57 -12.5t-20 -30.5q0 -15 10 -30q-10 -18 -41 -18q-46 0 -46 42q0 28 24 46t55 24t77 9l368 21 q73 4 73 40q0 24 -12 36q14 8 36 8q21 0 39 -12.5t18 -35.5q0 -82 -147 -84z" />
<glyph unicode="U" horiz-adv-x="795" d="M300 568l-61 -261q-14 -62 -14 -105q0 -168 171 -168q100 0 151 60.5t80 191.5l71 315q4 20 4 29q0 17 -11 24.5t-35 11.5l-32 5l7 29q58 -4 122 -4l115 4l-7 -29l-21 -5q-41 -10 -62.5 -32.5t-31.5 -65.5l-64 -286q-16 -72 -36.5 -122t-53.5 -92t-85 -62.5t-123 -20.5 q-115 0 -182.5 52t-67.5 156q0 42 12 93l71 315q4 20 4 29q0 17 -11 24.5t-35 11.5l-32 5l7 29q52 -3 140 -3l132 3l-7 -29l-21 -5q-41 -10 -62.5 -32.5t-31.5 -65.5z" />
<glyph unicode="V" horiz-adv-x="738" d="M822 671l-21 -5q-32 -8 -57 -30t-52 -68l-337 -580l-31 -4l-111 596q-9 47 -22.5 64t-46.5 22l-32 5l7 29q53 -4 121 -4l158 4l-7 -29l-21 -5q-34 -8 -47.5 -23.5t-13.5 -43.5q0 -11 2 -25l74 -454l256 460q17 31 17 50q0 17 -10 24.5t-34 11.5l-32 5l7 29q62 -3 130 -3 l110 3z" />
<glyph unicode="W" horiz-adv-x="1089" d="M1070 697l110 2l-7 -28l-21 -5q-32 -7 -55 -28.5t-52 -69.5l-359 -580l-31 -4l-33 559l-300 -555l-31 -4l-77 599q-5 39 -21 58.5t-49 24.5l-32 5l7 29q98 -4 128 -4l151 4l-7 -29l-21 -5q-28 -6 -47.5 -23t-19.5 -44q0 -7 2 -25l50 -452l230 458q16 32 16 50t-11 25 t-33 11l-32 5l7 29q50 -3 154 -3l37 -578l264 449q22 39 22 62q0 17 -10 24.5t-34 11.5l-32 5l7 29q67 -3 130 -3z" />
<glyph unicode="X" horiz-adv-x="736" d="M159 666l-24 5l7 29q55 -3 137 -3l137 3l-7 -29l-19 -5q-56 -14 -56 -45q0 -10 14 -44l80 -182l161 180q39 44 39 64q0 21 -40 27l-32 5l7 29q44 -3 139 -3l112 3l-10 -29l-21 -5q-33 -7 -62.5 -28.5t-73.5 -69.5l-199 -214l124 -270q11 -23 29 -33.5t49 -16.5l24 -5 l-7 -29q-55 3 -137 3l-137 -3l7 29l19 5q56 14 56 45q0 10 -14 44l-76 172l-152 -170q-39 -44 -39 -64q0 -21 40 -27l32 -5l-7 -29q-44 3 -139 3l-112 -3l10 29l21 5q33 7 62.5 28.5t73.5 69.5l190 204l-128 280q-11 23 -29 33.5t-49 16.5z" />
<glyph unicode="Y" horiz-adv-x="695" d="M412 300l-46 -201q-4 -20 -4 -29q0 -17 11 -24.5t35 -11.5l32 -5l-7 -29q-54 3 -140 3l-132 -3l7 29l21 5q41 10 62.5 32.5t31.5 65.5l41 178l-25 139q-9 47 -15 75.5t-16 57.5t-21 44.5t-27 25t-38 9.5q-30 0 -57 -24l-5 23q42 54 104 54q41 0 70 -19t46 -56.5 t25.5 -72.5t16.5 -88l19 -131q5 14 20.5 47t48.5 91t69.5 106.5t85 85.5t92.5 37q31 0 49.5 -15.5t18.5 -44.5q0 -21 -17 -37t-35 -16q-6 0 -9 1q1 4 1 9q0 13 -9.5 22.5t-29.5 9.5q-45 0 -108.5 -74t-107.5 -151t-58 -118z" />
<glyph unicode="Z" horiz-adv-x="649" d="M692 700l8 -22l-575 -637l194 3q49 1 88.5 11t64 21.5t50.5 39t39 45t39 57.5l6 9l24 -6l-83 -221h-548l-4 14l578 644l-218 -6q-85 -2 -127.5 -33.5t-69.5 -88.5l-24 3l58 183h28q2 -16 45 -16h427z" />
<glyph unicode="[" horiz-adv-x="374" d="M488 783q15 -6 15 -25q0 -31 -35 -44.5t-75 -13.5l-76 6l-186 -807q44 6 78 6q33 0 59.5 -10.5t26.5 -34.5q0 -13 -9 -24.5t-20 -13.5q-51 51 -223 51l198 858q171 0 247 52z" />
<glyph unicode="\" horiz-adv-x="411" d="M302 307l46 -475h-66q-18 329 -31 475l-46 475h66q18 -329 31 -475z" />
<glyph unicode="]" horiz-adv-x="374" d="M248 783q25 -25 86 -38.5t137 -13.5l-198 -858q-172 0 -247 -51q-15 5 -15 25q0 30 35 44t75 14l76 -6l186 807q-45 -6 -79 -6q-33 0 -59.5 10.5t-26.5 34.5q0 13 9 23.5t21 14.5z" />
<glyph unicode="^" horiz-adv-x="556" d="M305 798l184 -364h-68l-143 291l-143 -291h-68l185 364h53z" />
<glyph unicode="_" horiz-adv-x="566" d="M514 -142l-15 -58h-504l15 58h504z" />
<glyph unicode="`" horiz-adv-x="349" d="M139 694q0 15 11 28t31 13q75 -113 168 -207l-5 -13q-59 15 -132 74t-73 105z" />
<glyph unicode="a" horiz-adv-x="478" d="M374 50q38 0 93 90l15 -10q-23 -54 -62.5 -100.5t-86.5 -46.5q-52 0 -52 57q0 37 30 115h-4q-16 -33 -28 -54t-36 -53t-54.5 -48.5t-66.5 -16.5q-44 0 -66 31.5t-22 82.5q0 80 40 159.5t107 131t139 51.5q39 0 77 -31q6 19 21 38t37 19q21 0 38 -15q-28 -32 -83 -172 t-55 -206q0 -22 19 -22zM159 42q39 0 84.5 58.5t76.5 128t47 127.5q-19 45 -67 45q-75 0 -131.5 -90.5t-56.5 -193.5q0 -40 10.5 -57.5t36.5 -17.5z" />
<glyph unicode="b" horiz-adv-x="472" d="M343 409q-40 0 -94 -57t-93 -136t-39 -137t52 -58q58 0 111.5 60t82 135t28.5 130q0 63 -48 63zM345 750l-175 -462h4q37 69 89.5 123.5t114.5 54.5q46 0 70.5 -26t24.5 -75q0 -81 -44 -169.5t-121 -150t-160 -61.5q-103 0 -103 117q0 56 27 126l146 394q7 21 7 33 q0 28 -64 28v22q97 4 184 46z" />
<glyph unicode="c" horiz-adv-x="395" d="M357 349q6 17 6 28q0 41 -51 41q-54 0 -98.5 -51.5t-65.5 -119.5t-21 -131q0 -36 17 -55.5t47 -19.5q82 0 151 96l15 -11q-17 -34 -38.5 -62.5t-61.5 -54t-86 -25.5q-126 0 -126 121q0 82 41.5 165t116.5 139.5t160 56.5q30 0 51.5 -13.5t21.5 -41.5t-19.5 -46t-45.5 -18 q-8 0 -14 2z" />
<glyph unicode="d" horiz-adv-x="526" d="M164 43q42 0 93.5 51t88 131t36.5 152q0 48 -40 48q-59 0 -114 -58t-85 -132t-30 -130q0 -62 51 -62zM614 750l-207 -586q-25 -70 -25 -93q0 -21 20 -21q38 0 106 96l15 -11q-31 -59 -74.5 -105.5t-92.5 -46.5q-25 0 -37 12.5t-12 45.5q0 29 30 114h-4q-13 -26 -30 -51.5 t-43.5 -54.5t-60.5 -47t-71 -18q-93 0 -93 102q0 82 43.5 169.5t120 149t159.5 61.5q45 0 67 -26l62 181q7 21 7 33q0 28 -64 28v22q97 4 184 46z" />
<glyph unicode="e" horiz-adv-x="404" d="M346 390q0 36 -34 36q-30 0 -57.5 -20t-48 -51.5t-34 -59t-23.5 -54.5q197 58 197 149zM423 397q0 -57 -69.5 -101.5t-212.5 -81.5q-15 -51 -15 -98q0 -32 16.5 -53.5t52.5 -21.5q42 0 84.5 31t65.5 65l15 -11q-9 -17 -21.5 -34t-38 -45t-60.5 -45.5t-74 -17.5 q-59 0 -90.5 31.5t-31.5 89.5q0 43 13 92t40 97t62.5 86.5t84 62t102.5 23.5q39 0 58 -20.5t19 -48.5z" />
<glyph unicode="f" horiz-adv-x="306" d="M620 713q0 -24 -19 -41t-44 -17q-18 0 -34 8q9 16 9 31q0 41 -74 41q-60 0 -105.5 -56t-81.5 -171l-19 -62h136l-21 -50h-131l-83 -248q-149 -451 -344 -451q-42 0 -61.5 17.5t-19.5 42.5q0 27 17.5 40.5t40.5 13.5l13 -1q-6 -14 -6 -25q0 -40 48 -40q59 0 103.5 62.5 t82.5 189.5l123 408h-76l7 24l83 17l9 27q44 132 133 219t200 87q56 0 85 -18.5t29 -47.5z" />
<glyph unicode="g" horiz-adv-x="438" d="M267 437q-36 0 -61 -35.5t-34.5 -76t-9.5 -77.5q0 -89 53 -89q36 0 61.5 35t35.5 76t10 78q0 89 -55 89zM156 -226q72 0 106.5 28.5t34.5 65.5q0 32 -21.5 49t-75.5 33q-33 10 -49 15.5t-38.5 17.5t-32.5 28t-10 38q0 37 27.5 59t63.5 27q-71 21 -71 106t59.5 155 t139.5 70q44 0 75 -28q28 -6 51 -6q41 0 70 20q17 -13 17 -32q0 -17 -11.5 -28.5t-33.5 -11.5q-19 0 -44.5 13.5t-28.5 14.5q10 -22 10 -59q0 -81 -53.5 -146t-128.5 -72q-74 -13 -74 -53q0 -14 14.5 -25t31.5 -17t53 -17q72 -21 102 -52t30 -79q0 -66 -63 -108.5 t-163 -42.5q-84 0 -134.5 35.5t-50.5 93.5q0 38 21.5 61t53.5 23q17 0 27.5 -8t12.5 -19q-47 -8 -47 -57q0 -38 35 -65t95 -27z" />
<glyph unicode="h" horiz-adv-x="508" d="M375 750q-63 -165 -119.5 -313.5t-76.5 -201t-21 -55.5h4q59 118 134 202t145 84q53 0 53 -50q0 -34 -19 -88l-60 -170q-27 -76 -27 -94q0 -14 15 -14q29 0 86 82l15 -11q-30 -56 -71 -96.5t-87 -40.5q-38 0 -38 38t34 136l60 171q12 34 12 50q0 20 -15 20 q-47 0 -114.5 -80t-114.5 -177.5t-47 -149.5q-12 -8 -36 -8q-17 0 -27.5 9.5t-10.5 25.5q0 13 5 29l194 573q7 21 7 33q0 28 -64 28v22q97 4 184 46z" />
<glyph unicode="i" horiz-adv-x="279" d="M274 465l-118 -307q-27 -72 -27 -94q0 -14 13 -14q17 0 58 35.5t59 61.5l15 -10q-28 -52 -84 -102.5t-103 -50.5q-38 0 -38 38q0 42 25 110l73 205q7 19 7 32q0 16 -15 22t-49 6v22q97 4 184 46zM281 610q-19 0 -30.5 12t-11.5 31q0 23 16.5 42t40.5 19q19 0 30.5 -12 t11.5 -31q0 -23 -16.5 -42t-40.5 -19z" />
<glyph unicode="j" horiz-adv-x="272" d="M99 397v22q97 4 184 46l-134 -416q-22 -67 -48.5 -111.5t-71.5 -77.5q-30 -21 -94 -36t-96 -35l-6 19q25 22 80.5 44.5t75.5 41.5q43 40 70 127l102 315q6 24 6 33q0 28 -68 28zM281 610q-19 0 -30.5 12t-11.5 31q0 23 16.5 42t40.5 19q19 0 30.5 -12t11.5 -31 q0 -23 -16.5 -42t-40.5 -19z" />
<glyph unicode="k" horiz-adv-x="533" d="M371 750q-216 -564 -218 -570h4q60 126 133 206t152 80q49 0 70.5 -25t21.5 -54q0 -125 -219 -178l14 -51q19 -71 47 -101t73 -30q29 0 58 12l7 -10q-4 -5 -11.5 -12.5t-33 -20.5t-53.5 -13q-65 0 -100 37t-52 121l-15 72q42 13 86 33t82.5 53t38.5 65q0 35 -42 35 q-59 0 -131 -80.5t-118.5 -177t-46.5 -149.5q-12 -8 -36 -8q-17 0 -27.5 9.5t-10.5 25.5q0 12 5 29l195 573q7 21 7 33q0 28 -64 28v22q97 4 184 46z" />
<glyph unicode="l" horiz-adv-x="306" d="M372 750l-202 -585q-24 -69 -24 -90t20 -21q42 0 106 93l15 -11q-81 -152 -167 -152q-58 0 -58 66q0 28 17 81l166 490q7 21 7 33q0 28 -64 28v22q97 4 184 46z" />
<glyph unicode="m" horiz-adv-x="757" d="M466 319q-15 -39 -29 -71t-21.5 -48.5t-8.5 -19.5h4q64 119 137.5 202.5t141.5 83.5q53 0 53 -50q0 -34 -19 -88l-60 -170q-27 -76 -27 -94q0 -14 15 -14q29 0 86 82l15 -11q-30 -56 -70.5 -96.5t-87.5 -40.5q-38 0 -38 38t34 136l60 171q12 34 12 50q0 20 -15 20 q-47 0 -114.5 -80t-114.5 -177.5t-47 -149.5q-12 -8 -36 -8q-17 0 -27.5 9.5t-10.5 25.5q0 12 5 29q31 110 94 281q12 34 12 50q0 20 -15 20q-47 0 -114.5 -80t-114.5 -177.5t-47 -149.5q-12 -8 -36 -8q-17 0 -27.5 9.5t-10.5 25.5q0 12 5 29l91 289q7 21 7 32q0 16 -15 22 t-49 6v22q97 4 184 46q-103 -256 -114 -285h4q64 119 137.5 202.5t141.5 83.5q53 0 53 -50q0 -36 -23 -97z" />
<glyph unicode="n" horiz-adv-x="529" d="M398 50q29 0 86 82l15 -11q-30 -56 -70.5 -96.5t-87.5 -40.5q-38 0 -38 38t34 136l60 171q12 34 12 50q0 20 -15 20q-47 0 -114.5 -80t-114.5 -177.5t-47 -149.5q-12 -8 -36 -8q-17 0 -27.5 9.5t-10.5 25.5q0 12 5 29l91 289q7 23 7 32q0 16 -15 22t-49 6v22q97 4 184 46 q-103 -256 -114 -285h4q64 119 137.5 202.5t141.5 83.5q53 0 53 -50q0 -34 -19 -88l-60 -170q-27 -76 -27 -94q0 -14 15 -14z" />
<glyph unicode="o" horiz-adv-x="435" d="M161 -16q-53 0 -84.5 37t-31.5 102q0 55 21.5 116t57 111t87.5 83t107 33q54 0 85.5 -37t31.5 -103q0 -75 -35.5 -153.5t-100 -133.5t-138.5 -55zM190 21q43 0 82 50.5t60 118.5t21 126q0 112 -63 112q-43 0 -82 -50.5t-60 -118t-21 -125.5q0 -113 63 -113z" />
<glyph unicode="p" horiz-adv-x="512" d="M353 401q-16 0 -34.5 -5t-29.5 -10l-11 -5l-105 -311q1 -5 3.5 -13.5t18.5 -22t42 -13.5q72 0 133.5 97.5t61.5 186.5q0 96 -79 96zM326 570q16 0 34 -7q-14 -16 -31 -51t-27 -62l-9 -28q34 17 89 17q62 0 96.5 -34.5t34.5 -89.5q0 -69 -40 -145.5t-110.5 -131 t-145.5 -54.5q-53 0 -71 24l-68 -183q-15 -41 -15 -68q0 -18 11 -28t39 -14l48 -8v-25h-293v25l23 7q44 13 69.5 41t44.5 81l187 518q-26 -12 -54.5 -28t-43.5 -26l-16 -11l-9 24q56 43 136 82l32 98q26 77 89 77z" />
<glyph unicode="q" horiz-adv-x="496" d="M173 43q42 0 93.5 51t88 131t36.5 152q0 48 -40 48q-59 0 -114 -58t-85 -132t-30 -130q0 -62 51 -62zM441 432q5 23 25.5 39t44.5 16q17 0 28 -8q-17 -21 -29.5 -49.5t-38.5 -102.5l-179 -502q-15 -41 -15 -68q0 -18 11 -28t39 -14l48 -8v-25h-293v25l23 7q42 12 67 40 t47 82l127 319h-4q-13 -26 -30 -51.5t-43.5 -54.5t-60.5 -47t-71 -18q-93 0 -93 102q0 82 43.5 169.5t120 149t159.5 61.5q50 0 74 -34z" />
<glyph unicode="r" horiz-adv-x="412" d="M56 48l81 287q7 25 7 34q0 16 -15 22t-49 6v22q97 4 184 46q-103 -256 -114 -285h4q2 6 7 16t19.5 40t30 57t38.5 59.5t45.5 56.5t49.5 40t52 16q30 0 47 -16.5t17 -42.5q0 -28 -19.5 -43.5t-42.5 -15.5l-7 1q2 6 2 13q0 11 -8 21t-28 10q-45 0 -101.5 -79.5 t-93.5 -174.5t-37 -146q-12 -7 -36 -7q-17 0 -26.5 11.5t-9.5 28.5q0 13 3 23z" />
<glyph unicode="s" horiz-adv-x="335" d="M368 409q0 -23 -16.5 -39t-43.5 -16q-8 0 -16 2q5 10 5 20q0 43 -52 43q-36 0 -55.5 -21.5t-19.5 -48.5q0 -30 24.5 -63t49 -71t24.5 -80q0 -67 -58 -109t-119 -42q-87 0 -87 53q0 25 18 40.5t42 15.5l10 -1q-6 -10 -6 -22q0 -15 15 -25t35 -10q82 0 82 67q0 34 -21 68 t-42 71.5t-21 79.5q0 60 52.5 102.5t109.5 42.5q42 0 66 -16t24 -41z" />
<glyph unicode="t" horiz-adv-x="329" d="M310 573q-10 -10 -23.5 -40t-21.5 -55l-8 -25h127l-18 -44h-124l-67 -182q-44 -118 -44 -148q0 -19 17 -19q24 0 57.5 34t63.5 78l17 -10q-31 -60 -84 -119t-101 -59q-52 0 -52 62q0 39 16 84l98 281l-54 2l3 29l67 14l26 71q20 57 71 57q23 0 34 -11z" />
<glyph unicode="u" horiz-adv-x="496" d="M145 400q-29 0 -86 -82l-15 10q74 138 158 138q38 0 38 -39q0 -37 -34 -135l-60 -172q-12 -33 -12 -50q0 -19 15 -19q47 0 114.5 80t114.5 177.5t47 149.5q10 8 34 8q38 0 38 -36q0 -11 -5 -28l-94 -289q-7 -23 -7 -32q0 -28 69 -28v-22q-97 -4 -184 -46q99 243 114 285 h-4q-64 -119 -137.5 -202.5t-141.5 -83.5q-53 0 -53 50q0 35 19 87l60 171q27 76 27 94q0 14 -15 14z" />
<glyph unicode="v" horiz-adv-x="448" d="M168 466q42 0 42 -63q0 -34 -6.5 -118.5t-13.5 -152.5l-6 -67q37 0 85 45t82 111t34 121q0 58 -44 65q4 27 21.5 42.5t40.5 15.5q29 0 46.5 -19.5t17.5 -49.5q0 -95 -98.5 -225t-246.5 -186l-11 10q18 289 21 385q0 20 -13 20q-35 0 -68 -95l-16 2q4 26 17.5 59.5 t45 66.5t70.5 33z" />
<glyph unicode="w" horiz-adv-x="689" d="M414 466q42 0 42 -63q0 -34 -6.5 -118.5t-13.5 -152.5l-6 -67q37 0 85 45t82 111t34 121q0 58 -44 65q4 27 21.5 42.5t40.5 15.5q29 0 46.5 -19.5t17.5 -49.5q0 -95 -98.5 -225t-246.5 -186l-11 10q5 108 11 203q-40 -73 -104 -129.5t-142 -83.5l-11 10q18 289 21 385 q0 20 -13 20q-35 0 -68 -95l-16 2q4 26 17.5 59.5t45 66.5t70.5 33q42 0 42 -63q0 -34 -6.5 -118.5t-13.5 -152.5l-6 -67q65 2 129.5 104.5t64.5 210.5q0 20 -13 20q-35 0 -68 -95l-16 2q4 26 17.5 59.5t45 66.5t70.5 33z" />
<glyph unicode="x" horiz-adv-x="548" d="M331 258q21 -205 60 -205q38 0 91 113l19 -5q-57 -177 -130 -177q-35 0 -59.5 48t-31.5 96l-7 49q-5 -8 -14 -21t-35.5 -46t-52 -58.5t-59 -46.5t-60.5 -21q-53 0 -53 46q0 22 17 38t29 16q0 -26 28 -26q20 0 47.5 16.5t51.5 40t45.5 47.5t34.5 40l12 17q-11 180 -50 180 q-17 0 -40 -29t-37 -58l-14 -28l-15 12q2 7 6.5 18.5t18.5 40.5t30 51.5t40.5 41t49.5 18.5q24 0 41.5 -41.5t23.5 -82.5l5 -42q3 7 9.5 18t27 39.5t42 50t52.5 39.5t61 18q28 0 44.5 -13.5t16.5 -36.5q0 -27 -23 -43t-44 -16q2 8 2 13q0 26 -31 26q-29 0 -66.5 -34.5 t-59.5 -68.5z" />
<glyph unicode="y" horiz-adv-x="488" d="M503 396q0 -67 -59.5 -176t-145 -211.5t-191 -177t-187.5 -74.5q-30 0 -47.5 14.5t-17.5 38.5q0 43 45 55q10 -32 53 -32q71 0 137 39t85 78q6 13 6 86q0 77 -24 341q-2 23 -12 23q-16 0 -34.5 -25.5t-25 -42t-10.5 -27.5l-16 2q4 26 17.5 59.5t45 66.5t70.5 33 q24 0 32 -16t10 -46q11 -194 11 -401q67 64 121.5 166t54.5 173q0 58 -44 65q4 27 21.5 42.5t40.5 15.5q29 0 46.5 -19.5t17.5 -49.5z" />
<glyph unicode="z" horiz-adv-x="503" d="M246 460q44 0 99.5 -34t78.5 -34q29 0 49.5 28t23.5 46q25 0 25 -20q0 -16 -11 -34.5t-33.5 -39.5t-39 -34.5t-46 -35.5t-35.5 -27q-42 -33 -126 -87t-115 -80l3 -3q12 7 30 7q45 0 116.5 -38t94.5 -38q34 0 55 14t21 41q0 18 -11.5 30t-32.5 12q-10 0 -16 -3q0 27 19 43 t39 16q25 0 39.5 -13.5t14.5 -38.5q0 -52 -51 -104.5t-117 -52.5q-36 0 -68.5 13.5t-52 30t-43 30t-44.5 13.5q-16 0 -27 -11.5t-11 -25.5q0 -18 12 -35q-13 -11 -30 -11q-15 0 -24.5 10.5t-9.5 27.5q0 21 10.5 40.5t33.5 40.5t43 35.5t56 39.5q14 9 53.5 35.5t66 45 t64 46.5t65.5 53l-3 3q-21 -8 -44 -8q-31 0 -90.5 24.5t-85.5 24.5q-19 0 -33.5 -10.5t-14.5 -30.5q0 -42 54 -42q-4 -23 -20 -36.5t-38 -13.5q-24 0 -37 15.5t-13 36.5q0 56 53 97.5t104 41.5z" />
<glyph unicode="{" horiz-adv-x="322" d="M150 302q32 -5 56.5 -29.5t24.5 -66.5q0 -22 -38 -132.5t-38 -160.5q0 -27 12.5 -41.5t31.5 -14.5q32 0 47 22q16 -6 16 -20q0 -15 -17.5 -26.5t-51.5 -11.5q-44 0 -80 29t-36 85q0 53 45 147t45 140q0 67 -66 67h-21l6 26h21q83 0 106 97q8 37 11.5 111.5t12.5 114.5 q16 72 70.5 108.5t107.5 36.5t53 -30q0 -22 -27 -28q-5 22 -36 22q-25 0 -47 -20.5t-30 -58.5q-10 -43 -22.5 -120.5t-22.5 -123.5q-13 -55 -52 -85.5t-81 -36.5z" />
<glyph unicode="|" horiz-adv-x="221" d="M143 266l115 516h65q-101 -419 -123 -516l-115 -516h-65q100 418 123 516z" />
<glyph unicode="}" horiz-adv-x="322" d="M312 302q-32 5 -56.5 29.5t-24.5 66.5q0 22 38 132.5t38 160.5q0 27 -12.5 41.5t-31.5 14.5q-32 0 -47 -22q-16 6 -16 20q0 15 17.5 26.5t51.5 11.5q44 0 80 -29t36 -85q0 -53 -44.5 -147t-44.5 -140q0 -67 65 -67h21l-6 -26h-21q-83 0 -106 -97q-8 -37 -11.5 -111.5 t-12.5 -114.5q-16 -72 -70.5 -108.5t-107.5 -36.5t-53 30q0 22 27 28q5 -22 36 -22q25 0 47 20.5t30 58.5q10 43 22.5 120.5t22.5 123.5q13 55 52 85.5t81 36.5z" />
<glyph unicode="~" horiz-adv-x="555" d="M257 326q45 0 100 -34t91 -34q31 0 61 16.5t49 46.5l20 -17q-21 -49 -63.5 -79.5t-102.5 -30.5q-42 0 -95 32.5t-89 32.5q-72 0 -111 -60l-20 17q21 47 63.5 78.5t96.5 31.5z" />
<glyph unicode="&#xa1;" horiz-adv-x="286" d="M65 -228q-22 0 -35.5 14t-13.5 36q0 7 2 17q13 64 65.5 206t66.5 207l7 47h34q-6 -18 -12 -47q-14 -62 -21 -208t-25 -211q-17 -61 -68 -61zM218 502q22 0 36 -14t14 -36q0 -27 -19.5 -48.5t-47.5 -21.5q-22 0 -35.5 14t-13.5 36q0 27 19 48.5t47 21.5z" />
<glyph unicode="&#xa2;" horiz-adv-x="394" d="M356 349q6 17 6 28q0 41 -51 41q-54 0 -98.5 -51.5t-65.5 -119.5t-21 -131q0 -36 17 -55.5t47 -19.5q82 0 151 96l15 -11q-65 -130 -170 -141l-50 -149h-37q27 69 55 149q-110 7 -110 120q0 119 83.5 230.5t200.5 127.5l55 164h37q-31 -78 -58 -161q30 0 51.5 -13.5 t21.5 -41.5t-19.5 -46t-45.5 -18q-8 0 -14 2z" />
<glyph unicode="&#xa3;" horiz-adv-x="712" d="M158 257v18q28 1 58 7.5t46 13.5l15 6l15 113q16 118 92 182t173 64q55 0 96.5 -22.5t41.5 -57.5q0 -24 -17.5 -39t-43.5 -15q-30 0 -56 19q13 20 13 41q0 35 -50 35q-102 0 -137 -171l-30 -147h194v-45h-203q-29 -154 -148 -238q58 -23 122.5 -64.5t111 -66.5t87.5 -25 q25 0 38.5 14t13.5 40q0 35 -36 65q18 21 44 21q25 0 40.5 -17.5t15.5 -38.5q0 -53 -45 -93t-120 -40q-77 0 -143 42t-170 145q-56 -20 -82 -20q-54 0 -54 31q0 16 16.5 26.5t43.5 10.5q35 0 83 -18q30 22 55.5 80t33.5 144h-114z" />
<glyph unicode="&#xa5;" horiz-adv-x="628" d="M442 293l170 4l-10 -42q-82 1 -182 1l-14 -62l183 3l-10 -42q-82 1 -182 1l-15 -65q-7 -30 2.5 -43t36.5 -17l30 -4l-6 -27q-57 3 -129 3l-122 -3l6 27l25 4q62 11 80 90l8 35q-65 -1 -170 -1l10 42q4 0 60 -1.5t109 -1.5l14 62q-65 -1 -170 -1l10 42q8 0 58.5 -1.5 t97.5 -2.5l-86 277q-6 19 -17 28t-34 13l-29 4l6 27q64 -3 116 -3l118 3l-6 -27l-17 -4q-37 -8 -37 -43q0 -11 3 -23l68 -235l172 235q22 27 22 42q0 20 -26 24l-27 4l6 27q57 -3 101 -3l86 3l-6 -27l-19 -4q-29 -7 -47 -18.5t-36 -34.5z" />
<glyph unicode="&#xa6;" horiz-adv-x="220" d="M188 355h-55l91 428h62q-63 -272 -98 -428zM94 179h54l-90 -428h-59q60 271 95 428z" />
<glyph unicode="&#xa7;" horiz-adv-x="565" d="M170 -132q49 0 86.5 36.5t37.5 87.5q0 37 -25 87t-54.5 93.5t-54.5 103.5t-25 115q0 134 109 228.5t250 94.5q51 0 76 -18.5t25 -45.5t-20 -47.5t-48 -20.5q-24 0 -36 10q13 17 13 34q0 15 -12 25.5t-37 10.5q-49 0 -87 -36t-38 -87q0 -37 25 -86.5t54.5 -92t54.5 -103 t25 -116.5q0 -87 -51 -162.5t-134 -119t-174 -43.5q-49 0 -74.5 21t-25.5 49q0 26 19.5 44t47.5 18q24 0 36 -10q-13 -17 -13 -34q0 -36 50 -36zM350 644q-62 -23 -102.5 -83.5t-40.5 -130.5q0 -50 24 -105.5t52.5 -96.5t52.5 -93.5t24 -97.5q0 -90 -86 -151 q65 24 104.5 86.5t39.5 135.5q0 53 -24 108.5t-52.5 94.5t-52.5 89.5t-24 93.5q0 91 85 150z" />
<glyph unicode="&#xa8;" horiz-adv-x="279" d="M205 556q-20 0 -32 12.5t-12 31.5q0 23 17 42t42 19q19 0 31 -12.5t12 -31.5q0 -23 -17 -42t-41 -19zM391 556q-20 0 -32 12.5t-12 31.5q0 23 17 42t42 19q19 0 31 -12.5t12 -31.5q0 -23 -17.5 -42t-40.5 -19z" />
<glyph unicode="&#xa9;" horiz-adv-x="853" d="M149 349q0 -131 89 -224t216 -93q126 0 215.5 93t89.5 224t-89.5 224t-215.5 93q-127 0 -216 -93t-89 -224zM90 349q0 151 106.5 257.5t257.5 106.5t257.5 -106.5t106.5 -257.5t-106.5 -257.5t-257.5 -106.5t-257.5 106.5t-106.5 257.5zM603 530v-96h-19q-5 39 -39.5 65 t-88.5 26q-60 0 -97.5 -47t-37.5 -121q0 -90 43 -135t114 -45q47 0 77 29.5t40 78.5l18 -1l-13 -120q-18 0 -62 -10.5t-77 -10.5q-92 0 -151 48.5t-59 147.5q0 89 58 152.5t158 63.5q27 0 74.5 -12.5t61.5 -12.5z" />
<glyph unicode="&#xaa;" horiz-adv-x="333" d="M383 396q27 0 66 64l15 -9q-16 -38 -46 -72.5t-64 -34.5q-39 0 -39 43q0 19 9 48h-5q-49 -91 -113 -91q-33 0 -50 23t-17 61q0 86 64 159t143 73q32 0 53 -18q16 38 43 38q17 0 29 -14q-20 -24 -58.5 -116.5t-38.5 -138.5q0 -15 9 -15zM231 390q39 0 82 70t64 139 q-15 31 -46 31q-52 0 -91.5 -60t-39.5 -129q0 -27 7 -39t24 -12zM80 288q83 -3 161 -3l165 4l-11 -51q-78 2 -165 2l-161 -3z" />
<glyph unicode="&#xab;" horiz-adv-x="439" d="M64 237l208 220l28 -51l-185 -167q42 -34 78.5 -80t36.5 -88q0 -26 -18 -43t-35 -17q-17 47 -45 103.5t-48 89.5zM259 237l186 197l26 -46l-166 -150q37 -29 70 -70.5t33 -79.5q0 -23 -15.5 -38.5t-31.5 -15.5q-8 25 -33.5 75.5t-47.5 88.5z" />
<glyph unicode="&#xac;" horiz-adv-x="456" d="M457 347v-271h-64v212h-393v59h457z" />
<glyph unicode="&#xae;" horiz-adv-x="390" d="M118 622q0 -59 40 -101t99 -42t98.5 42t39.5 101q0 60 -39.5 102t-98.5 42t-99 -42t-40 -102zM89 622q0 70 48.5 119t119.5 49q69 0 118.5 -49t49.5 -119q0 -69 -49.5 -118.5t-118.5 -49.5q-72 0 -120 49t-48 119zM279 622q6 -4 12 -13l30 -49q9 -16 30 -16l9 1v-9 q-9 -5 -21 -5q-32 0 -51 29l-29 44q-5 11 -16 11l-8 -1v-54q0 -14 14 -16l10 -1v-10q-22 1 -39 1l-39 -1v10l8 1q15 3 15 28v109q0 19 -13 23l-10 2v10q20 -2 36 -2q8 0 20.5 1t18.5 1q27 0 44 -12.5t17 -33.5q0 -17 -9.5 -29t-19.5 -15zM250 704q-3 0 -15 -3v-75q9 6 17 6 l12 -3q17 12 17 41q0 17 -9.5 25.5t-21.5 8.5z" />
<glyph unicode="&#xaf;" horiz-adv-x="321" d="M179 643q71 -3 136 -3l136 3l-12 -55q-63 3 -136 3l-136 -3z" />
<glyph unicode="&#xb0;" horiz-adv-x="327" d="M164 587q0 -34 24 -58.5t58 -24.5t57.5 24.5t23.5 58.5q0 36 -23.5 61t-57.5 25t-58 -25t-24 -61zM120 587q0 54 36.5 90.5t89.5 36.5t89.5 -36.5t36.5 -90.5q0 -53 -36.5 -89t-89.5 -36t-89.5 36t-36.5 89z" />
<glyph unicode="&#xb1;" horiz-adv-x="456" d="M199 456h59v-141h198v-59h-198v-143h-59v143h-199v59h199v141zM0 59h456v-59h-456v59z" />
<glyph unicode="&#xb2;" horiz-adv-x="357" d="M99 322l-2 17l118 93q171 135 171 217q0 27 -15 45t-45 18q-31 0 -50.5 -18t-19.5 -43q0 -8 1 -10q-20 -6 -30 -6q-34 0 -34 29q0 30 43.5 58t109.5 28q55 0 85 -25t30 -66q0 -29 -17.5 -61t-37.5 -55.5t-60 -56t-58.5 -46t-60.5 -42.5l-30 -21l153 5q41 1 67 47l18 -2 l-49 -105h-287z" />
<glyph unicode="&#xb3;" horiz-adv-x="330" d="M316 712q-26 0 -43 -17.5t-17 -39.5q0 -6 2 -14q-10 -6 -31 -6q-36 0 -36 29q0 30 41.5 58t107.5 28q43 0 67.5 -20.5t24.5 -50.5q0 -40 -34.5 -69.5t-87.5 -44.5v-5q41 -6 67 -31t26 -62q0 -68 -57 -111.5t-146 -43.5q-38 0 -62 13t-24 34q0 17 15 29t34 12q13 0 22 -4 q-8 -11 -8 -23q0 -29 37 -29q46 0 79 33.5t33 76.5q0 37 -30.5 57t-81.5 20v25q143 37 143 116q0 17 -10.5 28.5t-30.5 11.5z" />
<glyph unicode="&#xb4;" horiz-adv-x="249" d="M439 694q0 -46 -73 -105t-132 -74l-5 13q93 94 168 207q20 0 31 -13t11 -28z" />
<glyph unicode="&#xb5;" horiz-adv-x="496" d="M145 400q-29 0 -86 -82l-15 10q74 138 158 138q38 0 38 -39q0 -37 -34 -135l-60 -172q-12 -33 -12 -50q0 -19 15 -19q47 0 114.5 80t114.5 177.5t47 149.5q10 8 34 8q38 0 38 -36q0 -11 -5 -28l-94 -289q-7 -23 -7 -32q0 -28 69 -28v-22q-97 -4 -184 -46q99 243 114 285 h-4q-64 -119 -137.5 -202.5t-141.5 -83.5q-27 0 -35 16q-37 -81 -37 -156q0 -29 16 -40q-6 -15 -22 -26.5t-32 -11.5q-34 0 -34 35q0 14 8 40q16 56 55 157t47 123l60 171q27 76 27 94q0 14 -15 14z" />
<glyph unicode="&#xb6;" horiz-adv-x="577" d="M582 697l110 3l-8 -29l-20 -5q-70 -17 -88 -98l-89 -399q-40 -178 -131 -266t-211 -88q-48 0 -81.5 23.5t-33.5 64.5q0 31 19.5 52t51.5 21q28 0 40 -15q-33 -24 -33 -68q0 -37 48 -37q102 0 154 232l44 197q-10 -1 -33 -1q-180 0 -180 142q0 126 78 200t205 74 q42 0 89 -1.5t69 -1.5zM411 118l119 541h-45l-121 -551q-19 -88 -44 -141t-67 -90q117 46 158 241z" />
<glyph unicode="&#xb7;" horiz-adv-x="207" d="M105 231q-22 0 -36 14t-14 36q0 27 19.5 48.5t47.5 21.5q22 0 35.5 -14t13.5 -36q0 -27 -19 -48.5t-47 -21.5z" />
<glyph unicode="&#xb8;" horiz-adv-x="221" d="M207 6h17q-41 -20 -41 -54q0 -16 27 -39.5t27 -45.5q0 -46 -45.5 -74.5t-90.5 -28.5q-29 0 -46.5 12t-17.5 31t14 31t31 12q12 0 17 -5q-17 -11 -17 -28q0 -26 37 -26q21 0 39 14t18 34q0 17 -21.5 41t-21.5 49q0 26 25.5 49.5t48.5 27.5z" />
<glyph unicode="&#xb9;" horiz-adv-x="276" d="M364 750l-85 -367q-4 -15 1.5 -21.5t22.5 -8.5l31 -5l-6 -26q-50 2 -98 2l-103 -2l6 26l29 5q47 8 58 58l65 280q-39 -22 -74 -22q-24 0 -24 18q0 10 10 16q82 13 156 49z" />
<glyph unicode="&#xba;" horiz-adv-x="322" d="M80 288q61 -3 139 -3l155 4l-11 -51q-68 2 -155 2l-139 -3zM234 344q-36 0 -58 25t-22 69q0 79 56 153.5t130 74.5q38 0 60 -25t22 -69q0 -80 -56 -154t-132 -74zM254 373q43 0 76 65.5t33 128.5q0 69 -41 69q-43 0 -75 -65t-32 -127q0 -71 39 -71z" />
<glyph unicode="&#xbb;" horiz-adv-x="439" d="M427 231l-208 -220l-28 51l184 167q-114 94 -114 168q0 27 16.5 43.5t36.5 16.5q13 -45 41 -101.5t50 -90.5zM232 231l-187 -197l-25 46l166 150q-37 29 -70 70.5t-33 79.5q0 24 14 39t33 15q8 -36 33.5 -87t46.5 -83z" />
<glyph unicode="&#xbc;" horiz-adv-x="773" d="M751 788l44 -22q-138 -189 -327 -464.5t-265 -392.5l-45 23q84 117 284 404t309 452zM356 714l-85 -367q-4 -15 1.5 -21.5t22.5 -8.5l31 -5l-6 -26q-50 2 -98 2l-103 -2l6 26l29 5q47 8 58 58l65 280q-39 -22 -74 -22q-24 0 -24 18q0 10 10 16q82 13 156 49zM775 112h-85 l-14 -59q-5 -18 19 -22l24 -5l-6 -26h-161l6 25l24 6q26 6 32 32l11 49h-174l-5 18l138 141q63 65 63 121q0 18 -5 28q13 8 29 8q21 0 34 -13.5t13 -31.5q0 -29 -24.5 -58.5t-80.5 -81.5l-95 -89h117l19 86l73 33l-27 -119h85z" />
<glyph unicode="&#xbd;" horiz-adv-x="805" d="M745 788l44 -22q-138 -189 -327 -464.5t-265 -392.5l-45 23q84 117 284 404t309 452zM473 0l-2 17l118 93q171 135 171 217q0 27 -15 45t-45 18q-31 0 -50.5 -18t-19.5 -43q0 -6 1 -10q-20 -6 -30 -6q-35 0 -35 29q0 30 43.5 58t110.5 28q55 0 85 -25t30 -66 q0 -29 -17.5 -61t-37.5 -55.5t-60 -56t-58.5 -46t-60.5 -42.5l-30 -21l153 5q41 1 67 47l18 -2l-49 -105h-287zM356 714l-85 -367q-4 -15 1.5 -21.5t22.5 -8.5l31 -5l-6 -26q-50 2 -98 2l-103 -2l6 26l29 5q47 8 58 58l65 280q-39 -22 -74 -22q-24 0 -24 18q0 10 10 16 q82 13 156 49z" />
<glyph unicode="&#xbe;" horiz-adv-x="774" d="M751 788l44 -22q-137 -187 -325 -461t-267 -396l-45 23q84 117 284 404t309 452zM308 676q-26 0 -43 -17.5t-17 -39.5q0 -6 2 -14q-10 -6 -31 -6q-36 0 -36 29q0 30 41.5 58t107.5 28q43 0 67.5 -20.5t24.5 -50.5q0 -40 -34.5 -69.5t-87.5 -44.5v-5q41 -6 67 -31t26 -62 q0 -68 -57 -111.5t-146 -43.5q-38 0 -62 13t-24 34q0 17 15 29t34 12q13 0 22 -4q-8 -11 -8 -23q0 -29 37 -29q46 0 79 33.5t33 76.5q0 37 -30.5 57t-81.5 20v25q143 37 143 116q0 17 -10.5 28.5t-30.5 11.5zM774 112h-85l-14 -59q-5 -18 19 -22l24 -5l-6 -26h-161l6 25 l24 6q26 6 32 32l11 49h-174l-5 18l138 141q63 65 63 121q0 18 -5 28q13 8 29 8q21 0 34 -13.5t13 -31.5q0 -29 -24.5 -58.5t-80.5 -81.5l-95 -89h117l19 86l73 33l-27 -119h85z" />
<glyph unicode="&#xbf;" horiz-adv-x="395" d="M304 298h19q23 -36 23 -88q0 -43 -26 -78.5t-63 -60.5t-73.5 -49t-62.5 -56.5t-26 -70.5q0 -28 25 -52.5t67 -24.5q32 0 50.5 12t18.5 34q0 8 -2 15t-4 10l-1 3q17 7 38 7t35.5 -13t14.5 -33q0 -41 -34 -61t-79 -20q-67 0 -120.5 43t-53.5 103q0 51 19 90.5t48 62.5 t62 46t62 42t48 49t19 68q0 12 -4 22zM371 502q22 0 36 -14t14 -36q0 -27 -19.5 -48.5t-47.5 -21.5q-22 0 -35.5 14t-13.5 36q0 27 19 48.5t47 21.5z" />
<glyph unicode="&#xc0;" d="M415 927q39 -77 110 -152l-7 -9q-45 14 -94.5 53.5t-49.5 77.5q0 14 8.5 23t20.5 9q6 0 12 -2zM441 303l-26 294l-163 -294h189zM428 705l67 11l57 -623q2 -28 15 -41t42 -18l32 -5l-7 -29q-54 3 -125 3l-155 -3l7 29l21 5q80 16 74 90l-10 138h-213l-72 -137 q-25 -46 -25 -64q0 -21 41 -27l32 -5l-7 -29q-72 3 -119 3l-120 -3l7 29l21 5q44 10 68 34.5t51 72.5z" />
<glyph unicode="&#xc1;" d="M558 927q6 2 12 2q12 0 20.5 -9t8.5 -23q0 -38 -49.5 -77.5t-94.5 -53.5l-7 9q71 75 110 152zM441 303l-26 294l-163 -294h189zM428 705l67 11l57 -623q2 -28 15 -41t42 -18l32 -5l-7 -29q-54 3 -125 3l-155 -3l7 29l21 5q80 16 74 90l-10 138h-213l-72 -137 q-25 -46 -25 -64q0 -21 41 -27l32 -5l-7 -29q-72 3 -119 3l-120 -3l7 29l21 5q44 10 68 34.5t51 72.5z" />
<glyph unicode="&#xc2;" d="M306 780l192 137q68 -81 130 -139q-2 -24 -29 -24q-31 0 -62 34.5t-49 82.5l-133 -120zM441 303l-26 294l-163 -294h189zM428 705l67 11l57 -623q2 -28 15 -41t42 -18l32 -5l-7 -29q-54 3 -125 3l-155 -3l7 29l21 5q80 16 74 90l-10 138h-213l-72 -137q-25 -46 -25 -64 q0 -21 41 -27l32 -5l-7 -29q-72 3 -119 3l-120 -3l7 29l21 5q44 10 68 34.5t51 72.5z" />
<glyph unicode="&#xc3;" d="M452 889q32 0 67 -24t60 -24q52 0 81 51l11 -16q-37 -95 -123 -95q-30 0 -63.5 24t-59.5 24q-52 0 -80 -51l-12 16q17 43 48 69t71 26zM441 303l-26 294l-163 -294h189zM428 705l67 11l57 -623q2 -28 15 -41t42 -18l32 -5l-7 -29q-54 3 -125 3l-155 -3l7 29l21 5 q80 16 74 90l-10 138h-213l-72 -137q-25 -46 -25 -64q0 -21 41 -27l32 -5l-7 -29q-72 3 -119 3l-120 -3l7 29l21 5q44 10 68 34.5t51 72.5z" />
<glyph unicode="&#xc4;" d="M384 792q-20 0 -32 12.5t-12 31.5q0 23 17 42t42 19q19 0 31 -12.5t12 -31.5q0 -23 -17 -42t-41 -19zM582 792q-20 0 -32 12.5t-12 31.5q0 23 17 42t42 19q19 0 31 -12.5t12 -31.5q0 -23 -17.5 -42t-40.5 -19zM441 303l-26 294l-163 -294h189zM428 705l67 11l57 -623 q2 -28 15 -41t42 -18l32 -5l-7 -29q-54 3 -125 3l-155 -3l7 29l21 5q80 16 74 90l-10 138h-213l-72 -137q-25 -46 -25 -64q0 -21 41 -27l32 -5l-7 -29q-72 3 -119 3l-120 -3l7 29l21 5q44 10 68 34.5t51 72.5z" />
<glyph unicode="&#xc5;" d="M478 784q38 0 56 24.5t18 56.5q0 25 -15 40t-37 15q-36 0 -55 -24t-19 -57q0 -25 15 -40t37 -15zM519 954q35 0 57.5 -21t22.5 -56q0 -48 -41 -87.5t-99 -39.5q-35 0 -57 20.5t-22 56.5q0 48 41 87.5t98 39.5zM441 303l-26 294l-163 -294h189zM428 705l67 11l57 -623 q2 -28 15 -41t42 -18l32 -5l-7 -29q-54 3 -125 3l-155 -3l7 29l21 5q80 16 74 90l-10 138h-213l-72 -137q-25 -46 -25 -64q0 -21 41 -27l32 -5l-7 -29q-72 3 -119 3l-120 -3l7 29l21 5q44 10 68 34.5t51 72.5z" />
<glyph unicode="&#xc6;" horiz-adv-x="902" d="M500 671l7 29q52 -3 140 -3l319 3l-43 -164h-20q0 61 -35.5 95.5t-107.5 34.5q-48 0 -78 -7l-67 -281h77q41 0 65.5 19t43.5 58l19 39h26q-25 -71 -38 -128q-6 -28 -10.5 -55.5t-5.5 -40.5l-2 -14h-25l-1 25q-2 58 -60 58h-99l-51 -214q-6 -24 -6 -40q0 -27 16.5 -39 t54.5 -12q147 0 234 154l21 -3l-62 -185q-249 3 -335 3l-132 -3l7 29l21 5q41 10 62.5 32.5t31.5 65.5l29 130h-202l-114 -137q-2 -3 -9.5 -11t-10.5 -12t-8.5 -11t-8.5 -12t-5 -10.5t-2 -10.5q0 -16 38 -24l25 -5l-7 -29q-79 3 -126 3l-112 -3l7 29l22 5q47 10 77 33.5 t74 73.5l440 506q-8 13 -42 19zM326 303h180l65 284z" />
<glyph unicode="&#xc7;" horiz-adv-x="679" d="M718 596q0 -34 -22.5 -58t-53.5 -24q-11 0 -21 2t-15 4l-4 3q12 29 12 58q0 38 -33.5 65.5t-101.5 27.5q-103 0 -177.5 -59t-109 -148t-34.5 -194q0 -115 49.5 -182t130.5 -67q181 0 265 152l26 -7l-65 -147q-23 0 -93 -19t-146 -19q-26 -20 -26 -46q0 -16 27 -39.5 t27 -45.5q0 -46 -45.5 -74.5t-90.5 -28.5q-29 0 -46.5 12t-17.5 31t14 31t31 12q12 0 17 -5q-17 -11 -17 -28q0 -26 37 -26q21 0 39 14t18 34q0 17 -21.5 41t-21.5 49q0 21 15.5 40t37.5 30q-115 7 -179.5 79t-64.5 189q0 93 34.5 177.5t95 147t149 99.5t190.5 37 q86 0 138.5 -34.5t52.5 -83.5z" />
<glyph unicode="&#xc8;" horiz-adv-x="565" d="M398 927q39 -77 110 -152l-7 -9q-45 14 -94.5 53.5t-49.5 77.5q0 14 8.5 23t20.5 9q6 0 12 -2zM282 34q147 0 234 154l21 -3l-62 -185q-249 3 -335 3l-132 -3l7 29l21 5q41 10 62.5 32.5t31.5 65.5l107 469q4 20 4 29q0 17 -11 24.5t-35 11.5l-32 5l7 29q52 -3 140 -3 l319 3l-43 -164h-20q0 61 -35.5 95.5t-107.5 34.5q-48 0 -78 -7l-67 -281h77q41 0 65.5 19t43.5 58l19 39h26q-25 -71 -38 -128q-6 -28 -10.5 -55.5t-6.5 -40.5l-1 -14h-25l-1 25q-2 58 -60 58h-99l-51 -214q-6 -24 -6 -40q0 -27 16.5 -39t54.5 -12z" />
<glyph unicode="&#xc9;" horiz-adv-x="565" d="M514 927q6 2 12 2q12 0 20.5 -9t8.5 -23q0 -38 -49.5 -77.5t-94.5 -53.5l-7 9q71 75 110 152zM282 34q147 0 234 154l21 -3l-62 -185q-249 3 -335 3l-132 -3l7 29l21 5q41 10 62.5 32.5t31.5 65.5l107 469q4 20 4 29q0 17 -11 24.5t-35 11.5l-32 5l7 29q52 -3 140 -3 l319 3l-43 -164h-20q0 61 -35.5 95.5t-107.5 34.5q-48 0 -78 -7l-67 -281h77q41 0 65.5 19t43.5 58l19 39h26q-25 -71 -38 -128q-6 -28 -10.5 -55.5t-6.5 -40.5l-1 -14h-25l-1 25q-2 58 -60 58h-99l-51 -214q-6 -24 -6 -40q0 -27 16.5 -39t54.5 -12z" />
<glyph unicode="&#xca;" horiz-adv-x="565" d="M286 780l192 137q68 -81 130 -139q-2 -24 -29 -24q-31 0 -62 34.5t-49 82.5l-133 -120zM282 34q147 0 234 154l21 -3l-62 -185q-249 3 -335 3l-132 -3l7 29l21 5q41 10 62.5 32.5t31.5 65.5l107 469q4 20 4 29q0 17 -11 24.5t-35 11.5l-32 5l7 29q52 -3 140 -3l319 3 l-43 -164h-20q0 61 -35.5 95.5t-107.5 34.5q-48 0 -78 -7l-67 -281h77q41 0 65.5 19t43.5 58l19 39h26q-25 -71 -38 -128q-6 -28 -10.5 -55.5t-6.5 -40.5l-1 -14h-25l-1 25q-2 58 -60 58h-99l-51 -214q-6 -24 -6 -40q0 -27 16.5 -39t54.5 -12z" />
<glyph unicode="&#xcb;" horiz-adv-x="565" d="M346 792q-20 0 -32 12.5t-12 31.5q0 23 17 42t42 19q19 0 31 -12.5t12 -31.5q0 -23 -17 -42t-41 -19zM544 792q-20 0 -32 12.5t-12 31.5q0 23 17 42t42 19q19 0 31 -12.5t12 -31.5q0 -23 -17.5 -42t-40.5 -19zM282 34q147 0 234 154l21 -3l-62 -185q-249 3 -335 3 l-132 -3l7 29l21 5q41 10 62.5 32.5t31.5 65.5l107 469q4 20 4 29q0 17 -11 24.5t-35 11.5l-32 5l7 29q52 -3 140 -3l319 3l-43 -164h-20q0 61 -35.5 95.5t-107.5 34.5q-48 0 -78 -7l-67 -281h77q41 0 65.5 19t43.5 58l19 39h26q-25 -71 -38 -128q-6 -28 -10.5 -55.5 t-6.5 -40.5l-1 -14h-25l-1 25q-2 58 -60 58h-99l-51 -214q-6 -24 -6 -40q0 -27 16.5 -39t54.5 -12z" />
<glyph unicode="&#xcc;" horiz-adv-x="373" d="M233 927q39 -77 110 -152l-7 -9q-45 14 -94.5 53.5t-49.5 77.5q0 14 8.5 23t20.5 9q6 0 12 -2zM255 34l32 -5l-7 -29q-54 3 -140 3l-132 -3l7 29l21 5q41 10 62.5 32.5t31.5 65.5l107 469q4 20 4 29q0 17 -11 24.5t-35 11.5l-32 5l7 29q52 -3 140 -3l132 3l-7 -29l-21 -5 q-41 -10 -62.5 -32.5t-31.5 -65.5l-107 -469q-4 -20 -4 -29q0 -17 11 -24.5t35 -11.5z" />
<glyph unicode="&#xcd;" horiz-adv-x="373" d="M410 927q6 2 12 2q12 0 20.5 -9t8.5 -23q0 -38 -49.5 -77.5t-94.5 -53.5l-7 9q71 75 110 152zM255 34l32 -5l-7 -29q-54 3 -140 3l-132 -3l7 29l21 5q41 10 62.5 32.5t31.5 65.5l107 469q4 20 4 29q0 17 -11 24.5t-35 11.5l-32 5l7 29q52 -3 140 -3l132 3l-7 -29l-21 -5 q-41 -10 -62.5 -32.5t-31.5 -65.5l-107 -469q-4 -20 -4 -29q0 -17 11 -24.5t35 -11.5z" />
<glyph unicode="&#xce;" horiz-adv-x="373" d="M163 780l192 137q68 -81 130 -139q-1 -11 -9.5 -17.5t-19.5 -6.5q-31 0 -62 34.5t-49 82.5l-133 -120zM255 34l32 -5l-7 -29q-54 3 -140 3l-132 -3l7 29l21 5q41 10 62.5 32.5t31.5 65.5l107 469q4 20 4 29q0 17 -11 24.5t-35 11.5l-32 5l7 29q52 -3 140 -3l132 3l-7 -29 l-21 -5q-41 -10 -62.5 -32.5t-31.5 -65.5l-107 -469q-4 -20 -4 -29q0 -17 11 -24.5t35 -11.5z" />
<glyph unicode="&#xcf;" horiz-adv-x="373" d="M242 792q-20 0 -32 12.5t-12 31.5q0 23 17 42t42 19q19 0 31 -12.5t12 -31.5q0 -23 -17 -42t-41 -19zM440 792q-20 0 -32 12.5t-12 31.5q0 23 17 42t42 19q19 0 31 -12.5t12 -31.5q0 -23 -17.5 -42t-40.5 -19zM255 34l32 -5l-7 -29q-54 3 -140 3l-132 -3l7 29l21 5 q41 10 62.5 32.5t31.5 65.5l107 469q4 20 4 29q0 17 -11 24.5t-35 11.5l-32 5l7 29q52 -3 140 -3l132 3l-7 -29l-21 -5q-41 -10 -62.5 -32.5t-31.5 -65.5l-107 -469q-4 -20 -4 -29q0 -17 11 -24.5t35 -11.5z" />
<glyph unicode="&#xd0;" horiz-adv-x="804" d="M140 3l-132 -3l7 29l21 5q41 10 62.5 32.5t31.5 65.5l43 190l-107 -2l12 56q56 -1 107 -2l52 227q4 20 4 29q0 17 -11 24.5t-35 11.5l-32 5l7 29q29 -3 117 -3q25 0 79.5 1.5t72.5 1.5q166 0 260.5 -81t94.5 -203q0 -191 -132.5 -303.5t-354.5 -112.5q-28 0 -82.5 1.5 t-84.5 1.5zM341 659l-66 -286q1 0 76 1.5t97 1.5l-13 -56q-14 0 -55.5 0.5t-77.5 1t-38 0.5l-45 -197q-6 -24 -6 -40q0 -51 81 -51q173 0 286.5 96.5t113.5 265.5q0 124 -70 197t-206 73q-42 0 -77 -7z" />
<glyph unicode="&#xd1;" horiz-adv-x="815" d="M521 889q31 0 66 -24t61 -24q52 0 81 51l11 -16q-37 -95 -123 -95q-30 0 -63.5 24t-59.5 24q-52 0 -80 -51l-12 16q17 43 48 69t71 26zM679 666l-43 5l7 29q73 -3 154 -3l109 3l-7 -29l-21 -5q-41 -10 -62.5 -32.5t-31.5 -65.5l-126 -573l-31 -4l-344 581l-97 -418 q-14 -64 -14 -76q0 -38 54 -44l45 -5l-7 -29q-84 3 -146 3l-110 -3l7 29l21 5q42 10 63 32t31 66l107 469q4 16 4 29q0 17 -11 24.5t-35 11.5l-32 5l7 29q48 -3 161 -3q0 -27 21 -64l294 -500l90 447q5 22 5 33q0 26 -15.5 37.5t-46.5 15.5z" />
<glyph unicode="&#xd2;" horiz-adv-x="760" d="M436 927q39 -77 110 -152l-7 -9q-45 14 -94.5 53.5t-49.5 77.5q0 14 8.5 23t20.5 9q6 0 12 -2zM368 23q70 0 128 40t92 102t52 129.5t18 130.5q0 117 -60 183.5t-151 66.5q-70 0 -128 -40t-92 -102t-52 -129.5t-18 -130.5q0 -117 60 -183.5t151 -66.5zM495 714 q117 0 190 -72t73 -197q0 -121 -58.5 -227t-160 -170t-219.5 -64q-117 0 -190 72t-73 197q0 121 58.5 227t160 170t219.5 64z" />
<glyph unicode="&#xd3;" horiz-adv-x="760" d="M577 927q6 2 12 2q12 0 20.5 -9t8.5 -23q0 -38 -49.5 -77.5t-94.5 -53.5l-7 9q71 75 110 152zM368 23q70 0 128 40t92 102t52 129.5t18 130.5q0 117 -60 183.5t-151 66.5q-70 0 -128 -40t-92 -102t-52 -129.5t-18 -130.5q0 -117 60 -183.5t151 -66.5zM495 714 q117 0 190 -72t73 -197q0 -121 -58.5 -227t-160 -170t-219.5 -64q-117 0 -190 72t-73 197q0 121 58.5 227t160 170t219.5 64z" />
<glyph unicode="&#xd4;" horiz-adv-x="760" d="M351 780l192 137q68 -81 130 -139q-1 -11 -9.5 -17.5t-19.5 -6.5q-31 0 -62 34.5t-49 82.5l-133 -120zM368 23q70 0 128 40t92 102t52 129.5t18 130.5q0 117 -60 183.5t-151 66.5q-70 0 -128 -40t-92 -102t-52 -129.5t-18 -130.5q0 -117 60 -183.5t151 -66.5zM495 714 q117 0 190 -72t73 -197q0 -121 -58.5 -227t-160 -170t-219.5 -64q-117 0 -190 72t-73 197q0 121 58.5 227t160 170t219.5 64z" />
<glyph unicode="&#xd5;" horiz-adv-x="760" d="M481 889q31 0 66 -24t61 -24q52 0 81 51l11 -16q-37 -95 -123 -95q-30 0 -63.5 24t-59.5 24q-52 0 -80 -51l-12 16q17 43 48 69t71 26zM368 23q70 0 128 40t92 102t52 129.5t18 130.5q0 117 -60 183.5t-151 66.5q-70 0 -128 -40t-92 -102t-52 -129.5t-18 -130.5 q0 -117 60 -183.5t151 -66.5zM495 714q117 0 190 -72t73 -197q0 -121 -58.5 -227t-160 -170t-219.5 -64q-117 0 -190 72t-73 197q0 121 58.5 227t160 170t219.5 64z" />
<glyph unicode="&#xd6;" horiz-adv-x="760" d="M424 792q-20 0 -32 12.5t-12 31.5q0 23 17 42t42 19q19 0 31 -12.5t12 -31.5q0 -23 -17 -42t-41 -19zM622 792q-20 0 -32 12.5t-12 31.5q0 23 17 42t42 19q19 0 31 -12.5t12 -31.5q0 -23 -17.5 -42t-40.5 -19zM368 23q70 0 128 40t92 102t52 129.5t18 130.5 q0 117 -60 183.5t-151 66.5q-70 0 -128 -40t-92 -102t-52 -129.5t-18 -130.5q0 -117 60 -183.5t151 -66.5zM495 714q117 0 190 -72t73 -197q0 -121 -58.5 -227t-160 -170t-219.5 -64q-117 0 -190 72t-73 197q0 121 58.5 227t160 170t219.5 64z" />
<glyph unicode="&#xd7;" horiz-adv-x="556" d="M443 3l-165 174l-165 -174l-44 46l166 172l-166 175l45 45l164 -174l164 174l46 -45l-167 -175l167 -172z" />
<glyph unicode="&#xd8;" horiz-adv-x="760" d="M495 714q104 0 172 -56l51 56h63q-6 -6 -34.5 -35t-48.5 -51q60 -71 60 -183q0 -121 -58.5 -227t-160 -170t-219.5 -64q-102 0 -169 53l-48 -53h-63q33 34 79 83q-62 72 -62 186q0 121 58.5 227t160 170t219.5 64zM185 137q102 106 212 226l212 231q-60 81 -162 81 q-70 0 -128 -40t-92 -102t-52 -129.5t-18 -130.5q0 -78 28 -136zM368 23q70 0 128 40t92 102t52 129.5t18 130.5q0 75 -27 132l-210 -223q-44 -48 -213 -234q60 -77 160 -77z" />
<glyph unicode="&#xd9;" horiz-adv-x="795" d="M442 927q39 -77 110 -152l-7 -9q-45 14 -94.5 53.5t-49.5 77.5q0 14 8.5 23t20.5 9q6 0 12 -2zM300 568l-61 -261q-14 -62 -14 -105q0 -168 171 -168q100 0 151 60.5t80 191.5l71 315q4 20 4 29q0 17 -11 24.5t-35 11.5l-32 5l7 29q58 -4 122 -4l115 4l-7 -29l-21 -5 q-41 -10 -62.5 -32.5t-31.5 -65.5l-64 -286q-16 -72 -36.5 -122t-53.5 -92t-85 -62.5t-123 -20.5q-115 0 -182.5 52t-67.5 156q0 42 12 93l71 315q4 20 4 29q0 17 -11 24.5t-35 11.5l-32 5l7 29q52 -3 140 -3l132 3l-7 -29l-21 -5q-41 -10 -62.5 -32.5t-31.5 -65.5z" />
<glyph unicode="&#xda;" horiz-adv-x="795" d="M623 927q6 2 12 2q12 0 20.5 -9t8.5 -23q0 -38 -49.5 -77.5t-94.5 -53.5l-7 9q71 75 110 152zM300 568l-61 -261q-14 -62 -14 -105q0 -168 171 -168q100 0 151 60.5t80 191.5l71 315q4 20 4 29q0 17 -11 24.5t-35 11.5l-32 5l7 29q58 -4 122 -4l115 4l-7 -29l-21 -5 q-41 -10 -62.5 -32.5t-31.5 -65.5l-64 -286q-16 -72 -36.5 -122t-53.5 -92t-85 -62.5t-123 -20.5q-115 0 -182.5 52t-67.5 156q0 42 12 93l71 315q4 20 4 29q0 17 -11 24.5t-35 11.5l-32 5l7 29q52 -3 140 -3l132 3l-7 -29l-21 -5q-41 -10 -62.5 -32.5t-31.5 -65.5z" />
<glyph unicode="&#xdb;" horiz-adv-x="795" d="M382 780l192 137q68 -81 130 -139q-2 -24 -29 -24q-31 0 -62 34.5t-49 82.5l-133 -120zM300 568l-61 -261q-14 -62 -14 -105q0 -168 171 -168q100 0 151 60.5t80 191.5l71 315q4 20 4 29q0 17 -11 24.5t-35 11.5l-32 5l7 29q58 -4 122 -4l115 4l-7 -29l-21 -5 q-41 -10 -62.5 -32.5t-31.5 -65.5l-64 -286q-16 -72 -36.5 -122t-53.5 -92t-85 -62.5t-123 -20.5q-115 0 -182.5 52t-67.5 156q0 42 12 93l71 315q4 20 4 29q0 17 -11 24.5t-35 11.5l-32 5l7 29q52 -3 140 -3l132 3l-7 -29l-21 -5q-41 -10 -62.5 -32.5t-31.5 -65.5z" />
<glyph unicode="&#xdc;" horiz-adv-x="795" d="M443 792q-20 0 -32 12.5t-12 31.5q0 23 17 42t42 19q19 0 31 -12.5t12 -31.5q0 -23 -17 -42t-41 -19zM641 792q-20 0 -32 12.5t-12 31.5q0 23 17 42t42 19q19 0 31 -12.5t12 -31.5q0 -23 -17.5 -42t-40.5 -19zM300 568l-61 -261q-14 -62 -14 -105q0 -168 171 -168 q100 0 151 60.5t80 191.5l71 315q4 20 4 29q0 17 -11 24.5t-35 11.5l-32 5l7 29q58 -4 122 -4l115 4l-7 -29l-21 -5q-41 -10 -62.5 -32.5t-31.5 -65.5l-64 -286q-16 -72 -36.5 -122t-53.5 -92t-85 -62.5t-123 -20.5q-115 0 -182.5 52t-67.5 156q0 42 12 93l71 315q4 20 4 29 q0 17 -11 24.5t-35 11.5l-32 5l7 29q52 -3 140 -3l132 3l-7 -29l-21 -5q-41 -10 -62.5 -32.5t-31.5 -65.5z" />
<glyph unicode="&#xdd;" horiz-adv-x="695" d="M588 927q6 2 12 2q12 0 20.5 -9t8.5 -23q0 -38 -49.5 -77.5t-94.5 -53.5l-7 9q71 75 110 152zM412 300l-46 -201q-4 -20 -4 -29q0 -17 11 -24.5t35 -11.5l32 -5l-7 -29q-54 3 -140 3l-132 -3l7 29l21 5q41 10 62.5 32.5t31.5 65.5l41 178l-25 139q-9 47 -15 75.5 t-16 57.5t-21 44.5t-27 25t-38 9.5q-30 0 -57 -24l-5 23q42 54 104 54q41 0 70 -19t46 -56.5t25.5 -72.5t16.5 -88l19 -131q5 14 20.5 47t48.5 91t69.5 106.5t85 85.5t92.5 37q31 0 49.5 -15.5t18.5 -44.5q0 -21 -17 -37t-35 -16q-6 0 -9 1q1 4 1 9q0 13 -9.5 22.5 t-29.5 9.5q-45 0 -108.5 -74t-107.5 -151t-58 -118z" />
<glyph unicode="&#xde;" horiz-adv-x="566" d="M255 34l32 -5l-7 -29q-54 3 -140 3l-132 -3l7 29l21 5q41 10 62.5 32.5t31.5 65.5l107 469q4 20 4 29q0 17 -11 24.5t-35 11.5l-32 5l7 29q52 -3 140 -3l132 3l-7 -29l-21 -5q-41 -10 -62.5 -32.5t-31.5 -65.5l-10 -47q5 2 23 10.5t36.5 13.5t39.5 5q77 0 130 -52 t53 -134q0 -92 -68 -153.5t-155 -61.5q-47 0 -87 14.5t-51 14.5l-18 -79q-4 -16 -4 -29q0 -17 11 -24.5t35 -11.5zM376 507q-19 0 -45.5 -7.5t-29.5 -8.5l-63 -283q12 0 45 -8t56 -8q67 0 112 51.5t45 120.5q0 66 -32 104.5t-88 38.5z" />
<glyph unicode="&#xdf;" horiz-adv-x="548" d="M557 655q0 41 -21.5 60.5t-69.5 19.5q-121 0 -195 -227l-118 -360q-149 -451 -344 -451q-42 0 -61.5 17.5t-19.5 42.5q0 27 17.5 40.5t40.5 13.5l13 -1q-6 -14 -6 -25q0 -40 48 -40q59 0 103.5 62.5t82.5 189.5l123 408h-76l7 24l83 17l9 27q44 132 133 219t200 87 q64 0 98.5 -31.5t34.5 -82.5q0 -48 -19 -85.5t-48 -60t-62 -43.5t-62 -37t-48 -39t-19 -51q0 -30 24.5 -63t49 -71t24.5 -80q0 -67 -58 -109t-119 -42q-87 0 -87 53q0 25 18 40.5t42 15.5l10 -1q-6 -11 -6 -22q0 -15 15 -25t35 -10q82 0 82 67q0 34 -21 68t-42 71.5 t-21 79.5q0 34 17 62.5t42.5 48t55.5 43t55.5 46t42.5 57.5t17 77z" />
<glyph unicode="&#xe0;" horiz-adv-x="478" d="M374 50q38 0 93 90l15 -10q-23 -54 -62.5 -100.5t-86.5 -46.5q-52 0 -52 57q0 37 30 115h-4q-16 -33 -28 -54t-36 -53t-54.5 -48.5t-66.5 -16.5q-44 0 -66 31.5t-22 82.5q0 80 40 159.5t107 131t139 51.5q39 0 77 -31q6 19 21 38t37 19q21 0 38 -15q-28 -32 -83 -172 t-55 -206q0 -22 19 -22zM159 42q39 0 84.5 58.5t76.5 128t47 127.5q-19 45 -67 45q-75 0 -131.5 -90.5t-56.5 -193.5q0 -40 10.5 -57.5t36.5 -17.5zM238 694q0 15 11 28t31 13q75 -113 168 -207l-5 -13q-59 15 -132 74t-73 105z" />
<glyph unicode="&#xe1;" horiz-adv-x="478" d="M374 50q38 0 93 90l15 -10q-23 -54 -62.5 -100.5t-86.5 -46.5q-52 0 -52 57q0 37 30 115h-4q-16 -33 -28 -54t-36 -53t-54.5 -48.5t-66.5 -16.5q-44 0 -66 31.5t-22 82.5q0 80 40 159.5t107 131t139 51.5q39 0 77 -31q6 19 21 38t37 19q21 0 38 -15q-28 -32 -83 -172 t-55 -206q0 -22 19 -22zM159 42q39 0 84.5 58.5t76.5 128t47 127.5q-19 45 -67 45q-75 0 -131.5 -90.5t-56.5 -193.5q0 -40 10.5 -57.5t36.5 -17.5zM531 694q0 -46 -73 -105t-132 -74l-5 13q93 94 168 207q20 0 31 -13t11 -28z" />
<glyph unicode="&#xe2;" horiz-adv-x="478" d="M374 50q38 0 93 90l15 -10q-23 -54 -62.5 -100.5t-86.5 -46.5q-52 0 -52 57q0 37 30 115h-4q-16 -33 -28 -54t-36 -53t-54.5 -48.5t-66.5 -16.5q-44 0 -66 31.5t-22 82.5q0 80 40 159.5t107 131t139 51.5q39 0 77 -31q6 19 21 38t37 19q21 0 38 -15q-28 -32 -83 -172 t-55 -206q0 -22 19 -22zM159 42q39 0 84.5 58.5t76.5 128t47 127.5q-19 45 -67 45q-75 0 -131.5 -90.5t-56.5 -193.5q0 -40 10.5 -57.5t36.5 -17.5zM205 552l202 180q56 -114 117 -176q0 -10 -9 -19t-27 -9q-40 0 -66 51t-29 107l-132 -158z" />
<glyph unicode="&#xe3;" horiz-adv-x="478" d="M374 50q38 0 93 90l15 -10q-23 -54 -62.5 -100.5t-86.5 -46.5q-52 0 -52 57q0 37 30 115h-4q-16 -33 -28 -54t-36 -53t-54.5 -48.5t-66.5 -16.5q-44 0 -66 31.5t-22 82.5q0 80 40 159.5t107 131t139 51.5q39 0 77 -31q6 19 21 38t37 19q21 0 38 -15q-28 -32 -83 -172 t-55 -206q0 -22 19 -22zM159 42q39 0 84.5 58.5t76.5 128t47 127.5q-19 45 -67 45q-75 0 -131.5 -90.5t-56.5 -193.5q0 -40 10.5 -57.5t36.5 -17.5zM332 677q32 0 67 -24t60 -24q52 0 81 51l11 -16q-37 -95 -123 -95q-30 0 -63.5 24t-59.5 24q-52 0 -80 -51l-12 16 q17 43 48 69t71 26z" />
<glyph unicode="&#xe4;" horiz-adv-x="478" d="M374 50q38 0 93 90l15 -10q-23 -54 -62.5 -100.5t-86.5 -46.5q-52 0 -52 57q0 37 30 115h-4q-16 -33 -28 -54t-36 -53t-54.5 -48.5t-66.5 -16.5q-44 0 -66 31.5t-22 82.5q0 80 40 159.5t107 131t139 51.5q39 0 77 -31q6 19 21 38t37 19q21 0 38 -15q-28 -32 -83 -172 t-55 -206q0 -22 19 -22zM159 42q39 0 84.5 58.5t76.5 128t47 127.5q-19 45 -67 45q-75 0 -131.5 -90.5t-56.5 -193.5q0 -40 10.5 -57.5t36.5 -17.5zM278 556q-20 0 -32 12.5t-12 31.5q0 23 17 42t42 19q19 0 31 -12.5t12 -31.5q0 -23 -17 -42t-41 -19zM464 556 q-20 0 -32 12.5t-12 31.5q0 23 17 42t42 19q19 0 31 -12.5t12 -31.5q0 -23 -17.5 -42t-40.5 -19z" />
<glyph unicode="&#xe5;" horiz-adv-x="478" d="M374 50q38 0 93 90l15 -10q-23 -54 -62.5 -100.5t-86.5 -46.5q-52 0 -52 57q0 37 30 115h-4q-16 -33 -28 -54t-36 -53t-54.5 -48.5t-66.5 -16.5q-44 0 -66 31.5t-22 82.5q0 80 40 159.5t107 131t139 51.5q39 0 77 -31q6 19 21 38t37 19q21 0 38 -15q-28 -32 -83 -172 t-55 -206q0 -22 19 -22zM159 42q39 0 84.5 58.5t76.5 128t47 127.5q-19 45 -67 45q-75 0 -131.5 -90.5t-56.5 -193.5q0 -40 10.5 -57.5t36.5 -17.5zM361 572q38 0 56 24.5t18 56.5q0 25 -14.5 40t-37.5 15q-36 0 -55 -24t-19 -57q0 -25 15 -40t37 -15zM402 742 q35 0 57.5 -21t22.5 -56q0 -48 -41 -87.5t-99 -39.5q-35 0 -57 20.5t-22 56.5q0 48 41 87.5t98 39.5z" />
<glyph unicode="&#xe6;" horiz-adv-x="657" d="M676 397q0 -57 -69.5 -101.5t-212.5 -81.5q-15 -51 -15 -98q0 -32 16.5 -53.5t52.5 -21.5q42 0 84.5 31t65.5 65l15 -11q-9 -17 -21.5 -34t-38 -45t-60.5 -45.5t-74 -17.5q-59 0 -90.5 31.5t-31.5 89.5q0 12 1 19q-74 -141 -170 -141q-44 0 -66 31.5t-22 82.5 q0 80 40 159.5t107 131t139 51.5q64 0 98 -46q78 73 175 73q39 0 58 -20.5t19 -48.5zM165 42q39 0 84.5 58.5t76.5 128t47 127.5q-19 45 -67 45q-75 0 -131.5 -90.5t-56.5 -193.5q0 -40 10.5 -57.5t36.5 -17.5zM599 390q0 36 -34 36q-56 0 -104 -63t-61 -122q35 11 61.5 21 t62 28.5t55.5 44t20 55.5z" />
<glyph unicode="&#xe7;" horiz-adv-x="395" d="M357 349q6 17 6 28q0 41 -51 41q-54 0 -98.5 -51.5t-65.5 -119.5t-21 -131q0 -36 17 -55.5t47 -19.5q82 0 151 96l15 -11q-70 -142 -193 -142q-23 -19 -23 -43q0 -16 27 -39.5t27 -45.5q0 -46 -45.5 -74.5t-90.5 -28.5q-29 0 -46.5 12t-17.5 31t14 31t31 12q12 0 17 -5 q-17 -11 -17 -28q0 -26 37 -26q21 0 39 14t18 34q0 17 -21.5 41t-21.5 49q0 20 15 38.5t35 29.5q-45 1 -70.5 33.5t-25.5 85.5q0 82 41.5 165t116.5 139.5t160 56.5q30 0 51.5 -13.5t21.5 -41.5t-19.5 -46t-45.5 -18q-8 0 -14 2z" />
<glyph unicode="&#xe8;" horiz-adv-x="404" d="M346 390q0 36 -34 36q-30 0 -57.5 -20t-48 -51.5t-34 -59t-23.5 -54.5q197 58 197 149zM423 397q0 -57 -69.5 -101.5t-212.5 -81.5q-15 -51 -15 -98q0 -32 16.5 -53.5t52.5 -21.5q42 0 84.5 31t65.5 65l15 -11q-9 -17 -21.5 -34t-38 -45t-60.5 -45.5t-74 -17.5 q-59 0 -90.5 31.5t-31.5 89.5q0 43 13 92t40 97t62.5 86.5t84 62t102.5 23.5q39 0 58 -20.5t19 -48.5zM199 694q0 15 11 28t31 13q75 -113 168 -207l-5 -13q-59 15 -132 74t-73 105z" />
<glyph unicode="&#xe9;" horiz-adv-x="404" d="M346 390q0 36 -34 36q-30 0 -57.5 -20t-48 -51.5t-34 -59t-23.5 -54.5q197 58 197 149zM423 397q0 -57 -69.5 -101.5t-212.5 -81.5q-15 -51 -15 -98q0 -32 16.5 -53.5t52.5 -21.5q42 0 84.5 31t65.5 65l15 -11q-9 -17 -21.5 -34t-38 -45t-60.5 -45.5t-74 -17.5 q-59 0 -90.5 31.5t-31.5 89.5q0 43 13 92t40 97t62.5 86.5t84 62t102.5 23.5q39 0 58 -20.5t19 -48.5zM519 694q0 -46 -73 -105t-132 -74l-5 13q93 94 168 207q20 0 31 -13t11 -28z" />
<glyph unicode="&#xea;" horiz-adv-x="404" d="M346 390q0 36 -34 36q-30 0 -57.5 -20t-48 -51.5t-34 -59t-23.5 -54.5q197 58 197 149zM423 397q0 -57 -69.5 -101.5t-212.5 -81.5q-15 -51 -15 -98q0 -32 16.5 -53.5t52.5 -21.5q42 0 84.5 31t65.5 65l15 -11q-9 -17 -21.5 -34t-38 -45t-60.5 -45.5t-74 -17.5 q-59 0 -90.5 31.5t-31.5 89.5q0 43 13 92t40 97t62.5 86.5t84 62t102.5 23.5q39 0 58 -20.5t19 -48.5zM185 552l202 180q56 -114 117 -176q0 -10 -9 -19t-27 -9q-40 0 -66 51t-29 107l-132 -158z" />
<glyph unicode="&#xeb;" horiz-adv-x="404" d="M346 390q0 36 -34 36q-30 0 -57.5 -20t-48 -51.5t-34 -59t-23.5 -54.5q197 58 197 149zM423 397q0 -57 -69.5 -101.5t-212.5 -81.5q-15 -51 -15 -98q0 -32 16.5 -53.5t52.5 -21.5q42 0 84.5 31t65.5 65l15 -11q-9 -17 -21.5 -34t-38 -45t-60.5 -45.5t-74 -17.5 q-59 0 -90.5 31.5t-31.5 89.5q0 43 13 92t40 97t62.5 86.5t84 62t102.5 23.5q39 0 58 -20.5t19 -48.5zM271 556q-20 0 -32 12.5t-12 31.5q0 23 17 42t42 19q19 0 31 -12.5t12 -31.5q0 -23 -17 -42t-41 -19zM457 556q-20 0 -32 12.5t-12 31.5q0 23 17 42t42 19q19 0 31 -12.5 t12 -31.5q0 -23 -17.5 -42t-40.5 -19z" />
<glyph unicode="&#xec;" horiz-adv-x="279" d="M274 465l-118 -307q-27 -72 -27 -94q0 -14 13 -14q17 0 58 35.5t59 61.5l15 -10q-28 -52 -84 -102.5t-103 -50.5q-38 0 -38 38q0 42 25 110l73 205q7 19 7 32q0 16 -15 22t-49 6v22q97 4 184 46zM64 694q0 15 11 28t31 13q75 -113 168 -207l-5 -13q-59 15 -132 74 t-73 105z" />
<glyph unicode="&#xed;" horiz-adv-x="279" d="M274 465l-118 -307q-27 -72 -27 -94q0 -14 13 -14q17 0 58 35.5t59 61.5l15 -10q-28 -52 -84 -102.5t-103 -50.5q-38 0 -38 38q0 42 25 110l73 205q7 19 7 32q0 16 -15 22t-49 6v22q97 4 184 46zM398 694q0 -46 -73 -105t-132 -74l-5 13q93 94 168 207q20 0 31 -13 t11 -28z" />
<glyph unicode="&#xee;" horiz-adv-x="279" d="M274 465l-118 -307q-27 -72 -27 -94q0 -14 13 -14q17 0 58 35.5t59 61.5l15 -10q-28 -52 -84 -102.5t-103 -50.5q-38 0 -38 38q0 42 25 110l73 205q7 19 7 32q0 16 -15 22t-49 6v22q97 4 184 46zM92 552l202 180q56 -114 117 -176q0 -10 -9.5 -19t-26.5 -9q-40 0 -66 51 t-29 107l-132 -158z" />
<glyph unicode="&#xef;" horiz-adv-x="279" d="M274 465l-118 -307q-27 -72 -27 -94q0 -14 13 -14q17 0 58 35.5t59 61.5l15 -10q-28 -52 -84 -102.5t-103 -50.5q-38 0 -38 38q0 42 25 110l73 205q7 19 7 32q0 16 -15 22t-49 6v22q97 4 184 46zM168 556q-20 0 -32 12.5t-12 31.5q0 23 17 42t42 19q19 0 31 -12.5 t12 -31.5q0 -23 -17 -42t-41 -19zM354 556q-20 0 -32 12.5t-12 31.5q0 23 17 42t42 19q19 0 31 -12.5t12 -31.5q0 -23 -17.5 -42t-40.5 -19z" />
<glyph unicode="&#xf0;" horiz-adv-x="445" d="M161 -16q-53 0 -84.5 37t-31.5 102q0 55 21.5 116t57 111t87.5 83t107 33q42 0 71 -23q2 16 2 29q0 44 -16 87l-109 -46l-5 37l98 42q-17 38 -61.5 63.5t-87.5 25.5l27 30q50 0 101 -26.5t76 -69.5l119 50l5 -37l-109 -46q25 -60 25 -143q0 -92 -30 -198 q-28 -104 -100.5 -180.5t-162.5 -76.5zM190 21q43 0 82 50.5t60 118.5t21 126q0 112 -63 112q-43 0 -82 -50.5t-60 -118t-21 -125.5q0 -113 63 -113z" />
<glyph unicode="&#xf1;" horiz-adv-x="529" d="M398 50q29 0 86 82l15 -11q-30 -56 -70.5 -96.5t-87.5 -40.5q-38 0 -38 38t34 136l60 171q12 34 12 50q0 20 -15 20q-47 0 -114.5 -80t-114.5 -177.5t-47 -149.5q-12 -8 -36 -8q-17 0 -27.5 9.5t-10.5 25.5q0 12 5 29l91 289q7 23 7 32q0 16 -15 22t-49 6v22q97 4 184 46 q-103 -256 -114 -285h4q64 119 137.5 202.5t141.5 83.5q53 0 53 -50q0 -34 -19 -88l-60 -170q-27 -76 -27 -94q0 -14 15 -14zM367 677q31 0 66 -24t61 -24q52 0 81 51l11 -16q-37 -95 -123 -95q-30 0 -63.5 24t-59.5 24q-52 0 -80 -51l-12 16q17 43 48 69t71 26z" />
<glyph unicode="&#xf2;" horiz-adv-x="435" d="M161 -16q-53 0 -84.5 37t-31.5 102q0 55 21.5 116t57 111t87.5 83t107 33q54 0 85.5 -37t31.5 -103q0 -75 -35.5 -153.5t-100 -133.5t-138.5 -55zM190 21q43 0 82 50.5t60 118.5t21 126q0 112 -63 112q-43 0 -82 -50.5t-60 -118t-21 -125.5q0 -113 63 -113zM147 694 q0 15 11 28t31 13q75 -113 168 -207l-5 -13q-59 15 -132 74t-73 105z" />
<glyph unicode="&#xf3;" horiz-adv-x="435" d="M161 -16q-53 0 -84.5 37t-31.5 102q0 55 21.5 116t57 111t87.5 83t107 33q54 0 85.5 -37t31.5 -103q0 -75 -35.5 -153.5t-100 -133.5t-138.5 -55zM190 21q43 0 82 50.5t60 118.5t21 126q0 112 -63 112q-43 0 -82 -50.5t-60 -118t-21 -125.5q0 -113 63 -113zM500 694 q0 -46 -73 -105t-132 -74l-5 13q93 94 168 207q20 0 31 -13t11 -28z" />
<glyph unicode="&#xf4;" horiz-adv-x="435" d="M161 -16q-53 0 -84.5 37t-31.5 102q0 55 21.5 116t57 111t87.5 83t107 33q54 0 85.5 -37t31.5 -103q0 -75 -35.5 -153.5t-100 -133.5t-138.5 -55zM190 21q43 0 82 50.5t60 118.5t21 126q0 112 -63 112q-43 0 -82 -50.5t-60 -118t-21 -125.5q0 -113 63 -113zM185 552 l202 180q56 -114 117 -176q0 -10 -9 -19t-27 -9q-40 0 -66 51t-29 107l-132 -158z" />
<glyph unicode="&#xf5;" horiz-adv-x="435" d="M161 -16q-53 0 -84.5 37t-31.5 102q0 55 21.5 116t57 111t87.5 83t107 33q54 0 85.5 -37t31.5 -103q0 -75 -35.5 -153.5t-100 -133.5t-138.5 -55zM190 21q43 0 82 50.5t60 118.5t21 126q0 112 -63 112q-43 0 -82 -50.5t-60 -118t-21 -125.5q0 -113 63 -113zM314 677 q32 0 67 -24t60 -24q52 0 81 51l11 -16q-37 -95 -123 -95q-30 0 -63.5 24t-59.5 24q-52 0 -80 -51l-12 16q17 43 48 69t71 26z" />
<glyph unicode="&#xf6;" horiz-adv-x="435" d="M161 -16q-53 0 -84.5 37t-31.5 102q0 55 21.5 116t57 111t87.5 83t107 33q54 0 85.5 -37t31.5 -103q0 -75 -35.5 -153.5t-100 -133.5t-138.5 -55zM190 21q43 0 82 50.5t60 118.5t21 126q0 112 -63 112q-43 0 -82 -50.5t-60 -118t-21 -125.5q0 -113 63 -113zM260 556 q-20 0 -32 12.5t-12 31.5q0 23 17 42t42 19q19 0 31 -12.5t12 -31.5q0 -23 -17 -42t-41 -19zM446 556q-20 0 -32 12.5t-12 31.5q0 23 17 42t42 19q19 0 31 -12.5t12 -31.5q0 -23 -17.5 -42t-40.5 -19z" />
<glyph unicode="&#xf7;" horiz-adv-x="456" d="M294 51q0 -28 -19.5 -47.5t-46.5 -19.5q-28 0 -47 19.5t-19 47.5q0 27 19 46t47 19q27 0 46.5 -19t19.5 -46zM294 392q0 -28 -19.5 -47.5t-46.5 -19.5q-28 0 -47 19.5t-19 47.5q0 27 19 46t47 19q27 0 46.5 -19t19.5 -46zM0 250h456v-59h-456v59z" />
<glyph unicode="&#xf8;" horiz-adv-x="435" d="M161 -16q-57 0 -89 41q-27 -27 -39 -41h-60l80 81q-8 27 -8 58q0 55 21.5 116t57 111t87.5 83t107 33q56 0 87 -40l38 39h63q-45 -42 -80 -77q9 -27 9 -62q0 -75 -35.5 -153.5t-100 -133.5t-138.5 -55zM190 21q43 0 82 50.5t60 118.5t21 126q-22 -21 -43.5 -42.5 t-41 -41.5t-24.5 -25l-114 -119q12 -67 60 -67zM127 141l221 226q-12 61 -58 61q-42 0 -80.5 -48.5t-59.5 -114.5t-23 -124z" />
<glyph unicode="&#xf9;" horiz-adv-x="496" d="M145 400q-29 0 -86 -82l-15 10q74 138 158 138q38 0 38 -39q0 -37 -34 -135l-60 -172q-12 -33 -12 -50q0 -19 15 -19q47 0 114.5 80t114.5 177.5t47 149.5q10 8 34 8q38 0 38 -36q0 -11 -5 -28l-94 -289q-7 -23 -7 -32q0 -28 69 -28v-22q-97 -4 -184 -46q99 243 114 285 h-4q-64 -119 -137.5 -202.5t-141.5 -83.5q-53 0 -53 50q0 35 19 87l60 171q27 76 27 94q0 14 -15 14zM167 694q0 15 11 28t31 13q75 -113 168 -207l-5 -13q-59 15 -132 74t-73 105z" />
<glyph unicode="&#xfa;" horiz-adv-x="496" d="M145 400q-29 0 -86 -82l-15 10q74 138 158 138q38 0 38 -39q0 -37 -34 -135l-60 -172q-12 -33 -12 -50q0 -19 15 -19q47 0 114.5 80t114.5 177.5t47 149.5q10 8 34 8q38 0 38 -36q0 -11 -5 -28l-94 -289q-7 -23 -7 -32q0 -28 69 -28v-22q-97 -4 -184 -46q99 243 114 285 h-4q-64 -119 -137.5 -202.5t-141.5 -83.5q-53 0 -53 50q0 35 19 87l60 171q27 76 27 94q0 14 -15 14zM531 694q0 -46 -73 -105t-132 -74l-5 13q93 94 168 207q20 0 31 -13t11 -28z" />
<glyph unicode="&#xfb;" horiz-adv-x="496" d="M145 400q-29 0 -86 -82l-15 10q74 138 158 138q38 0 38 -39q0 -37 -34 -135l-60 -172q-12 -33 -12 -50q0 -19 15 -19q47 0 114.5 80t114.5 177.5t47 149.5q10 8 34 8q38 0 38 -36q0 -11 -5 -28l-94 -289q-7 -23 -7 -32q0 -28 69 -28v-22q-97 -4 -184 -46q99 243 114 285 h-4q-64 -119 -137.5 -202.5t-141.5 -83.5q-53 0 -53 50q0 35 19 87l60 171q27 76 27 94q0 14 -15 14zM207 552l202 180q56 -114 117 -176q0 -10 -9 -19t-27 -9q-40 0 -66 51t-29 107l-132 -158z" />
<glyph unicode="&#xfc;" horiz-adv-x="496" d="M145 400q-29 0 -86 -82l-15 10q74 138 158 138q38 0 38 -39q0 -37 -34 -135l-60 -172q-12 -33 -12 -50q0 -19 15 -19q47 0 114.5 80t114.5 177.5t47 149.5q10 8 34 8q38 0 38 -36q0 -11 -5 -28l-94 -289q-7 -23 -7 -32q0 -28 69 -28v-22q-97 -4 -184 -46q99 243 114 285 h-4q-64 -119 -137.5 -202.5t-141.5 -83.5q-53 0 -53 50q0 35 19 87l60 171q27 76 27 94q0 14 -15 14zM268 556q-20 0 -32 12.5t-12 31.5q0 23 17 42t42 19q19 0 31 -12.5t12 -31.5q0 -23 -17 -42t-41 -19zM454 556q-20 0 -32 12.5t-12 31.5q0 23 17 42t42 19q19 0 31 -12.5 t12 -31.5q0 -23 -17.5 -42t-40.5 -19z" />
<glyph unicode="&#xfd;" horiz-adv-x="488" d="M503 396q0 -67 -59.5 -176t-145 -211.5t-191 -177t-187.5 -74.5q-30 0 -47.5 14.5t-17.5 38.5q0 43 45 55q10 -32 53 -32q71 0 137 39t85 78q6 13 6 86q0 77 -24 341q-2 23 -12 23q-16 0 -34.5 -25.5t-25 -42t-10.5 -27.5l-16 2q4 26 17.5 59.5t45 66.5t70.5 33 q24 0 32 -16t10 -46q11 -194 11 -401q67 64 121.5 166t54.5 173q0 58 -44 65q4 27 21.5 42.5t40.5 15.5q29 0 46.5 -19.5t17.5 -49.5zM512 694q0 -46 -73 -105t-132 -74l-5 13q93 94 168 207q20 0 31 -13t11 -28z" />
<glyph unicode="&#xfe;" horiz-adv-x="512" d="M353 401q-16 0 -34.5 -5t-29.5 -10l-11 -5l-105 -311q1 -5 3.5 -13.5t18.5 -22t42 -13.5q72 0 133.5 97.5t61.5 186.5q0 96 -79 96zM205 395l77 226q7 21 7 33q0 28 -64 28v22q97 4 184 46l-116 -328q34 17 89 17q62 0 96.5 -34.5t34.5 -89.5q0 -69 -40 -145.5 t-110.5 -131t-145.5 -54.5q-53 0 -71 24l-64 -183q-15 -41 -15 -68q0 -18 11 -28t39 -14l48 -8v-25h-293v25l23 7q43 13 69 41t45 81l183 518q-26 -12 -54.5 -28t-43.5 -26l-16 -11l-9 24q56 43 136 82z" />
<glyph unicode="&#xff;" horiz-adv-x="488" d="M503 396q0 -67 -59.5 -176t-145 -211.5t-191 -177t-187.5 -74.5q-30 0 -47.5 14.5t-17.5 38.5q0 43 45 55q10 -32 53 -32q71 0 137 39t85 78q6 13 6 86q0 77 -24 341q-2 23 -12 23q-16 0 -34.5 -25.5t-25 -42t-10.5 -27.5l-16 2q4 26 17.5 59.5t45 66.5t70.5 33 q24 0 32 -16t10 -46q11 -194 11 -401q67 64 121.5 166t54.5 173q0 58 -44 65q4 27 21.5 42.5t40.5 15.5q29 0 46.5 -19.5t17.5 -49.5zM273 556q-20 0 -32 12.5t-12 31.5q0 23 17 42t42 19q19 0 31 -12.5t12 -31.5q0 -23 -17 -42t-41 -19zM459 556q-20 0 -32 12.5t-12 31.5 q0 23 17 42t42 19q19 0 31 -12.5t12 -31.5q0 -23 -17.5 -42t-40.5 -19z" />
<glyph unicode="&#x100;" d="M360 867q73 -3 138 -3l140 3l-13 -55q-65 3 -138 3l-140 -3zM441 303l-26 294l-163 -294h189zM428 705l67 11l57 -623q2 -28 15 -41t42 -18l32 -5l-7 -29q-54 3 -125 3l-155 -3l7 29l21 5q80 16 74 90l-10 138h-213l-72 -137q-25 -46 -25 -64q0 -21 41 -27l32 -5l-7 -29 q-72 3 -119 3l-120 -3l7 29l21 5q44 10 68 34.5t51 72.5z" />
<glyph unicode="&#x101;" horiz-adv-x="477" d="M374 50q38 0 93 90l15 -10q-23 -54 -62.5 -100.5t-86.5 -46.5q-52 0 -52 57q0 37 30 115h-4q-16 -33 -28 -54t-36 -53t-54.5 -48.5t-66.5 -16.5q-44 0 -66 31.5t-22 82.5q0 80 40 159.5t107 131t139 51.5q39 0 77 -31q6 19 21 38t37 19q21 0 38 -15q-28 -32 -83 -172 t-55 -206q0 -22 19 -22zM159 42q39 0 84.5 58.5t76.5 128t47 127.5q-19 45 -67 45q-75 0 -131.5 -90.5t-56.5 -193.5q0 -40 10.5 -57.5t36.5 -17.5zM256 643q71 -3 136 -3l136 3l-12 -55q-63 3 -136 3l-136 -3z" />
<glyph unicode="&#x102;" d="M621 912h28q-17 -72 -63.5 -113.5t-112.5 -41.5q-54 0 -84.5 28t-30.5 79q0 21 6 48h68q-4 -16 -4 -33q0 -66 70 -66q46 0 79.5 26.5t43.5 72.5zM441 303l-26 294l-163 -294h189zM428 705l67 11l57 -623q2 -28 15 -41t42 -18l32 -5l-7 -29q-54 3 -125 3l-155 -3l7 29 l21 5q80 16 74 90l-10 138h-213l-72 -137q-25 -46 -25 -64q0 -21 41 -27l32 -5l-7 -29q-72 3 -119 3l-120 -3l7 29l21 5q44 10 68 34.5t51 72.5z" />
<glyph unicode="&#x103;" horiz-adv-x="479" d="M374 50q38 0 93 90l15 -10q-23 -54 -62.5 -100.5t-86.5 -46.5q-52 0 -52 57q0 37 30 115h-4q-16 -33 -28 -54t-36 -53t-54.5 -48.5t-66.5 -16.5q-44 0 -66 31.5t-22 82.5q0 80 40 159.5t107 131t139 51.5q39 0 77 -31q6 19 21 38t37 19q21 0 38 -15q-28 -32 -83 -172 t-55 -206q0 -22 19 -22zM159 42q39 0 84.5 58.5t76.5 128t47 127.5q-19 45 -67 45q-75 0 -131.5 -90.5t-56.5 -193.5q0 -40 10.5 -57.5t36.5 -17.5zM518 698h28q-17 -72 -63.5 -113.5t-112.5 -41.5q-54 0 -84.5 28t-30.5 79q0 21 6 48h68q-4 -16 -4 -33q0 -66 70 -66 q46 0 79.5 26.5t43.5 72.5z" />
<glyph unicode="&#x104;" d="M428 705l67 11l57 -623q2 -28 15 -41t42 -18l32 -5l-7 -29q-118 -86 -118 -151q0 -45 53 -45q34 0 51 19q10 -4 10 -17q0 -17 -28 -35.5t-77 -18.5q-38 0 -60.5 18.5t-22.5 52.5q0 32 17.5 62.5t46 53.5t52 37t46.5 25q-44 2 -95 2l-155 -3l7 29l21 5q80 16 74 90 l-10 138h-213l-72 -137q-25 -46 -25 -64q0 -21 41 -27l32 -5l-7 -29q-72 3 -119 3l-120 -3l7 29l21 5q44 10 68 34.5t51 72.5zM441 303l-26 294l-163 -294h189z" />
<glyph unicode="&#x105;" horiz-adv-x="478" d="M379 -194q0 -17 -28 -35.5t-77 -18.5q-38 0 -60.5 18.5t-22.5 52.5q0 87 129 161q-39 6 -39 56q0 37 30 115h-4q-16 -33 -28 -54t-36 -53t-54.5 -48.5t-66.5 -16.5q-44 0 -66 31.5t-22 82.5q0 80 40 159.5t107 131t139 51.5q39 0 77 -31q6 19 21 38t37 19q21 0 38 -15 q-28 -32 -83 -172t-55 -206q0 -22 19 -22q38 0 93 90l15 -10q-30 -80 -100 -132q-117 -87 -117 -149q0 -21 14.5 -33t38.5 -12q34 0 51 19q10 -4 10 -17zM159 42q39 0 84.5 58.5t76.5 128t47 127.5q-19 45 -67 45q-75 0 -131.5 -90.5t-56.5 -193.5q0 -40 10.5 -57.5 t36.5 -17.5z" />
<glyph unicode="&#x106;" horiz-adv-x="679" d="M601 927q6 2 12 2q12 0 20.5 -9t8.5 -23q0 -38 -49.5 -77.5t-94.5 -53.5l-7 9q71 75 110 152zM718 596q0 -34 -22.5 -58t-53.5 -24q-11 0 -21 2t-15 4l-4 3q12 29 12 58q0 38 -33.5 65.5t-101.5 27.5q-103 0 -177.5 -59t-109 -148t-34.5 -194q0 -115 49.5 -182t130.5 -67 q181 0 265 152l26 -7l-65 -147q-23 0 -93 -19t-146 -19q-125 0 -196 73t-71 196q0 93 34.5 177.5t95 147t149 99.5t190.5 37q86 0 138.5 -34.5t52.5 -83.5z" />
<glyph unicode="&#x107;" horiz-adv-x="395" d="M357 349q6 17 6 28q0 41 -51 41q-54 0 -98.5 -51.5t-65.5 -119.5t-21 -131q0 -36 17 -55.5t47 -19.5q82 0 151 96l15 -11q-17 -34 -38.5 -62.5t-61.5 -54t-86 -25.5q-126 0 -126 121q0 82 41.5 165t116.5 139.5t160 56.5q30 0 51.5 -13.5t21.5 -41.5t-19.5 -46t-45.5 -18 q-8 0 -14 2zM543 694q0 -46 -73 -105t-132 -74l-5 13q93 94 168 207q20 0 31 -13t11 -28z" />
<glyph unicode="&#x108;" horiz-adv-x="679" d="M368 780l192 137q68 -81 130 -139q-2 -24 -29 -24q-31 0 -62 34.5t-49 82.5l-133 -120zM718 596q0 -34 -22.5 -58t-53.5 -24q-11 0 -21 2t-15 4l-4 3q12 29 12 58q0 38 -33.5 65.5t-101.5 27.5q-103 0 -177.5 -59t-109 -148t-34.5 -194q0 -115 49.5 -182t130.5 -67 q181 0 265 152l26 -7l-65 -147q-23 0 -93 -19t-146 -19q-125 0 -196 73t-71 196q0 93 34.5 177.5t95 147t149 99.5t190.5 37q86 0 138.5 -34.5t52.5 -83.5z" />
<glyph unicode="&#x109;" horiz-adv-x="395" d="M357 349q6 17 6 28q0 41 -51 41q-54 0 -98.5 -51.5t-65.5 -119.5t-21 -131q0 -36 17 -55.5t47 -19.5q82 0 151 96l15 -11q-17 -34 -38.5 -62.5t-61.5 -54t-86 -25.5q-126 0 -126 121q0 82 41.5 165t116.5 139.5t160 56.5q30 0 51.5 -13.5t21.5 -41.5t-19.5 -46t-45.5 -18 q-8 0 -14 2zM208 552l202 180q56 -114 117 -176q0 -10 -9.5 -19t-26.5 -9q-40 0 -66 51t-29 107l-132 -158z" />
<glyph unicode="&#x10a;" horiz-adv-x="679" d="M521 785q-23 0 -37.5 14.5t-14.5 37.5q0 28 20.5 51t50.5 23q23 0 37 -15t14 -38q0 -27 -20.5 -50t-49.5 -23zM718 596q0 -34 -22.5 -58t-53.5 -24q-11 0 -21 2t-15 4l-4 3q12 29 12 58q0 38 -33.5 65.5t-101.5 27.5q-103 0 -177.5 -59t-109 -148t-34.5 -194 q0 -115 49.5 -182t130.5 -67q181 0 265 152l26 -7l-65 -147q-23 0 -93 -19t-146 -19q-125 0 -196 73t-71 196q0 93 34.5 177.5t95 147t149 99.5t190.5 37q86 0 138.5 -34.5t52.5 -83.5z" />
<glyph unicode="&#x10b;" horiz-adv-x="395" d="M357 349q6 17 6 28q0 41 -51 41q-54 0 -98.5 -51.5t-65.5 -119.5t-21 -131q0 -36 17 -55.5t47 -19.5q82 0 151 96l15 -11q-17 -34 -38.5 -62.5t-61.5 -54t-86 -25.5q-126 0 -126 121q0 82 41.5 165t116.5 139.5t160 56.5q30 0 51.5 -13.5t21.5 -41.5t-19.5 -46t-45.5 -18 q-8 0 -14 2zM385 563q-23 0 -37.5 14.5t-14.5 37.5q0 28 20.5 51t50.5 23q23 0 37 -15t14 -38q0 -27 -20.5 -50t-49.5 -23z" />
<glyph unicode="&#x10c;" horiz-adv-x="679" d="M534 751l-130 131l63 35l77 -120q24 42 66.5 80t79.5 38q36 0 36 -28zM718 596q0 -34 -22.5 -58t-53.5 -24q-11 0 -21 2t-15 4l-4 3q12 29 12 58q0 38 -33.5 65.5t-101.5 27.5q-103 0 -177.5 -59t-109 -148t-34.5 -194q0 -115 49.5 -182t130.5 -67q181 0 265 152l26 -7 l-65 -147q-23 0 -93 -19t-146 -19q-125 0 -196 73t-71 196q0 93 34.5 177.5t95 147t149 99.5t190.5 37q86 0 138.5 -34.5t52.5 -83.5z" />
<glyph unicode="&#x10d;" horiz-adv-x="395" d="M357 349q6 17 6 28q0 41 -51 41q-54 0 -98.5 -51.5t-65.5 -119.5t-21 -131q0 -36 17 -55.5t47 -19.5q82 0 151 96l15 -11q-17 -34 -38.5 -62.5t-61.5 -54t-86 -25.5q-126 0 -126 121q0 82 41.5 165t116.5 139.5t160 56.5q30 0 51.5 -13.5t21.5 -41.5t-19.5 -46t-45.5 -18 q-8 0 -14 2zM382 533l-117 176l66 23l61 -153q26 54 70.5 103.5t84.5 49.5q18 0 28 -8t10 -18q-42 -29 -92.5 -72t-80.5 -72z" />
<glyph unicode="&#x10e;" horiz-adv-x="804" d="M513 751l-130 131l63 35l77 -120q24 42 66.5 80t79.5 38q36 0 36 -28zM341 659l-122 -534q-6 -24 -6 -40q0 -51 81 -51q173 0 286.5 96.5t113.5 265.5q0 124 -70 197t-206 73q-42 0 -77 -7zM140 3l-132 -3l7 29l21 5q41 10 62.5 32.5t31.5 65.5l107 469q4 20 4 29 q0 17 -11 24.5t-35 11.5l-32 5l7 29q29 -3 117 -3q25 0 79.5 1.5t72.5 1.5q166 0 260.5 -81t94.5 -203q0 -191 -132.5 -303.5t-354.5 -112.5q-28 0 -82.5 1.5t-84.5 1.5z" />
<glyph unicode="&#x10f;" horiz-adv-x="535" d="M164 43q42 0 93.5 51t88 131t36.5 152q0 48 -40 48q-59 0 -114 -58t-85 -132t-30 -130q0 -62 51 -62zM614 750l-207 -586q-25 -70 -25 -93q0 -21 20 -21q38 0 106 96l15 -11q-31 -59 -74.5 -105.5t-92.5 -46.5q-25 0 -37 12.5t-12 45.5q0 29 30 114h-4q-13 -26 -30 -51.5 t-43.5 -54.5t-60.5 -47t-71 -18q-93 0 -93 102q0 82 43.5 169.5t120 149t159.5 61.5q45 0 67 -26l62 181q7 21 7 33q0 28 -64 28v22q97 4 184 46zM713 774q25 0 40 -18t15 -46q0 -72 -55.5 -127.5t-130.5 -71.5l-3 15q44 16 75 49.5t31 77.5q0 47 -33 64q5 24 21.5 40.5 t39.5 16.5z" />
<glyph unicode="&#x110;" horiz-adv-x="804" d="M140 3l-132 -3l7 29l21 5q41 10 62.5 32.5t31.5 65.5l43 190l-107 -2l12 56q56 -1 107 -2l52 227q4 20 4 29q0 17 -11 24.5t-35 11.5l-32 5l7 29q29 -3 117 -3q25 0 79.5 1.5t72.5 1.5q166 0 260.5 -81t94.5 -203q0 -191 -132.5 -303.5t-354.5 -112.5q-28 0 -82.5 1.5 t-84.5 1.5zM341 659l-66 -286q1 0 76 1.5t97 1.5l-13 -56q-14 0 -55.5 0.5t-77.5 1t-38 0.5l-45 -197q-6 -24 -6 -40q0 -51 81 -51q173 0 286.5 96.5t113.5 265.5q0 124 -70 197t-206 73q-42 0 -77 -7z" />
<glyph unicode="&#x111;" horiz-adv-x="526" d="M614 750l-55 -155l83 2l-16 -45q-42 1 -81 2l-138 -390q-25 -70 -25 -93q0 -21 20 -21q38 0 106 96l15 -11q-31 -59 -74.5 -105.5t-92.5 -46.5q-25 0 -37 12.5t-12 45.5q0 29 30 114h-4q-13 -26 -30 -51.5t-43.5 -54.5t-60.5 -47t-71 -18q-93 0 -93 102q0 82 43.5 169.5 t120 149t159.5 61.5q45 0 67 -26l39 115l-191 -3l13 45q108 -2 192 -2l9 26q7 21 7 33q0 28 -64 28v22q97 4 184 46zM164 43q42 0 93.5 51t88 131t36.5 152q0 48 -40 48q-59 0 -114 -58t-85 -132t-30 -130q0 -62 51 -62z" />
<glyph unicode="&#x112;" horiz-adv-x="565" d="M323 867q73 -3 138 -3l140 3l-13 -55q-65 3 -138 3l-140 -3zM282 34q147 0 234 154l21 -3l-62 -185q-249 3 -335 3l-132 -3l7 29l21 5q41 10 62.5 32.5t31.5 65.5l107 469q4 20 4 29q0 17 -11 24.5t-35 11.5l-32 5l7 29q52 -3 140 -3l319 3l-43 -164h-20q0 61 -35.5 95.5 t-107.5 34.5q-48 0 -78 -7l-67 -281h77q41 0 65.5 19t43.5 58l19 39h26q-25 -71 -38 -128q-6 -28 -10.5 -55.5t-6.5 -40.5l-1 -14h-25l-1 25q-2 58 -60 58h-99l-51 -214q-6 -24 -6 -40q0 -27 16.5 -39t54.5 -12z" />
<glyph unicode="&#x113;" horiz-adv-x="404" d="M346 390q0 36 -34 36q-30 0 -57.5 -20t-48 -51.5t-34 -59t-23.5 -54.5q197 58 197 149zM423 397q0 -57 -69.5 -101.5t-212.5 -81.5q-15 -51 -15 -98q0 -32 16.5 -53.5t52.5 -21.5q42 0 84.5 31t65.5 65l15 -11q-9 -17 -21.5 -34t-38 -45t-60.5 -45.5t-74 -17.5 q-59 0 -90.5 31.5t-31.5 89.5q0 43 13 92t40 97t62.5 86.5t84 62t102.5 23.5q39 0 58 -20.5t19 -48.5zM236 643q71 -3 136 -3l136 3l-12 -55q-63 3 -136 3l-136 -3z" />
<glyph unicode="&#x114;" horiz-adv-x="565" d="M589 912h28q-17 -72 -63.5 -113.5t-112.5 -41.5q-54 0 -84.5 28t-30.5 79q0 21 6 48h68q-4 -16 -4 -33q0 -66 70 -66q46 0 79.5 26.5t43.5 72.5zM282 34q147 0 234 154l21 -3l-62 -185q-249 3 -335 3l-132 -3l7 29l21 5q41 10 62.5 32.5t31.5 65.5l107 469q4 20 4 29 q0 17 -11 24.5t-35 11.5l-32 5l7 29q52 -3 140 -3l319 3l-43 -164h-20q0 61 -35.5 95.5t-107.5 34.5q-48 0 -78 -7l-67 -281h77q41 0 65.5 19t43.5 58l19 39h26q-25 -71 -38 -128q-6 -28 -10.5 -55.5t-6.5 -40.5l-1 -14h-25l-1 25q-2 58 -60 58h-99l-51 -214q-6 -24 -6 -40 q0 -27 16.5 -39t54.5 -12z" />
<glyph unicode="&#x115;" horiz-adv-x="404" d="M346 390q0 36 -34 36q-30 0 -57.5 -20t-48 -51.5t-34 -59t-23.5 -54.5q197 58 197 149zM423 397q0 -57 -69.5 -101.5t-212.5 -81.5q-15 -51 -15 -98q0 -32 16.5 -53.5t52.5 -21.5q42 0 84.5 31t65.5 65l15 -11q-9 -17 -21.5 -34t-38 -45t-60.5 -45.5t-74 -17.5 q-59 0 -90.5 31.5t-31.5 89.5q0 43 13 92t40 97t62.5 86.5t84 62t102.5 23.5q39 0 58 -20.5t19 -48.5zM504 698h28q-17 -72 -63.5 -113.5t-112.5 -41.5q-54 0 -84.5 28t-30.5 79q0 21 6 48h68q-4 -16 -4 -33q0 -66 70 -66q46 0 79.5 26.5t43.5 72.5z" />
<glyph unicode="&#x116;" horiz-adv-x="565" d="M446 785q-23 0 -37.5 14.5t-14.5 37.5q0 28 20.5 51t50.5 23q23 0 37 -15t14 -38q0 -27 -20.5 -50t-49.5 -23zM282 34q147 0 234 154l21 -3l-62 -185q-249 3 -335 3l-132 -3l7 29l21 5q41 10 62.5 32.5t31.5 65.5l107 469q4 20 4 29q0 17 -11 24.5t-35 11.5l-32 5l7 29 q52 -3 140 -3l319 3l-43 -164h-20q0 61 -35.5 95.5t-107.5 34.5q-48 0 -78 -7l-67 -281h77q41 0 65.5 19t43.5 58l19 39h26q-25 -71 -38 -128q-6 -28 -10.5 -55.5t-6.5 -40.5l-1 -14h-25l-1 25q-2 58 -60 58h-99l-51 -214q-6 -24 -6 -40q0 -27 16.5 -39t54.5 -12z" />
<glyph unicode="&#x117;" horiz-adv-x="404" d="M346 390q0 36 -34 36q-30 0 -57.5 -20t-48 -51.5t-34 -59t-23.5 -54.5q197 58 197 149zM423 397q0 -57 -69.5 -101.5t-212.5 -81.5q-15 -51 -15 -98q0 -32 16.5 -53.5t52.5 -21.5q42 0 84.5 31t65.5 65l15 -11q-9 -17 -21.5 -34t-38 -45t-60.5 -45.5t-74 -17.5 q-59 0 -90.5 31.5t-31.5 89.5q0 43 13 92t40 97t62.5 86.5t84 62t102.5 23.5q39 0 58 -20.5t19 -48.5zM373 563q-23 0 -37.5 14.5t-14.5 37.5q0 28 20.5 51t50.5 23q23 0 37 -15t14 -38q0 -27 -20.5 -50t-49.5 -23z" />
<glyph unicode="&#x118;" horiz-adv-x="565" d="M282 34q147 0 234 154l21 -3l-62 -185q-116 -84 -116 -149q0 -45 52 -45q33 0 52 19q9 -5 9 -17q0 -17 -28 -35.5t-77 -18.5q-38 0 -60.5 18.5t-22.5 52.5q0 31 17 60t44 51.5t50.5 37.5t46.5 26q-210 3 -302 3l-132 -3l7 29l21 5q41 10 62.5 32.5t31.5 65.5l107 469 q4 20 4 29q0 17 -11 24.5t-35 11.5l-32 5l7 29q52 -3 140 -3l319 3l-43 -164h-20q0 61 -35.5 95.5t-107.5 34.5q-48 0 -78 -7l-67 -281h77q41 0 65.5 19t43.5 58l19 39h26q-25 -71 -38 -128q-6 -28 -10.5 -55.5t-6.5 -40.5l-1 -14h-25l-1 25q-2 58 -60 58h-99l-51 -214 q-6 -24 -6 -40q0 -27 16.5 -39t54.5 -12z" />
<glyph unicode="&#x119;" horiz-adv-x="404" d="M228 -194q0 -17 -28 -35.5t-77 -18.5q-38 0 -60.5 18.5t-22.5 52.5q0 87 129 161q-61 0 -93 31.5t-32 89.5q0 43 13 92t40 97t62.5 86.5t84 62t102.5 23.5q39 0 58 -20.5t19 -48.5q0 -57 -69.5 -101.5t-212.5 -81.5q-15 -51 -15 -98q0 -32 16.5 -53.5t52.5 -21.5 q42 0 84.5 31t65.5 65l15 -11q-21 -43 -64.5 -84.5t-82.5 -67.5t-69 -59.5t-30 -65.5q0 -45 53 -45q34 0 51 19q10 -4 10 -17zM346 390q0 36 -34 36q-30 0 -57.5 -20t-48 -51.5t-34 -59t-23.5 -54.5q197 58 197 149z" />
<glyph unicode="&#x11a;" horiz-adv-x="565" d="M437 751l-130 131l63 35l77 -120q24 42 66.5 80t79.5 38q36 0 36 -28zM282 34q147 0 234 154l21 -3l-62 -185q-249 3 -335 3l-132 -3l7 29l21 5q41 10 62.5 32.5t31.5 65.5l107 469q4 20 4 29q0 17 -11 24.5t-35 11.5l-32 5l7 29q52 -3 140 -3l319 3l-43 -164h-20 q0 61 -35.5 95.5t-107.5 34.5q-48 0 -78 -7l-67 -281h77q41 0 65.5 19t43.5 58l19 39h26q-25 -71 -38 -128q-6 -28 -10.5 -55.5t-6.5 -40.5l-1 -14h-25l-1 25q-2 58 -60 58h-99l-51 -214q-6 -24 -6 -40q0 -27 16.5 -39t54.5 -12z" />
<glyph unicode="&#x11b;" horiz-adv-x="405" d="M346 390q0 36 -34 36q-30 0 -57.5 -20t-48 -51.5t-34 -59t-23.5 -54.5q197 58 197 149zM423 397q0 -57 -69.5 -101.5t-212.5 -81.5q-15 -51 -15 -98q0 -32 16.5 -53.5t52.5 -21.5q42 0 84.5 31t65.5 65l15 -11q-9 -17 -21.5 -34t-38 -45t-60.5 -45.5t-74 -17.5 q-59 0 -90.5 31.5t-31.5 89.5q0 43 13 92t40 97t62.5 86.5t84 62t102.5 23.5q39 0 58 -20.5t19 -48.5zM358 533l-117 176l66 23l61 -153q26 54 70.5 103.5t84.5 49.5q18 0 28 -8t10 -18q-42 -29 -92.5 -72t-80.5 -72z" />
<glyph unicode="&#x11c;" horiz-adv-x="738" d="M368 780l192 137q68 -81 130 -139q-2 -24 -29 -24q-31 0 -62 34.5t-49 82.5l-133 -120zM666 523l-16 2q0 29 -5 51.5t-20.5 47t-50 38t-86.5 13.5q-99 0 -175.5 -57t-116 -147.5t-39.5 -196.5q0 -111 56 -181t146 -70q148 0 174 105l21 83q3 9 3 17q0 18 -11.5 27 t-39.5 13l-39 5l7 29h258l-6 -29l-15 -5q-57 -19 -80 -96l-37 -128q-23 0 -60.5 -15t-88.5 -30t-108 -15q-134 0 -207 72.5t-73 216.5q0 184 134.5 312.5t331.5 128.5q44 0 106.5 -14t86.5 -14z" />
<glyph unicode="&#x11d;" horiz-adv-x="438" d="M267 437q-36 0 -61 -35.5t-34.5 -76t-9.5 -77.5q0 -89 53 -89q36 0 61.5 35t35.5 76t10 78q0 89 -55 89zM156 -226q72 0 106.5 28.5t34.5 65.5q0 32 -21.5 49t-75.5 33q-33 10 -49 15.5t-38.5 17.5t-32.5 28t-10 38q0 37 27.5 59t63.5 27q-71 21 -71 106t59.5 155 t139.5 70q44 0 75 -28q28 -6 51 -6q41 0 70 20q17 -13 17 -32q0 -17 -11.5 -28.5t-33.5 -11.5q-19 0 -44.5 13.5t-28.5 14.5q10 -22 10 -59q0 -81 -53.5 -146t-128.5 -72q-74 -13 -74 -53q0 -14 14.5 -25t31.5 -17t53 -17q72 -21 102 -52t30 -79q0 -66 -63 -108.5 t-163 -42.5q-84 0 -134.5 35.5t-50.5 93.5q0 38 21.5 61t53.5 23q17 0 27.5 -8t12.5 -19q-47 -8 -47 -57q0 -38 35 -65t95 -27zM169 552l202 180q56 -114 117 -176q0 -10 -9 -19t-27 -9q-40 0 -66 51t-29 107l-132 -158z" />
<glyph unicode="&#x11e;" horiz-adv-x="737" d="M686 912h28q-17 -72 -63.5 -113.5t-112.5 -41.5q-54 0 -84.5 28t-30.5 79q0 21 6 48h68q-4 -16 -4 -33q0 -66 70 -66q46 0 79.5 26.5t43.5 72.5zM666 523l-16 2q0 29 -5 51.5t-20.5 47t-50 38t-86.5 13.5q-99 0 -175.5 -57t-116 -147.5t-39.5 -196.5q0 -111 56 -181 t146 -70q148 0 174 105l21 83q3 9 3 17q0 18 -11.5 27t-39.5 13l-39 5l7 29h258l-6 -29l-15 -5q-57 -19 -80 -96l-37 -128q-23 0 -60.5 -15t-88.5 -30t-108 -15q-134 0 -207 72.5t-73 216.5q0 184 134.5 312.5t331.5 128.5q44 0 106.5 -14t86.5 -14z" />
<glyph unicode="&#x11f;" horiz-adv-x="438" d="M267 437q-36 0 -61 -35.5t-34.5 -76t-9.5 -77.5q0 -89 53 -89q36 0 61.5 35t35.5 76t10 78q0 89 -55 89zM156 -226q72 0 106.5 28.5t34.5 65.5q0 32 -21.5 49t-75.5 33q-33 10 -49 15.5t-38.5 17.5t-32.5 28t-10 38q0 37 27.5 59t63.5 27q-71 21 -71 106t59.5 155 t139.5 70q44 0 75 -28q28 -6 51 -6q41 0 70 20q17 -13 17 -32q0 -17 -11.5 -28.5t-33.5 -11.5q-19 0 -44.5 13.5t-28.5 14.5q10 -22 10 -59q0 -81 -53.5 -146t-128.5 -72q-74 -13 -74 -53q0 -14 14.5 -25t31.5 -17t53 -17q72 -21 102 -52t30 -79q0 -66 -63 -108.5 t-163 -42.5q-84 0 -134.5 35.5t-50.5 93.5q0 38 21.5 61t53.5 23q17 0 27.5 -8t12.5 -19q-47 -8 -47 -57q0 -38 35 -65t95 -27zM502 698h28q-17 -72 -63.5 -113.5t-112.5 -41.5q-54 0 -84.5 28t-30.5 79q0 21 6 48h68q-4 -16 -4 -33q0 -66 70 -66q46 0 79.5 26.5t43.5 72.5z " />
<glyph unicode="&#x120;" horiz-adv-x="737" d="M557 785q-23 0 -37.5 14.5t-14.5 37.5q0 28 20.5 51t50.5 23q23 0 37 -15t14 -38q0 -27 -20.5 -50t-49.5 -23zM666 523l-16 2q0 29 -5 51.5t-20.5 47t-50 38t-86.5 13.5q-99 0 -175.5 -57t-116 -147.5t-39.5 -196.5q0 -111 56 -181t146 -70q148 0 174 105l21 83q3 9 3 17 q0 18 -11.5 27t-39.5 13l-39 5l7 29h258l-6 -29l-15 -5q-57 -19 -80 -96l-37 -128q-23 0 -60.5 -15t-88.5 -30t-108 -15q-134 0 -207 72.5t-73 216.5q0 184 134.5 312.5t331.5 128.5q44 0 106.5 -14t86.5 -14z" />
<glyph unicode="&#x121;" horiz-adv-x="437" d="M267 437q-36 0 -61 -35.5t-34.5 -76t-9.5 -77.5q0 -89 53 -89q36 0 61.5 35t35.5 76t10 78q0 89 -55 89zM156 -226q72 0 106.5 28.5t34.5 65.5q0 32 -21.5 49t-75.5 33q-33 10 -49 15.5t-38.5 17.5t-32.5 28t-10 38q0 37 27.5 59t63.5 27q-71 21 -71 106t59.5 155 t139.5 70q44 0 75 -28q28 -6 51 -6q41 0 70 20q17 -13 17 -32q0 -17 -11.5 -28.5t-33.5 -11.5q-19 0 -44.5 13.5t-28.5 14.5q10 -22 10 -59q0 -81 -53.5 -146t-128.5 -72q-74 -13 -74 -53q0 -14 14.5 -25t31.5 -17t53 -17q72 -21 102 -52t30 -79q0 -66 -63 -108.5 t-163 -42.5q-84 0 -134.5 35.5t-50.5 93.5q0 38 21.5 61t53.5 23q17 0 27.5 -8t12.5 -19q-47 -8 -47 -57q0 -38 35 -65t95 -27zM344 563q-23 0 -37.5 14.5t-14.5 37.5q0 28 20.5 51t50.5 23q23 0 37 -15t14 -38q0 -27 -20.5 -50t-49.5 -23z" />
<glyph unicode="&#x122;" horiz-adv-x="737" d="M666 523l-16 2q0 29 -5 51.5t-20.5 47t-50 38t-86.5 13.5q-99 0 -175.5 -57t-116 -147.5t-39.5 -196.5q0 -111 56 -181t146 -70q148 0 174 105l21 83q3 9 3 17q0 18 -11.5 27t-39.5 13l-39 5l7 29h258l-6 -29l-15 -5q-57 -19 -80 -96l-37 -128q-23 0 -60.5 -15t-88.5 -30 t-108 -15q-134 0 -207 72.5t-73 216.5q0 184 134.5 312.5t331.5 128.5q44 0 106.5 -14t86.5 -14zM297 -62q24 0 39.5 -15t15.5 -40q0 -64 -60.5 -109t-129.5 -54l-2 18q45 12 70.5 37.5t25.5 53.5q0 33 -35 48q6 27 27 44t49 17z" />
<glyph unicode="&#x123;" horiz-adv-x="438" d="M267 437q-36 0 -61 -35.5t-34.5 -76t-9.5 -77.5q0 -89 53 -89q36 0 61.5 35t35.5 76t10 78q0 89 -55 89zM156 -226q72 0 106.5 28.5t34.5 65.5q0 32 -21.5 49t-75.5 33q-33 10 -49 15.5t-38.5 17.5t-32.5 28t-10 38q0 37 27.5 59t63.5 27q-71 21 -71 106t59.5 155 t139.5 70q44 0 75 -28q28 -6 51 -6q41 0 70 20q17 -13 17 -32q0 -17 -11.5 -28.5t-33.5 -11.5q-19 0 -44.5 13.5t-28.5 14.5q10 -22 10 -59q0 -81 -53.5 -146t-128.5 -72q-74 -13 -74 -53q0 -14 14.5 -25t31.5 -17t53 -17q72 -21 102 -52t30 -79q0 -66 -63 -108.5 t-163 -42.5q-84 0 -134.5 35.5t-50.5 93.5q0 38 21.5 61t53.5 23q17 0 27.5 -8t12.5 -19q-47 -8 -47 -57q0 -38 35 -65t95 -27zM348 526q-24 0 -39.5 15t-15.5 40q0 64 60.5 109t129.5 54l2 -18q-45 -12 -70.5 -37.5t-25.5 -53.5q0 -33 35 -48q-6 -27 -27 -44t-49 -17z" />
<glyph unicode="&#x124;" horiz-adv-x="825" d="M392 780l192 137q68 -81 130 -139q-2 -24 -29 -24q-31 0 -62 34.5t-49 82.5l-133 -120zM707 34l32 -5l-7 -29q-54 3 -140 3l-132 -3l7 29l21 5q41 10 62.5 32.5t31.5 65.5l48 210h-362l-55 -243q-4 -20 -4 -29q0 -17 11 -24.5t35 -11.5l32 -5l-7 -29q-54 3 -140 3 l-132 -3l7 29l21 5q41 10 62.5 32.5t31.5 65.5l107 469q4 20 4 29q0 17 -11 24.5t-35 11.5l-32 5l7 29q52 -3 140 -3l132 3l-7 -29l-21 -5q-41 -10 -62.5 -32.5t-31.5 -65.5l-42 -185h361l50 218q4 20 4 29q0 17 -11 24.5t-35 11.5l-32 5l7 29q52 -3 140 -3l132 3l-7 -29 l-21 -5q-41 -10 -62.5 -32.5t-31.5 -65.5l-107 -469q-4 -20 -4 -29q0 -17 11 -24.5t35 -11.5z" />
<glyph unicode="&#x125;" horiz-adv-x="508" d="M340 820l192 137q68 -81 130 -139q-2 -24 -29 -24q-31 0 -62 34.5t-49 82.5l-133 -120zM375 750q-63 -165 -119.5 -313.5t-76.5 -201t-21 -55.5h4q59 118 134 202t145 84q53 0 53 -50q0 -34 -19 -88l-60 -170q-27 -76 -27 -94q0 -14 15 -14q29 0 86 82l15 -11 q-30 -56 -71 -96.5t-87 -40.5q-38 0 -38 38t34 136l60 171q12 34 12 50q0 20 -15 20q-47 0 -114.5 -80t-114.5 -177.5t-47 -149.5q-12 -8 -36 -8q-17 0 -27.5 9.5t-10.5 25.5q0 13 5 29l194 573q7 21 7 33q0 28 -64 28v22q97 4 184 46z" />
<glyph unicode="&#x126;" horiz-adv-x="851" d="M132 531q37 -1 90 -1l16 71q8 33 -2 46.5t-41 18.5l-32 5l7 29q62 -3 140 -3l143 3l-7 -29l-26 -5q-75 -14 -94 -98l-9 -39q75 -1 181 -1q115 0 196 1l17 72q8 33 -2 46.5t-41 18.5l-32 5l7 29q62 -3 140 -3l143 3l-7 -29l-26 -5q-34 -6 -59 -31t-35 -67l-9 -38l96 1 l-11 -46q-40 0 -95 1l-89 -387q-8 -33 2 -47t41 -18l37 -5l-7 -29q-67 3 -145 3l-138 -3l7 29l27 5q68 12 87 98l48 209h-376l-56 -242q-8 -33 2 -47t41 -18l37 -5l-7 -29q-67 3 -145 3l-138 -3l7 29l27 5q68 12 87 98l82 354l-90 -1zM283 382h377l24 105q-46 0 -115 0.5 t-80 0.5q-9 0 -73.5 -0.5t-108.5 -0.5z" />
<glyph unicode="&#x127;" horiz-adv-x="508" d="M375 750l-59 -156l205 3l-11 -45l-209 3q-142 -372 -143 -375h4q59 118 134 202t145 84q53 0 53 -50q0 -34 -19 -88l-60 -170q-27 -76 -27 -94q0 -14 15 -14q29 0 86 82l15 -11q-30 -56 -71 -96.5t-87 -40.5q-38 0 -38 38t34 136l60 171q12 34 12 50q0 20 -15 20 q-47 0 -114.5 -80t-114.5 -177.5t-47 -149.5q-12 -8 -36 -8q-17 0 -27.5 9.5t-10.5 25.5q0 12 5 29l171 505l-93 -1l11 45q51 -2 96 -3l9 27q7 21 7 33q0 28 -64 28v22q97 4 184 46z" />
<glyph unicode="&#x128;" horiz-adv-x="373" d="M288 889q32 0 67 -24t60 -24q52 0 81 51l11 -16q-37 -95 -123 -95q-30 0 -63.5 24t-59.5 24q-52 0 -80 -51l-12 16q17 43 48 69t71 26zM255 34l32 -5l-7 -29q-54 3 -140 3l-132 -3l7 29l21 5q41 10 62.5 32.5t31.5 65.5l107 469q4 20 4 29q0 17 -11 24.5t-35 11.5l-32 5 l7 29q52 -3 140 -3l132 3l-7 -29l-21 -5q-41 -10 -62.5 -32.5t-31.5 -65.5l-107 -469q-4 -20 -4 -29q0 -17 11 -24.5t35 -11.5z" />
<glyph unicode="&#x129;" horiz-adv-x="279" d="M274 465l-118 -307q-27 -72 -27 -94q0 -14 13 -14q17 0 58 35.5t59 61.5l15 -10q-28 -52 -84 -102.5t-103 -50.5q-38 0 -38 38q0 42 25 110l73 205q7 19 7 32q0 16 -15 22t-49 6v22q97 4 184 46zM229 677q31 0 66 -24t61 -24q52 0 81 51l11 -16q-37 -95 -123 -95 q-30 0 -63.5 24t-59.5 24q-52 0 -80 -51l-12 16q17 43 48 69t71 26z" />
<glyph unicode="&#x12a;" horiz-adv-x="373" d="M209 867q73 -3 138 -3l140 3l-13 -55q-65 3 -138 3l-140 -3zM255 34l32 -5l-7 -29q-54 3 -140 3l-132 -3l7 29l21 5q41 10 62.5 32.5t31.5 65.5l107 469q4 20 4 29q0 17 -11 24.5t-35 11.5l-32 5l7 29q52 -3 140 -3l132 3l-7 -29l-21 -5q-41 -10 -62.5 -32.5t-31.5 -65.5 l-107 -469q-4 -20 -4 -29q0 -17 11 -24.5t35 -11.5z" />
<glyph unicode="&#x12b;" horiz-adv-x="279" d="M274 465l-118 -307q-27 -72 -27 -94q0 -14 13 -14q17 0 58 35.5t59 61.5l15 -10q-28 -52 -84 -102.5t-103 -50.5q-38 0 -38 38q0 42 25 110l73 205q7 19 7 32q0 16 -15 22t-49 6v22q97 4 184 46zM137 643q71 -3 136 -3l136 3l-12 -55q-63 3 -136 3l-136 -3z" />
<glyph unicode="&#x12c;" horiz-adv-x="373" d="M468 912h28q-17 -72 -63.5 -113.5t-112.5 -41.5q-54 0 -84.5 28t-30.5 79q0 21 6 48h68q-4 -16 -4 -33q0 -66 70 -66q46 0 79.5 26.5t43.5 72.5zM255 34l32 -5l-7 -29q-54 3 -140 3l-132 -3l7 29l21 5q41 10 62.5 32.5t31.5 65.5l107 469q4 20 4 29q0 17 -11 24.5 t-35 11.5l-32 5l7 29q52 -3 140 -3l132 3l-7 -29l-21 -5q-41 -10 -62.5 -32.5t-31.5 -65.5l-107 -469q-4 -20 -4 -29q0 -17 11 -24.5t35 -11.5z" />
<glyph unicode="&#x12d;" horiz-adv-x="280" d="M274 465l-118 -307q-27 -72 -27 -94q0 -14 13 -14q17 0 58 35.5t59 61.5l15 -10q-28 -52 -84 -102.5t-103 -50.5q-38 0 -38 38q0 42 25 110l73 205q7 19 7 32q0 16 -15 22t-49 6v22q97 4 184 46zM422 698h28q-17 -72 -63.5 -113.5t-112.5 -41.5q-54 0 -84.5 28t-30.5 79 q0 21 6 48h68q-4 -16 -4 -33q0 -66 70 -66q46 0 79.5 26.5t43.5 72.5z" />
<glyph unicode="&#x12e;" horiz-adv-x="378" d="M283 -192q0 -17 -27.5 -35.5t-77.5 -18.5q-38 0 -60.5 18.5t-22.5 52.5q0 31 17 61t44.5 52.5t50.5 37t47 25.5q-52 2 -108 2l-138 -3l7 29l27 5q67 12 88 98l108 469q8 33 -2 46.5t-41 18.5l-32 5l7 29q62 -3 140 -3l138 3l-7 -29l-21 -5q-76 -18 -94 -98l-108 -469 q-8 -33 2 -46.5t41 -18.5l32 -5l-7 -29q-116 -84 -116 -149q0 -45 52 -45q33 0 52 19q9 -5 9 -17z" />
<glyph unicode="&#x12f;" horiz-adv-x="279" d="M134 -194q0 -17 -28 -35.5t-77 -18.5q-38 0 -60.5 18.5t-22.5 52.5q0 87 130 162q-27 3 -27 37q0 42 25 110l73 205q7 19 7 32q0 16 -15 22t-49 6v22q97 4 184 46l-118 -307q-27 -72 -27 -94q0 -14 13 -14q17 0 58 35.5t59 61.5l15 -10q-21 -37 -56 -72t-67.5 -60.5 t-63 -50.5t-49 -51.5t-18.5 -53.5q0 -45 53 -45q34 0 51 19q10 -4 10 -17zM281 610q-19 0 -30.5 12t-11.5 31q0 23 16.5 42t40.5 19q19 0 30.5 -12t11.5 -31q0 -23 -16.5 -42t-40.5 -19z" />
<glyph unicode="&#x130;" horiz-adv-x="373" d="M338 785q-23 0 -37.5 14.5t-14.5 37.5q0 28 20.5 51t50.5 23q23 0 37 -15t14 -38q0 -27 -20.5 -50t-49.5 -23zM255 34l32 -5l-7 -29q-54 3 -140 3l-132 -3l7 29l21 5q41 10 62.5 32.5t31.5 65.5l107 469q4 20 4 29q0 17 -11 24.5t-35 11.5l-32 5l7 29q52 -3 140 -3l132 3 l-7 -29l-21 -5q-41 -10 -62.5 -32.5t-31.5 -65.5l-107 -469q-4 -20 -4 -29q0 -17 11 -24.5t35 -11.5z" />
<glyph unicode="&#x131;" horiz-adv-x="279" d="M274 465l-118 -307q-27 -72 -27 -94q0 -14 13 -14q17 0 58 35.5t59 61.5l15 -10q-28 -52 -84 -102.5t-103 -50.5q-38 0 -38 38q0 42 25 110l73 205q7 19 7 32q0 16 -15 22t-49 6v22q97 4 184 46z" />
<glyph unicode="&#x132;" horiz-adv-x="920" d="M255 34l32 -5l-7 -29q-54 3 -140 3l-132 -3l7 29l21 5q41 10 62.5 32.5t31.5 65.5l107 469q4 20 4 29q0 17 -11 24.5t-35 11.5l-32 5l7 29q52 -3 140 -3l132 3l-7 -29l-21 -5q-41 -10 -62.5 -32.5t-31.5 -65.5l-107 -469q-4 -20 -4 -29q0 -17 11 -24.5t35 -11.5zM897 684 l-88 -366l78 15v-44l-87 -17l-57 -217q-32 -120 -101.5 -194.5t-175.5 -74.5q-42 0 -66.5 17t-24.5 47q0 22 16 34.5t34 12.5q9 0 13 -2q-5 -13 -5 -25q0 -21 14.5 -35t43.5 -14q45 0 87 46t70 157l59 233l-135 -26l-6 46l151 26l82 335h-4q-33 -37 -85 -37q-28 0 -74 24 t-74 24t-48 -18t-20 -47q0 -44 41 -44q16 0 29 7.5t18 14.5l4 8q29 -14 29 -48q0 -21 -17.5 -36.5t-52.5 -15.5t-59 26.5t-24 64.5q0 56 47 99t108 43q37 0 75 -25t60 -25q21 0 43 17t38 37t38.5 37t43.5 17q23 0 41.5 -10.5t25.5 -21.5l7 -11l-6 -26q-24 18 -54 18 q-25 0 -32 -26z" />
<glyph unicode="&#x133;" horiz-adv-x="552" d="M274 465l-118 -307q-27 -72 -27 -94q0 -14 13 -14q17 0 58 35.5t59 61.5l15 -10q-28 -52 -84 -102.5t-103 -50.5q-38 0 -38 38q0 42 25 110l73 205q7 19 7 32q0 16 -15 22t-49 6v22q97 4 184 46zM281 610q-19 0 -30.5 12t-11.5 31q0 23 16.5 42t40.5 19q19 0 30.5 -12 t11.5 -31q0 -23 -16.5 -42t-40.5 -19zM378 397v22q97 4 184 46l-134 -416q-22 -67 -48.5 -111.5t-71.5 -77.5q-30 -21 -94 -36t-96 -35l-6 19q25 22 80.5 44.5t75.5 41.5q43 40 70 127l102 315q6 24 6 33q0 28 -68 28zM560 610q-19 0 -30.5 12t-11.5 31q0 23 16.5 42 t40.5 19q19 0 30.5 -12t11.5 -31q0 -23 -16.5 -42t-40.5 -19z" />
<glyph unicode="&#x134;" horiz-adv-x="544" d="M264 808l192 137q68 -81 130 -139q-2 -24 -29 -24q-31 0 -62 34.5t-49 82.5l-133 -120zM521 684l-88 -366l78 15v-44l-87 -17l-57 -217q-32 -120 -101.5 -194.5t-175.5 -74.5q-42 0 -66.5 17t-24.5 47q0 22 16 34.5t34 12.5q9 0 13 -2q-5 -13 -5 -25q0 -21 14.5 -35 t43.5 -14q45 0 87 46t70 157l59 233l-135 -26l-6 46l151 26l82 335h-4q-33 -37 -85 -37q-28 0 -74 24t-74 24t-48 -18t-20 -47q0 -44 41 -44q16 0 29 7.5t18 14.5l4 8q29 -14 29 -48q0 -21 -17.5 -36.5t-52.5 -15.5t-59 26.5t-24 64.5q0 56 47 99t108 43q37 0 75 -25t60 -25 q21 0 43 17t38 37t38.5 37t43.5 17q23 0 41.5 -10.5t25.5 -21.5l7 -11l-6 -26q-24 18 -54 18q-25 0 -32 -26z" />
<glyph unicode="&#x135;" horiz-adv-x="272" d="M59 21l102 315q6 24 6 33q0 28 -68 28v22q97 4 184 46l-134 -416q-22 -67 -48.5 -111.5t-71.5 -77.5q-30 -21 -94 -36t-96 -35l-6 19q25 22 80.5 44.5t75.5 41.5q43 40 70 127zM106 552l202 180q56 -114 117 -176q0 -10 -9.5 -19t-26.5 -9q-40 0 -66 51t-29 107 l-132 -158z" />
<glyph unicode="&#x136;" horiz-adv-x="742" d="M255 34l32 -5l-7 -29q-54 3 -140 3l-132 -3l7 29l21 5q41 10 62.5 32.5t31.5 65.5l107 469q4 20 4 29q0 17 -11 24.5t-35 11.5l-32 5l7 29q52 -3 140 -3l132 3l-7 -29l-21 -5q-41 -10 -62.5 -32.5t-31.5 -65.5l-49 -213h79l250 265q11 11 11 23q0 19 -27 23l-29 5l7 29 q80 -3 137 -3l125 3l-7 -29l-34 -5q-79 -11 -139 -73l-226 -232l140 -257q42 -76 119 -76l36 2l-4 -21q-33 -17 -84 -17q-57 0 -95 20t-62 67l-92 184q-26 51 -77 51q-25 0 -39 -8l-47 -207q-4 -20 -4 -29q0 -17 11 -24.5t35 -11.5zM365 -62q24 0 39.5 -15t15.5 -40 q0 -64 -60.5 -109t-129.5 -54l-2 18q45 12 70.5 37.5t25.5 53.5q0 33 -35 48q6 27 27 44t49 17z" />
<glyph unicode="&#x137;" horiz-adv-x="533" d="M371 750q-216 -564 -218 -570h4q60 126 133 206t152 80q49 0 70.5 -25t21.5 -54q0 -125 -219 -178l14 -51q19 -71 47 -101t73 -30q29 0 58 12l7 -10q-4 -5 -11.5 -12.5t-33 -20.5t-53.5 -13q-65 0 -100 37t-52 121l-15 72q42 13 86 33t82.5 53t38.5 65q0 35 -42 35 q-59 0 -131 -80.5t-118.5 -177t-46.5 -149.5q-12 -8 -36 -8q-17 0 -27.5 9.5t-10.5 25.5q0 12 5 29l195 573q7 21 7 33q0 28 -64 28v22q97 4 184 46zM227 -62q24 0 39.5 -15t15.5 -40q0 -64 -60.5 -109t-129.5 -54l-2 18q45 12 70.5 37.5t25.5 53.5q0 33 -35 48q6 27 27 44 t49 17z" />
<glyph unicode="&#x138;" horiz-adv-x="533" d="M267 465q-111 -274 -114 -285h4q68 131 137.5 208.5t147.5 77.5q47 0 69.5 -25t22.5 -54q0 -125 -219 -178l14 -51q19 -71 47 -101t73 -30q29 0 58 12l7 -10q-4 -5 -11.5 -12.5t-33 -20.5t-53.5 -13q-65 0 -100 37t-52 121l-15 72q42 13 86 33t82.5 53t38.5 65 q0 35 -42 35q-59 0 -131 -80.5t-118.5 -177t-46.5 -149.5q-12 -8 -36 -8q-17 0 -27.5 9.5t-10.5 25.5q0 12 5 29l91 288q7 21 7 33q0 28 -64 28v22q97 4 184 46z" />
<glyph unicode="&#x139;" horiz-adv-x="558" d="M415 927q6 2 12 2q12 0 20.5 -9t8.5 -23q0 -38 -49.5 -77.5t-94.5 -53.5l-7 9q71 75 110 152zM255 34q105 0 168 46.5t104 125.5l21 -3l-61 -203q-245 2 -347 3l-132 -3l7 29l21 5q41 10 62.5 32.5t31.5 65.5l107 469q4 20 4 29q0 17 -11 24.5t-35 11.5l-32 5l7 29 q52 -3 140 -3l132 3l-7 -29l-21 -5q-41 -10 -62.5 -32.5t-31.5 -65.5l-107 -469q-4 -20 -4 -29q0 -36 46 -36z" />
<glyph unicode="&#x13a;" horiz-adv-x="306" d="M385 927q6 2 12 2q12 0 20.5 -9t8.5 -23q0 -38 -49.5 -77.5t-94.5 -53.5l-7 9q71 75 110 152zM372 750l-202 -585q-24 -69 -24 -90t20 -21q42 0 106 93l15 -11q-81 -152 -167 -152q-58 0 -58 66q0 28 17 81l166 490q7 21 7 33q0 28 -64 28v22q97 4 184 46z" />
<glyph unicode="&#x13b;" horiz-adv-x="558" d="M255 34q105 0 168 46.5t104 125.5l21 -3l-61 -203q-245 2 -347 3l-132 -3l7 29l21 5q41 10 62.5 32.5t31.5 65.5l107 469q4 20 4 29q0 17 -11 24.5t-35 11.5l-32 5l7 29q52 -3 140 -3l132 3l-7 -29l-21 -5q-41 -10 -62.5 -32.5t-31.5 -65.5l-107 -469q-4 -20 -4 -29 q0 -36 46 -36zM250 -62q24 0 39.5 -15t15.5 -40q0 -64 -60.5 -109t-129.5 -54l-2 18q45 12 70.5 37.5t25.5 53.5q0 33 -35 48q6 27 27 44t49 17z" />
<glyph unicode="&#x13c;" horiz-adv-x="306" d="M372 750l-202 -585q-24 -69 -24 -90t20 -21q42 0 106 93l15 -11q-81 -152 -167 -152q-58 0 -58 66q0 28 17 81l166 490q7 21 7 33q0 28 -64 28v22q97 4 184 46zM98 -62q24 0 39.5 -15t15.5 -40q0 -64 -60.5 -109t-129.5 -54l-2 18q45 12 70.5 37.5t25.5 53.5q0 33 -35 48 q6 27 27 44t49 17z" />
<glyph unicode="&#x13d;" horiz-adv-x="558" d="M255 34q105 0 168 46.5t104 125.5l21 -3l-61 -203q-245 2 -347 3l-132 -3l7 29l21 5q41 10 62.5 32.5t31.5 65.5l107 469q4 20 4 29q0 17 -11 24.5t-35 11.5l-32 5l7 29q52 -3 140 -3l132 3l-7 -29l-21 -5q-41 -10 -62.5 -32.5t-31.5 -65.5l-107 -469q-4 -20 -4 -29 q0 -36 46 -36zM584 774q25 0 40 -18t15 -46q0 -72 -55.5 -127.5t-130.5 -71.5l-3 15q44 16 75 49.5t31 77.5q0 47 -33 64q5 24 21.5 40.5t39.5 16.5z" />
<glyph unicode="&#x13e;" horiz-adv-x="322" d="M372 750l-202 -585q-24 -69 -24 -90t20 -21q42 0 106 93l15 -11q-81 -152 -167 -152q-58 0 -58 66q0 28 17 81l166 490q7 21 7 33q0 28 -64 28v22q97 4 184 46zM472 774q25 0 40 -18t15 -46q0 -72 -55.5 -127.5t-130.5 -71.5l-3 15q44 16 75 49.5t31 77.5q0 47 -33 64 q5 24 21.5 40.5t39.5 16.5z" />
<glyph unicode="&#x13f;" horiz-adv-x="558" d="M255 34q105 0 168 46.5t104 125.5l21 -3l-61 -203q-245 2 -347 3l-132 -3l7 29l21 5q41 10 62.5 32.5t31.5 65.5l107 469q4 20 4 29q0 17 -11 24.5t-35 11.5l-32 5l7 29q52 -3 140 -3l132 3l-7 -29l-21 -5q-41 -10 -62.5 -32.5t-31.5 -65.5l-107 -469q-4 -20 -4 -29 q0 -36 46 -36zM448 325q-22 0 -36 14t-14 36q0 27 19.5 48.5t47.5 21.5q22 0 35.5 -14t13.5 -36q0 -27 -19 -48.5t-47 -21.5z" />
<glyph unicode="&#x140;" horiz-adv-x="357" d="M372 750l-202 -585q-24 -69 -24 -90t20 -21q42 0 106 93l15 -11q-81 -152 -167 -152q-58 0 -58 66q0 28 17 81l166 490q7 21 7 33q0 28 -64 28v22q97 4 184 46zM353 305q-22 0 -36 14t-14 36q0 27 19.5 48.5t47.5 21.5q22 0 35.5 -14t13.5 -36q0 -27 -19 -48.5t-47 -21.5 z" />
<glyph unicode="&#x141;" horiz-adv-x="558" d="M255 34q105 0 168 46.5t104 125.5l21 -3l-61 -203q-245 2 -347 3l-132 -3l7 29l21 5q41 10 62.5 32.5t31.5 65.5l40 177l-80 -45l-12 45q53 28 105 56l54 236q4 20 4 29q0 17 -11 24.5t-35 11.5l-32 5l7 29q52 -3 140 -3l132 3l-7 -29l-21 -5q-41 -10 -62.5 -32.5 t-31.5 -65.5l-35 -150l180 96l12 -45q-20 -9 -204 -104l-60 -266q-4 -20 -4 -29q0 -36 46 -36z" />
<glyph unicode="&#x142;" horiz-adv-x="306" d="M372 750l-113 -327q34 18 61.5 34.5t37.5 24.5l11 7l12 -46q-52 -25 -140 -73l-71 -205q-24 -69 -24 -90t20 -21q42 0 106 93l15 -11q-81 -152 -167 -152q-58 0 -58 66q0 28 17 81l62 184l-56 -30l-11 45q27 12 86 42l85 249q7 21 7 33q0 28 -64 28v22q97 4 184 46z" />
<glyph unicode="&#x143;" horiz-adv-x="815" d="M610 927q6 2 12 2q12 0 20.5 -9t8.5 -23q0 -38 -49.5 -77.5t-94.5 -53.5l-7 9q71 75 110 152zM679 666l-43 5l7 29q73 -3 154 -3l109 3l-7 -29l-21 -5q-41 -10 -62.5 -32.5t-31.5 -65.5l-126 -573l-31 -4l-344 581l-97 -418q-14 -64 -14 -76q0 -38 54 -44l45 -5l-7 -29 q-84 3 -146 3l-110 -3l7 29l21 5q42 10 63 32t31 66l107 469q4 16 4 29q0 17 -11 24.5t-35 11.5l-32 5l7 29q48 -3 161 -3q0 -27 21 -64l294 -500l90 447q5 22 5 33q0 26 -15.5 37.5t-46.5 15.5z" />
<glyph unicode="&#x144;" horiz-adv-x="528" d="M398 50q29 0 86 82l15 -11q-30 -56 -70.5 -96.5t-87.5 -40.5q-38 0 -38 38t34 136l60 171q12 34 12 50q0 20 -15 20q-47 0 -114.5 -80t-114.5 -177.5t-47 -149.5q-12 -8 -36 -8q-17 0 -27.5 9.5t-10.5 25.5q0 12 5 29l91 289q7 23 7 32q0 16 -15 22t-49 6v22q97 4 184 46 q-103 -256 -114 -285h4q64 119 137.5 202.5t141.5 83.5q53 0 53 -50q0 -34 -19 -88l-60 -170q-27 -76 -27 -94q0 -14 15 -14zM600 694q0 -46 -73 -105t-132 -74l-5 13q93 94 168 207q20 0 31 -13t11 -28z" />
<glyph unicode="&#x145;" horiz-adv-x="836" d="M679 666l-43 5l7 29q73 -3 154 -3l109 3l-7 -29l-21 -5q-41 -10 -62.5 -32.5t-31.5 -65.5l-126 -573l-31 -4l-344 581l-97 -418q-14 -64 -14 -76q0 -38 54 -44l45 -5l-7 -29q-84 3 -146 3l-110 -3l7 29l21 5q42 10 63 32t31 66l107 469q4 16 4 29q0 17 -11 24.5t-35 11.5 l-32 5l7 29q48 -3 161 -3q0 -27 21 -64l294 -500l90 447q5 22 5 33q0 26 -15.5 37.5t-46.5 15.5zM391 -62q24 0 39.5 -15t15.5 -40q0 -64 -60.5 -109t-129.5 -54l-2 18q45 12 70.5 37.5t25.5 53.5q0 33 -35 48q6 27 27 44t49 17z" />
<glyph unicode="&#x146;" horiz-adv-x="529" d="M398 50q29 0 86 82l15 -11q-30 -56 -70.5 -96.5t-87.5 -40.5q-38 0 -38 38t34 136l60 171q12 34 12 50q0 20 -15 20q-47 0 -114.5 -80t-114.5 -177.5t-47 -149.5q-12 -8 -36 -8q-17 0 -27.5 9.5t-10.5 25.5q0 12 5 29l91 289q7 23 7 32q0 16 -15 22t-49 6v22q97 4 184 46 q-103 -256 -114 -285h4q64 119 137.5 202.5t141.5 83.5q53 0 53 -50q0 -34 -19 -88l-60 -170q-27 -76 -27 -94q0 -14 15 -14zM191 -62q24 0 39.5 -15t15.5 -40q0 -64 -60.5 -109t-129.5 -54l-2 18q45 12 70.5 37.5t25.5 53.5q0 33 -35 48q6 27 27 44t49 17z" />
<glyph unicode="&#x147;" horiz-adv-x="815" d="M542 751l-130 131l63 35l77 -120q24 42 66.5 80t79.5 38q36 0 36 -28zM679 666l-43 5l7 29q73 -3 154 -3l109 3l-7 -29l-21 -5q-41 -10 -62.5 -32.5t-31.5 -65.5l-126 -573l-31 -4l-344 581l-97 -418q-14 -64 -14 -76q0 -38 54 -44l45 -5l-7 -29q-84 3 -146 3l-110 -3 l7 29l21 5q42 10 63 32t31 66l107 469q4 16 4 29q0 17 -11 24.5t-35 11.5l-32 5l7 29q48 -3 161 -3q0 -27 21 -64l294 -500l90 447q5 22 5 33q0 26 -15.5 37.5t-46.5 15.5z" />
<glyph unicode="&#x148;" horiz-adv-x="529" d="M398 50q29 0 86 82l15 -11q-30 -56 -70.5 -96.5t-87.5 -40.5q-38 0 -38 38t34 136l60 171q12 34 12 50q0 20 -15 20q-47 0 -114.5 -80t-114.5 -177.5t-47 -149.5q-12 -8 -36 -8q-17 0 -27.5 9.5t-10.5 25.5q0 12 5 29l91 289q7 23 7 32q0 16 -15 22t-49 6v22q97 4 184 46 q-103 -256 -114 -285h4q64 119 137.5 202.5t141.5 83.5q53 0 53 -50q0 -34 -19 -88l-60 -170q-27 -76 -27 -94q0 -14 15 -14zM429 533l-117 176l66 23l61 -153q26 54 70.5 103.5t84.5 49.5q18 0 28 -8t10 -18q-42 -29 -92.5 -72t-80.5 -72z" />
<glyph unicode="&#x149;" horiz-adv-x="528" d="M398 50q29 0 86 82l15 -11q-30 -56 -70.5 -96.5t-87.5 -40.5q-38 0 -38 38t34 136l60 171q12 34 12 50q0 20 -15 20q-47 0 -114.5 -80t-114.5 -177.5t-47 -149.5q-12 -8 -36 -8q-17 0 -27.5 9.5t-10.5 25.5q0 12 5 29l91 289q7 23 7 32q0 16 -15 22t-49 6v22q97 4 184 46 q-103 -256 -114 -285h4q64 119 137.5 202.5t141.5 83.5q53 0 53 -50q0 -34 -19 -88l-60 -170q-27 -76 -27 -94q0 -14 15 -14zM229 755q24 0 39.5 -15t15.5 -40q0 -64 -60.5 -109t-129.5 -54l-2 18q45 12 70.5 37.5t25.5 53.5q0 33 -35 48q6 27 27 44t49 17z" />
<glyph unicode="&#x14a;" horiz-adv-x="833" d="M715 666l-47 5l7 29q86 -4 136 -4l110 4l-7 -29l-19 -5q-72 -19 -90 -98l-122 -531q-21 -92 -82 -155q-31 -32 -88 -61.5t-78 -44.5l-8 19q10 12 42.5 36.5t49.5 43.5q41 46 62 137l12 52l-315 484l-104 -449q-8 -34 3.5 -47t52.5 -18l47 -5l-7 -29q-94 3 -146 3l-117 -3 l7 29l27 5q67 12 88 98l108 469q8 33 -2 46.5t-41 18.5l-32 5l7 29q49 -3 157 -3q4 -22 31 -64l305 -473l102 441q8 34 -2 47.5t-47 17.5z" />
<glyph unicode="&#x14b;" horiz-adv-x="500" d="M292 21l105 308q12 34 12 50q0 20 -15 20q-47 0 -114.5 -80t-114.5 -177.5t-47 -149.5q-12 -8 -36 -8q-17 0 -27.5 9.5t-10.5 25.5q0 12 5 29l91 289q7 23 7 32q0 16 -15 22t-49 6v22q97 4 184 46q-103 -256 -114 -285h4q64 119 137.5 202.5t141.5 83.5q53 0 53 -50 q0 -34 -19 -88l-96 -279q-49 -147 -112 -189q-30 -20 -94 -35.5t-96 -35.5l-6 19q25 22 80.5 44.5t75.5 41.5q43 40 70 127z" />
<glyph unicode="&#x14c;" horiz-adv-x="760" d="M394 867q73 -3 138 -3l140 3l-13 -55q-65 3 -138 3l-140 -3zM368 23q70 0 128 40t92 102t52 129.5t18 130.5q0 117 -60 183.5t-151 66.5q-70 0 -128 -40t-92 -102t-52 -129.5t-18 -130.5q0 -117 60 -183.5t151 -66.5zM495 714q117 0 190 -72t73 -197q0 -121 -58.5 -227 t-160 -170t-219.5 -64q-117 0 -190 72t-73 197q0 121 58.5 227t160 170t219.5 64z" />
<glyph unicode="&#x14d;" horiz-adv-x="435" d="M161 -16q-53 0 -84.5 37t-31.5 102q0 55 21.5 116t57 111t87.5 83t107 33q54 0 85.5 -37t31.5 -103q0 -75 -35.5 -153.5t-100 -133.5t-138.5 -55zM190 21q43 0 82 50.5t60 118.5t21 126q0 112 -63 112q-43 0 -82 -50.5t-60 -118t-21 -125.5q0 -113 63 -113zM223 643 q71 -3 136 -3l136 3l-12 -55q-63 3 -136 3l-136 -3z" />
<glyph unicode="&#x14e;" horiz-adv-x="760" d="M652 912h28q-17 -72 -63.5 -113.5t-112.5 -41.5q-54 0 -84.5 28t-30.5 79q0 21 6 48h68q-4 -16 -4 -33q0 -66 70 -66q46 0 79.5 26.5t43.5 72.5zM368 23q70 0 128 40t92 102t52 129.5t18 130.5q0 117 -60 183.5t-151 66.5q-70 0 -128 -40t-92 -102t-52 -129.5t-18 -130.5 q0 -117 60 -183.5t151 -66.5zM495 714q117 0 190 -72t73 -197q0 -121 -58.5 -227t-160 -170t-219.5 -64q-117 0 -190 72t-73 197q0 121 58.5 227t160 170t219.5 64z" />
<glyph unicode="&#x14f;" horiz-adv-x="435" d="M161 -16q-53 0 -84.5 37t-31.5 102q0 55 21.5 116t57 111t87.5 83t107 33q54 0 85.5 -37t31.5 -103q0 -75 -35.5 -153.5t-100 -133.5t-138.5 -55zM190 21q43 0 82 50.5t60 118.5t21 126q0 112 -63 112q-43 0 -82 -50.5t-60 -118t-21 -125.5q0 -113 63 -113zM511 698h28 q-17 -72 -63.5 -113.5t-112.5 -41.5q-54 0 -84.5 28t-30.5 79q0 21 6 48h68q-4 -16 -4 -33q0 -66 70 -66q46 0 79.5 26.5t43.5 72.5z" />
<glyph unicode="&#x150;" horiz-adv-x="760" d="M692 927q6 2 12 2q12 0 20.5 -9t8.5 -23q0 -38 -49.5 -77.5t-94.5 -53.5l-7 9q71 75 110 152zM567 927q6 2 12 2q12 0 20.5 -9t8.5 -23q0 -38 -49.5 -77.5t-94.5 -53.5l-7 9q71 75 110 152zM368 23q70 0 128 40t92 102t52 129.5t18 130.5q0 117 -60 183.5t-151 66.5 q-70 0 -128 -40t-92 -102t-52 -129.5t-18 -130.5q0 -117 60 -183.5t151 -66.5zM495 714q117 0 190 -72t73 -197q0 -121 -58.5 -227t-160 -170t-219.5 -64q-117 0 -190 72t-73 197q0 121 58.5 227t160 170t219.5 64z" />
<glyph unicode="&#x151;" horiz-adv-x="435" d="M161 -16q-53 0 -84.5 37t-31.5 102q0 55 21.5 116t57 111t87.5 83t107 33q54 0 85.5 -37t31.5 -103q0 -75 -35.5 -153.5t-100 -133.5t-138.5 -55zM190 21q43 0 82 50.5t60 118.5t21 126q0 112 -63 112q-43 0 -82 -50.5t-60 -118t-21 -125.5q0 -113 63 -113zM465 694 q0 -46 -73 -105t-132 -74l-5 13q93 94 168 207q20 0 31 -13t11 -28zM619 694q0 -46 -73 -105t-132 -74l-5 13q93 94 168 207q20 0 31 -13t11 -28z" />
<glyph unicode="&#x152;" horiz-adv-x="918" d="M645 34q48 0 84.5 10t60.5 31.5t37 38.5t29 46l21 -3l-49 -157q-249 3 -335 3q-38 0 -53 -1q-62 -18 -120 -18q-117 0 -190 72t-73 197q0 121 58.5 227t160 170t219.5 64q53 0 101 -17h67l319 3l-40 -149h-20q0 61 -32 88t-114 27q-48 0 -78 -7l-67 -281h83q65 0 103 77 l19 39h26q-25 -71 -38 -128q-6 -28 -10.5 -55.5t-5.5 -40.5l-2 -14h-25l-1 25q-2 58 -60 58h-99l-51 -214q-6 -24 -6 -40q0 -51 81 -51zM368 23q44 0 73 25.5t40 71.5l103 436q3 14 3 25q0 45 -39 69.5t-101 24.5q-70 0 -128 -40t-92 -102t-52 -129.5t-18 -130.5 q0 -117 60 -183.5t151 -66.5z" />
<glyph unicode="&#x153;" horiz-adv-x="686" d="M705 397q0 -57 -69.5 -101.5t-212.5 -81.5q-15 -51 -15 -98q0 -32 16.5 -53.5t52.5 -21.5q42 0 84.5 31t65.5 65l15 -11q-9 -17 -21.5 -34t-38 -45t-60.5 -45.5t-74 -17.5q-47 0 -77 22.5t-38 61.5q-33 -37 -77.5 -60.5t-89.5 -23.5q-53 0 -84.5 37t-31.5 102 q0 55 21.5 116t57 111t87.5 83t107 33q42 0 71 -28t38 -74q38 45 89.5 73.5t106.5 28.5q39 0 58 -20.5t19 -48.5zM195 21q43 0 82 50.5t60 118.5t21 126q0 112 -63 112q-43 0 -82 -50.5t-60 -118t-21 -125.5q0 -113 63 -113zM628 390q0 36 -34 36q-30 0 -57.5 -20t-48 -51.5 t-34 -59t-23.5 -54.5q197 58 197 149z" />
<glyph unicode="&#x154;" horiz-adv-x="677" d="M526 927q6 2 12 2q12 0 20.5 -9t8.5 -23q0 -38 -49.5 -77.5t-94.5 -53.5l-7 9q71 75 110 152zM310 697q24 0 58 1.5t61 1.5q86 0 143.5 -46t57.5 -120q0 -51 -19.5 -90.5t-52 -62.5t-62.5 -36t-62 -19q26 -23 45 -76l43 -124q17 -49 49.5 -74.5t69.5 -25.5q17 0 39 5 l-5 -21q-31 -18 -90 -18q-68 0 -107 27.5t-54 87.5l-34 135q-10 39 -34.5 58.5t-55.5 19.5q-10 0 -19.5 -2t-14.5 -4l-4 -1l-49 -214q-4 -20 -4 -29q0 -17 11 -24.5t35 -11.5l32 -5l-7 -29q-54 3 -140 3l-132 -3l7 29l21 5q41 10 62.5 32.5t31.5 65.5l107 469q4 20 4 29 q0 17 -11 24.5t-35 11.5l-32 5l7 29q52 -3 140 -3zM394 666q-30 0 -53 -7l-73 -319q31 20 70 20q16 0 32.5 -4t25.5 -8l8 -4q55 21 90 69.5t35 120.5q0 56 -38.5 94t-96.5 38z" />
<glyph unicode="&#x155;" horiz-adv-x="412" d="M56 48l81 287q7 25 7 34q0 16 -15 22t-49 6v22q97 4 184 46q-103 -256 -114 -285h4q2 6 7 16t19.5 40t30 57t38.5 59.5t45.5 56.5t49.5 40t52 16q30 0 47 -16.5t17 -42.5q0 -28 -19.5 -43.5t-42.5 -15.5l-7 1q2 6 2 13q0 11 -8 21t-28 10q-45 0 -101.5 -79.5 t-93.5 -174.5t-37 -146q-12 -7 -36 -7q-17 0 -26.5 11.5t-9.5 28.5q0 13 3 23zM541 694q0 -46 -73 -105t-132 -74l-5 13q93 94 168 207q20 0 31 -13t11 -28z" />
<glyph unicode="&#x156;" horiz-adv-x="677" d="M310 697q24 0 58 1.5t61 1.5q86 0 143.5 -46t57.5 -120q0 -51 -19.5 -90.5t-52 -62.5t-62.5 -36t-62 -19q26 -23 45 -76l43 -124q17 -49 49.5 -74.5t69.5 -25.5q17 0 39 5l-5 -21q-31 -18 -90 -18q-68 0 -107 27.5t-54 87.5l-34 135q-10 39 -34.5 58.5t-55.5 19.5 q-10 0 -19.5 -2t-14.5 -4l-4 -1l-49 -214q-4 -20 -4 -29q0 -17 11 -24.5t35 -11.5l32 -5l-7 -29q-54 3 -140 3l-132 -3l7 29l21 5q41 10 62.5 32.5t31.5 65.5l107 469q4 20 4 29q0 17 -11 24.5t-35 11.5l-32 5l7 29q52 -3 140 -3zM394 666q-30 0 -53 -7l-73 -319 q31 20 70 20q16 0 32.5 -4t25.5 -8l8 -4q55 21 90 69.5t35 120.5q0 56 -38.5 94t-96.5 38zM342 -62q24 0 39.5 -15t15.5 -40q0 -64 -60.5 -109t-129.5 -54l-2 18q45 12 70.5 37.5t25.5 53.5q0 33 -35 48q6 27 27 44t49 17z" />
<glyph unicode="&#x157;" horiz-adv-x="412" d="M56 48l81 287q7 25 7 34q0 16 -15 22t-49 6v22q97 4 184 46q-103 -256 -114 -285h4q2 6 7 16t19.5 40t30 57t38.5 59.5t45.5 56.5t49.5 40t52 16q30 0 47 -16.5t17 -42.5q0 -28 -19.5 -43.5t-42.5 -15.5l-7 1q2 6 2 13q0 11 -8 21t-28 10q-45 0 -101.5 -79.5 t-93.5 -174.5t-37 -146q-12 -7 -36 -7q-17 0 -26.5 11.5t-9.5 28.5q0 13 3 23zM58 -62q24 0 39.5 -15t15.5 -40q0 -64 -60.5 -109t-129.5 -54l-2 18q45 12 70.5 37.5t25.5 53.5q0 33 -35 48q6 27 27 44t49 17z" />
<glyph unicode="&#x158;" horiz-adv-x="677" d="M434 751l-130 131l63 35l77 -120q24 42 66.5 80t79.5 38q36 0 36 -28zM310 697q24 0 58 1.5t61 1.5q86 0 143.5 -46t57.5 -120q0 -51 -19.5 -90.5t-52 -62.5t-62.5 -36t-62 -19q26 -23 45 -76l43 -124q17 -49 49.5 -74.5t69.5 -25.5q17 0 39 5l-5 -21q-31 -18 -90 -18 q-68 0 -107 27.5t-54 87.5l-34 135q-10 39 -34.5 58.5t-55.5 19.5q-10 0 -19.5 -2t-14.5 -4l-4 -1l-49 -214q-4 -20 -4 -29q0 -17 11 -24.5t35 -11.5l32 -5l-7 -29q-54 3 -140 3l-132 -3l7 29l21 5q41 10 62.5 32.5t31.5 65.5l107 469q4 20 4 29q0 17 -11 24.5t-35 11.5 l-32 5l7 29q52 -3 140 -3zM394 666q-30 0 -53 -7l-73 -319q31 20 70 20q16 0 32.5 -4t25.5 -8l8 -4q55 21 90 69.5t35 120.5q0 56 -38.5 94t-96.5 38z" />
<glyph unicode="&#x159;" horiz-adv-x="412" d="M56 48l81 287q7 25 7 34q0 16 -15 22t-49 6v22q97 4 184 46q-103 -256 -114 -285h4q2 6 7 16t19.5 40t30 57t38.5 59.5t45.5 56.5t49.5 40t52 16q30 0 47 -16.5t17 -42.5q0 -28 -19.5 -43.5t-42.5 -15.5l-7 1q2 6 2 13q0 11 -8 21t-28 10q-45 0 -101.5 -79.5 t-93.5 -174.5t-37 -146q-12 -7 -36 -7q-17 0 -26.5 11.5t-9.5 28.5q0 13 3 23zM350 533l-117 176l66 23l61 -153q26 54 70.5 103.5t84.5 49.5q18 0 28 -8t10 -18q-42 -29 -92.5 -72t-80.5 -72z" />
<glyph unicode="&#x15a;" horiz-adv-x="487" d="M493 927q6 2 12 2q12 0 20.5 -9t8.5 -23q0 -38 -49.5 -77.5t-94.5 -53.5l-7 9q71 75 110 152zM542 693l-47 -156h-29q4 20 4 35q0 45 -33.5 74t-93.5 29q-52 0 -83.5 -30.5t-31.5 -75.5q0 -40 22 -74.5t53.5 -62t63 -57.5t53.5 -76t22 -104q0 -86 -63.5 -148.5 t-178.5 -62.5q-37 0 -92.5 15t-90.5 15l30 163h25v-16q0 -137 138 -137q68 0 110.5 35.5t42.5 90.5q0 43 -22 81t-53.5 68t-63 61t-53.5 75t-22 95q0 78 57.5 131t153.5 53q37 0 92.5 -10.5t89.5 -10.5z" />
<glyph unicode="&#x15b;" horiz-adv-x="335" d="M368 409q0 -23 -16.5 -39t-43.5 -16q-8 0 -16 2q5 10 5 20q0 43 -52 43q-36 0 -55.5 -21.5t-19.5 -48.5q0 -30 24.5 -63t49 -71t24.5 -80q0 -67 -58 -109t-119 -42q-87 0 -87 53q0 25 18 40.5t42 15.5l10 -1q-6 -10 -6 -22q0 -15 15 -25t35 -10q82 0 82 67q0 34 -21 68 t-42 71.5t-21 79.5q0 60 52.5 102.5t109.5 42.5q42 0 66 -16t24 -41zM487 694q0 -46 -73 -105t-132 -74l-5 13q93 94 168 207q20 0 31 -13t11 -28z" />
<glyph unicode="&#x15c;" horiz-adv-x="487" d="M253 780l192 137q68 -81 130 -139q-1 -11 -9.5 -17.5t-19.5 -6.5q-31 0 -62 34.5t-49 82.5l-133 -120zM542 693l-47 -156h-29q4 20 4 35q0 45 -33.5 74t-93.5 29q-52 0 -83.5 -30.5t-31.5 -75.5q0 -40 22 -74.5t53.5 -62t63 -57.5t53.5 -76t22 -104q0 -86 -63.5 -148.5 t-178.5 -62.5q-37 0 -92.5 15t-90.5 15l30 163h25v-16q0 -137 138 -137q68 0 110.5 35.5t42.5 90.5q0 43 -22 81t-53.5 68t-63 61t-53.5 75t-22 95q0 78 57.5 131t153.5 53q37 0 92.5 -10.5t89.5 -10.5z" />
<glyph unicode="&#x15d;" horiz-adv-x="335" d="M368 409q0 -23 -16.5 -39t-43.5 -16q-8 0 -16 2q5 10 5 20q0 43 -52 43q-36 0 -55.5 -21.5t-19.5 -48.5q0 -30 24.5 -63t49 -71t24.5 -80q0 -67 -58 -109t-119 -42q-87 0 -87 53q0 25 18 40.5t42 15.5l10 -1q-6 -10 -6 -22q0 -15 15 -25t35 -10q82 0 82 67q0 34 -21 68 t-42 71.5t-21 79.5q0 60 52.5 102.5t109.5 42.5q42 0 66 -16t24 -41zM137 552l202 180q56 -114 117 -176q0 -10 -9 -19t-27 -9q-40 0 -66 51t-29 107l-132 -158z" />
<glyph unicode="&#x15e;" horiz-adv-x="487" d="M542 693l-47 -156h-29q4 20 4 35q0 45 -33.5 74t-93.5 29q-52 0 -83.5 -30.5t-31.5 -75.5q0 -40 22 -74.5t53.5 -62t63 -57.5t53.5 -76t22 -104q0 -83 -60.5 -145t-169.5 -66q-12 -15 -12 -32q0 -16 27 -39.5t27 -45.5q0 -46 -45.5 -74.5t-90.5 -28.5q-29 0 -46.5 12 t-17.5 31t14 31t31 12q12 0 17 -5q-17 -11 -17 -28q0 -26 37 -26q21 0 39 14t18 34q0 17 -21.5 41t-21.5 49q0 28 32 56q-28 2 -79.5 15.5t-85.5 13.5l30 163h25v-16q0 -137 138 -137q68 0 110.5 35.5t42.5 90.5q0 43 -22 81t-53.5 68t-63 61t-53.5 75t-22 95q0 78 57.5 131 t153.5 53q37 0 92.5 -10.5t89.5 -10.5z" />
<glyph unicode="&#x15f;" horiz-adv-x="335" d="M368 409q0 -23 -16.5 -39t-43.5 -16q-8 0 -16 2q5 10 5 20q0 43 -52 43q-36 0 -55.5 -21.5t-19.5 -48.5q0 -30 24.5 -63t49 -71t24.5 -80q0 -60 -48 -100.5t-106 -48.5q-29 -13 -29 -39q0 -16 27 -37t27 -43q0 -46 -45.5 -74.5t-90.5 -28.5q-29 0 -46.5 12t-17.5 31 t14 31t31 12q12 0 17 -5q-17 -11 -17 -28q0 -26 37 -26q21 0 39 14t18 34q0 18 -21.5 41.5t-21.5 43.5q0 21 15.5 36.5t38.5 23.5q-85 2 -85 53q0 25 18 40.5t42 15.5l10 -1q-6 -10 -6 -22q0 -15 15 -25t35 -10q82 0 82 67q0 34 -21 68t-42 71.5t-21 79.5q0 60 52.5 102.5 t109.5 42.5q42 0 66 -16t24 -41z" />
<glyph unicode="&#x160;" horiz-adv-x="487" d="M401 751l-130 131l63 35l77 -120q24 42 66.5 80t79.5 38q36 0 36 -28zM542 693l-47 -156h-29q4 20 4 35q0 45 -33.5 74t-93.5 29q-52 0 -83.5 -30.5t-31.5 -75.5q0 -40 22 -74.5t53.5 -62t63 -57.5t53.5 -76t22 -104q0 -86 -63.5 -148.5t-178.5 -62.5q-37 0 -92.5 15 t-90.5 15l30 163h25v-16q0 -137 138 -137q68 0 110.5 35.5t42.5 90.5q0 43 -22 81t-53.5 68t-63 61t-53.5 75t-22 95q0 78 57.5 131t153.5 53q37 0 92.5 -10.5t89.5 -10.5z" />
<glyph unicode="&#x161;" horiz-adv-x="335" d="M368 409q0 -23 -16.5 -39t-43.5 -16q-8 0 -16 2q5 10 5 20q0 43 -52 43q-36 0 -55.5 -21.5t-19.5 -48.5q0 -30 24.5 -63t49 -71t24.5 -80q0 -67 -58 -109t-119 -42q-87 0 -87 53q0 25 18 40.5t42 15.5l10 -1q-6 -10 -6 -22q0 -15 15 -25t35 -10q82 0 82 67q0 34 -21 68 t-42 71.5t-21 79.5q0 60 52.5 102.5t109.5 42.5q42 0 66 -16t24 -41zM314 533l-117 176l66 23l61 -153q26 54 70.5 103.5t84.5 49.5q18 0 28 -8t10 -18q-42 -29 -92.5 -72t-80.5 -72z" />
<glyph unicode="&#x162;" horiz-adv-x="676" d="M625 661l-136 -2l-130 -560q-4 -20 -4 -29q0 -17 11 -24.5t35 -11.5l32 -5l-7 -29q-54 3 -140 3l-132 -3l7 29l21 5q41 10 62.5 32.5t31.5 65.5l122 526h-150q-37 0 -57 -12.5t-20 -30.5q0 -15 10 -30q-10 -18 -41 -18q-46 0 -46 42q0 28 24 46t55 24t77 9l368 21 q73 4 73 40q0 24 -12 36q14 8 36 8q21 0 39 -12.5t18 -35.5q0 -82 -147 -84zM268 -62q24 0 39.5 -15t15.5 -40q0 -64 -60.5 -109t-129.5 -54l-2 18q45 12 70.5 37.5t25.5 53.5q0 33 -35 48q6 27 27 44t49 17z" />
<glyph unicode="&#x163;" horiz-adv-x="329" d="M310 573q-10 -10 -23.5 -40t-21.5 -55l-8 -25h127l-18 -44h-124l-67 -182q-44 -118 -44 -148q0 -19 17 -19q24 0 57.5 34t63.5 78l17 -10q-31 -60 -84 -119t-101 -59q-52 0 -52 62q0 39 16 84l98 281l-54 2l3 29l67 14l26 71q20 57 71 57q23 0 34 -11zM72 -62 q24 0 39.5 -15t15.5 -40q0 -64 -60.5 -109t-129.5 -54l-2 18q45 12 70.5 37.5t25.5 53.5q0 33 -35 48q6 27 27 44t49 17z" />
<glyph unicode="&#x164;" horiz-adv-x="676" d="M467 751l-130 131l63 35l77 -120q24 42 66.5 80t79.5 38q36 0 36 -28zM625 661l-136 -2l-130 -560q-4 -20 -4 -29q0 -17 11 -24.5t35 -11.5l32 -5l-7 -29q-54 3 -140 3l-132 -3l7 29l21 5q41 10 62.5 32.5t31.5 65.5l122 526h-150q-37 0 -57 -12.5t-20 -30.5 q0 -15 10 -30q-10 -18 -41 -18q-46 0 -46 42q0 28 24 46t55 24t77 9l368 21q73 4 73 40q0 24 -12 36q14 8 36 8q21 0 39 -12.5t18 -35.5q0 -82 -147 -84z" />
<glyph unicode="&#x165;" horiz-adv-x="367" d="M310 573q-10 -10 -23.5 -40t-21.5 -55l-8 -25h127l-18 -44h-124l-67 -182q-44 -118 -44 -148q0 -19 17 -19q24 0 57.5 34t63.5 78l17 -10q-31 -60 -84 -119t-101 -59q-52 0 -52 62q0 39 16 84l98 281l-54 2l3 29l67 14l26 71q20 57 71 57q23 0 34 -11zM474 774 q25 0 40 -18t15 -46q0 -72 -55.5 -127.5t-130.5 -71.5l-3 15q44 16 75 49.5t31 77.5q0 47 -33 64q5 24 21.5 40.5t39.5 16.5z" />
<glyph unicode="&#x166;" horiz-adv-x="681" d="M625 661l-136 -2l-53 -227l124 3l-12 -55q-67 2 -123 3l-66 -284q-4 -20 -4 -29q0 -17 11 -24.5t35 -11.5l32 -5l-7 -29q-54 3 -140 3l-132 -3l7 29l21 5q41 10 62.5 32.5t31.5 65.5l58 251l-124 -3l12 55q67 -2 123 -3l53 226h-150q-37 0 -57 -12.5t-20 -30.5 q0 -15 10 -30q-10 -18 -41 -18q-46 0 -46 42q0 28 24 46t55 24t77 9l368 21q73 4 73 40q0 24 -12 36q14 8 36 8q21 0 39 -12.5t18 -35.5q0 -82 -147 -84z" />
<glyph unicode="&#x167;" horiz-adv-x="329" d="M310 573q-10 -10 -23.5 -40t-21.5 -55l-8 -25h127l-18 -44h-124l-41 -110l123 3l-17 -46q-58 2 -120 3l-12 -32q-44 -118 -44 -148q0 -19 17 -19q24 0 57.5 34t63.5 78l17 -10q-31 -60 -84 -119t-101 -59q-52 0 -52 62q0 39 16 84l44 128l-66 -2l16 45l22 -1h43l39 111 l-54 2l3 29l67 14l26 71q20 57 71 57q23 0 34 -11z" />
<glyph unicode="&#x168;" horiz-adv-x="795" d="M515 889q31 0 66 -24t61 -24q52 0 81 51l11 -16q-37 -95 -123 -95q-30 0 -63.5 24t-59.5 24q-52 0 -80 -51l-12 16q17 43 48 69t71 26zM300 568l-61 -261q-14 -62 -14 -105q0 -168 171 -168q100 0 151 60.5t80 191.5l71 315q4 20 4 29q0 17 -11 24.5t-35 11.5l-32 5l7 29 q58 -4 122 -4l115 4l-7 -29l-21 -5q-41 -10 -62.5 -32.5t-31.5 -65.5l-64 -286q-16 -72 -36.5 -122t-53.5 -92t-85 -62.5t-123 -20.5q-115 0 -182.5 52t-67.5 156q0 42 12 93l71 315q4 20 4 29q0 17 -11 24.5t-35 11.5l-32 5l7 29q52 -3 140 -3l132 3l-7 -29l-21 -5 q-41 -10 -62.5 -32.5t-31.5 -65.5z" />
<glyph unicode="&#x169;" horiz-adv-x="496" d="M145 400q-29 0 -86 -82l-15 10q74 138 158 138q38 0 38 -39q0 -37 -34 -135l-60 -172q-12 -33 -12 -50q0 -19 15 -19q47 0 114.5 80t114.5 177.5t47 149.5q10 8 34 8q38 0 38 -36q0 -11 -5 -28l-94 -289q-7 -23 -7 -32q0 -28 69 -28v-22q-97 -4 -184 -46q99 243 114 285 h-4q-64 -119 -137.5 -202.5t-141.5 -83.5q-53 0 -53 50q0 35 19 87l60 171q27 76 27 94q0 14 -15 14zM328 677q32 0 67 -24t60 -24q52 0 81 51l11 -16q-37 -95 -123 -95q-30 0 -63.5 24t-59.5 24q-52 0 -80 -51l-12 16q17 43 48 69t71 26z" />
<glyph unicode="&#x16a;" horiz-adv-x="795" d="M429 867q73 -3 138 -3l140 3l-13 -55q-65 3 -138 3l-140 -3zM300 568l-61 -261q-14 -62 -14 -105q0 -168 171 -168q100 0 151 60.5t80 191.5l71 315q4 20 4 29q0 17 -11 24.5t-35 11.5l-32 5l7 29q58 -4 122 -4l115 4l-7 -29l-21 -5q-41 -10 -62.5 -32.5t-31.5 -65.5 l-64 -286q-16 -72 -36.5 -122t-53.5 -92t-85 -62.5t-123 -20.5q-115 0 -182.5 52t-67.5 156q0 42 12 93l71 315q4 20 4 29q0 17 -11 24.5t-35 11.5l-32 5l7 29q52 -3 140 -3l132 3l-7 -29l-21 -5q-41 -10 -62.5 -32.5t-31.5 -65.5z" />
<glyph unicode="&#x16b;" horiz-adv-x="496" d="M145 400q-29 0 -86 -82l-15 10q74 138 158 138q38 0 38 -39q0 -37 -34 -135l-60 -172q-12 -33 -12 -50q0 -19 15 -19q47 0 114.5 80t114.5 177.5t47 149.5q10 8 34 8q38 0 38 -36q0 -11 -5 -28l-94 -289q-7 -23 -7 -32q0 -28 69 -28v-22q-97 -4 -184 -46q99 243 114 285 h-4q-64 -119 -137.5 -202.5t-141.5 -83.5q-53 0 -53 50q0 35 19 87l60 171q27 76 27 94q0 14 -15 14zM255 643q71 -3 136 -3l136 3l-12 -55q-63 3 -136 3l-136 -3z" />
<glyph unicode="&#x16c;" horiz-adv-x="795" d="M702 912h28q-17 -72 -63.5 -113.5t-112.5 -41.5q-54 0 -84.5 28t-30.5 79q0 21 6 48h68q-4 -16 -4 -33q0 -66 70 -66q46 0 79.5 26.5t43.5 72.5zM300 568l-61 -261q-14 -62 -14 -105q0 -168 171 -168q100 0 151 60.5t80 191.5l71 315q4 20 4 29q0 17 -11 24.5t-35 11.5 l-32 5l7 29q58 -4 122 -4l115 4l-7 -29l-21 -5q-41 -10 -62.5 -32.5t-31.5 -65.5l-64 -286q-16 -72 -36.5 -122t-53.5 -92t-85 -62.5t-123 -20.5q-115 0 -182.5 52t-67.5 156q0 42 12 93l71 315q4 20 4 29q0 17 -11 24.5t-35 11.5l-32 5l7 29q52 -3 140 -3l132 3l-7 -29 l-21 -5q-41 -10 -62.5 -32.5t-31.5 -65.5z" />
<glyph unicode="&#x16d;" horiz-adv-x="496" d="M145 400q-29 0 -86 -82l-15 10q74 138 158 138q38 0 38 -39q0 -37 -34 -135l-60 -172q-12 -33 -12 -50q0 -19 15 -19q47 0 114.5 80t114.5 177.5t47 149.5q10 8 34 8q38 0 38 -36q0 -11 -5 -28l-94 -289q-7 -23 -7 -32q0 -28 69 -28v-22q-97 -4 -184 -46q99 243 114 285 h-4q-64 -119 -137.5 -202.5t-141.5 -83.5q-53 0 -53 50q0 35 19 87l60 171q27 76 27 94q0 14 -15 14zM520 698h28q-17 -72 -63.5 -113.5t-112.5 -41.5q-54 0 -84.5 28t-30.5 79q0 21 6 48h68q-4 -16 -4 -33q0 -66 70 -66q46 0 79.5 26.5t43.5 72.5z" />
<glyph unicode="&#x16e;" horiz-adv-x="795" d="M560 784q38 0 56 24.5t18 56.5q0 25 -15 40t-37 15q-36 0 -55 -24t-19 -57q0 -25 15 -40t37 -15zM601 954q35 0 57.5 -21t22.5 -56q0 -48 -41 -87.5t-99 -39.5q-35 0 -57 20.5t-22 56.5q0 48 41 87.5t98 39.5zM300 568l-61 -261q-14 -62 -14 -105q0 -168 171 -168 q100 0 151 60.5t80 191.5l71 315q4 20 4 29q0 17 -11 24.5t-35 11.5l-32 5l7 29q58 -4 122 -4l115 4l-7 -29l-21 -5q-41 -10 -62.5 -32.5t-31.5 -65.5l-64 -286q-16 -72 -36.5 -122t-53.5 -92t-85 -62.5t-123 -20.5q-115 0 -182.5 52t-67.5 156q0 42 12 93l71 315q4 20 4 29 q0 17 -11 24.5t-35 11.5l-32 5l7 29q52 -3 140 -3l132 3l-7 -29l-21 -5q-41 -10 -62.5 -32.5t-31.5 -65.5z" />
<glyph unicode="&#x16f;" horiz-adv-x="496" d="M145 400q-29 0 -86 -82l-15 10q74 138 158 138q38 0 38 -39q0 -37 -34 -135l-60 -172q-12 -33 -12 -50q0 -19 15 -19q47 0 114.5 80t114.5 177.5t47 149.5q10 8 34 8q38 0 38 -36q0 -11 -5 -28l-94 -289q-7 -23 -7 -32q0 -28 69 -28v-22q-97 -4 -184 -46q99 243 114 285 h-4q-64 -119 -137.5 -202.5t-141.5 -83.5q-53 0 -53 50q0 35 19 87l60 171q27 76 27 94q0 14 -15 14zM379 572q38 0 56 24.5t18 56.5q0 25 -14.5 40t-37.5 15q-36 0 -55 -24t-19 -57q0 -25 15 -40t37 -15zM420 742q35 0 57.5 -21t22.5 -56q0 -48 -41 -87.5t-99 -39.5 q-35 0 -57 20.5t-22 56.5q0 48 41 87.5t98 39.5z" />
<glyph unicode="&#x170;" horiz-adv-x="795" d="M713 927q6 2 12 2q12 0 20.5 -9t8.5 -23q0 -38 -49.5 -77.5t-94.5 -53.5l-7 9q71 75 110 152zM588 927q6 2 12 2q12 0 20.5 -9t8.5 -23q0 -38 -49.5 -77.5t-94.5 -53.5l-7 9q71 75 110 152zM300 568l-61 -261q-14 -62 -14 -105q0 -168 171 -168q100 0 151 60.5t80 191.5 l71 315q4 20 4 29q0 17 -11 24.5t-35 11.5l-32 5l7 29q58 -4 122 -4l115 4l-7 -29l-21 -5q-41 -10 -62.5 -32.5t-31.5 -65.5l-64 -286q-16 -72 -36.5 -122t-53.5 -92t-85 -62.5t-123 -20.5q-115 0 -182.5 52t-67.5 156q0 42 12 93l71 315q4 20 4 29q0 17 -11 24.5t-35 11.5 l-32 5l7 29q52 -3 140 -3l132 3l-7 -29l-21 -5q-41 -10 -62.5 -32.5t-31.5 -65.5z" />
<glyph unicode="&#x171;" horiz-adv-x="496" d="M145 400q-29 0 -86 -82l-15 10q74 138 158 138q38 0 38 -39q0 -37 -34 -135l-60 -172q-12 -33 -12 -50q0 -19 15 -19q47 0 114.5 80t114.5 177.5t47 149.5q10 8 34 8q38 0 38 -36q0 -11 -5 -28l-94 -289q-7 -23 -7 -32q0 -28 69 -28v-22q-97 -4 -184 -46q99 243 114 285 h-4q-64 -119 -137.5 -202.5t-141.5 -83.5q-53 0 -53 50q0 35 19 87l60 171q27 76 27 94q0 14 -15 14zM475 694q0 -46 -73 -105t-132 -74l-5 13q93 94 168 207q20 0 31 -13t11 -28zM629 694q0 -46 -73 -105t-132 -74l-5 13q93 94 168 207q20 0 31 -13t11 -28z" />
<glyph unicode="&#x172;" horiz-adv-x="795" d="M480 -194q0 -17 -28 -35.5t-77 -18.5q-38 0 -60.5 18.5t-22.5 52.5q0 90 135 164q-28 -2 -43 -2q-115 0 -182.5 52t-67.5 156q0 42 12 93l71 315q4 20 4 29q0 17 -11 24.5t-35 11.5l-32 5l7 29q52 -3 140 -3l132 3l-7 -29l-21 -5q-41 -10 -62.5 -32.5t-31.5 -65.5 l-61 -261q-14 -62 -14 -105q0 -168 171 -168q100 0 151 60.5t80 191.5l71 315q4 20 4 29q0 17 -11 24.5t-35 11.5l-32 5l7 29q58 -4 122 -4l115 4l-7 -29l-21 -5q-41 -10 -62.5 -32.5t-31.5 -65.5l-64 -286q-27 -119 -71 -189.5t-128 -94.5q-117 -85 -117 -149q0 -45 53 -45 q34 0 51 19q10 -4 10 -17z" />
<glyph unicode="&#x173;" horiz-adv-x="496" d="M326 -194q0 -17 -26.5 -35.5t-75.5 -18.5q-39 0 -62.5 18.5t-23.5 52.5q0 51 42 97t101 77q97 239 109 273h-4q-64 -119 -137.5 -202.5t-141.5 -83.5q-53 0 -53 50q0 35 19 87l60 171q27 76 27 94q0 14 -15 14q-29 0 -86 -82l-15 10q74 138 158 138q38 0 38 -39 q0 -37 -34 -135l-60 -172q-12 -33 -12 -50q0 -19 15 -19q47 0 114.5 80t114.5 177.5t47 149.5q10 8 34 8q38 0 38 -36q0 -11 -5 -28l-94 -289q-7 -23 -7 -32q0 -28 69 -28v-22q-100 -13 -174 -64t-74 -118q0 -45 53 -45q34 0 51 19q10 -4 10 -17z" />
<glyph unicode="&#x174;" horiz-adv-x="1089" d="M485 780l192 137q68 -81 130 -139q-1 -11 -9.5 -17.5t-19.5 -6.5q-31 0 -62 34.5t-49 82.5l-133 -120zM1070 697l110 2l-7 -28l-21 -5q-32 -7 -55 -28.5t-52 -69.5l-359 -580l-31 -4l-33 559l-300 -555l-31 -4l-77 599q-5 39 -21 58.5t-49 24.5l-32 5l7 29q98 -4 128 -4 l151 4l-7 -29l-21 -5q-28 -6 -47.5 -23t-19.5 -44q0 -7 2 -25l50 -452l230 458q16 32 16 50t-11 25t-33 11l-32 5l7 29q50 -3 154 -3l37 -578l264 449q22 39 22 62q0 17 -10 24.5t-34 11.5l-32 5l7 29q67 -3 130 -3z" />
<glyph unicode="&#x175;" horiz-adv-x="689" d="M414 466q42 0 42 -63q0 -34 -6.5 -118.5t-13.5 -152.5l-6 -67q37 0 85 45t82 111t34 121q0 58 -44 65q4 27 21.5 42.5t40.5 15.5q29 0 46.5 -19.5t17.5 -49.5q0 -95 -98.5 -225t-246.5 -186l-11 10q5 108 11 203q-40 -73 -104 -129.5t-142 -83.5l-11 10q18 289 21 385 q0 20 -13 20q-35 0 -68 -95l-16 2q4 26 17.5 59.5t45 66.5t70.5 33q42 0 42 -63q0 -34 -6.5 -118.5t-13.5 -152.5l-6 -67q65 2 129.5 104.5t64.5 210.5q0 20 -13 20q-35 0 -68 -95l-16 2q4 26 17.5 59.5t45 66.5t70.5 33zM274 552l202 180q56 -114 117 -176q0 -10 -9.5 -19 t-26.5 -9q-40 0 -66 51t-29 107l-132 -158z" />
<glyph unicode="&#x176;" horiz-adv-x="695" d="M341 780l192 137q68 -81 130 -139q-1 -11 -9.5 -17.5t-19.5 -6.5q-31 0 -62 34.5t-49 82.5l-133 -120zM412 300l-46 -201q-4 -20 -4 -29q0 -17 11 -24.5t35 -11.5l32 -5l-7 -29q-54 3 -140 3l-132 -3l7 29l21 5q41 10 62.5 32.5t31.5 65.5l41 178l-25 139q-9 47 -15 75.5 t-16 57.5t-21 44.5t-27 25t-38 9.5q-30 0 -57 -24l-5 23q42 54 104 54q41 0 70 -19t46 -56.5t25.5 -72.5t16.5 -88l19 -131q5 14 20.5 47t48.5 91t69.5 106.5t85 85.5t92.5 37q31 0 49.5 -15.5t18.5 -44.5q0 -21 -17 -37t-35 -16q-6 0 -9 1q1 4 1 9q0 13 -9.5 22.5 t-29.5 9.5q-45 0 -108.5 -74t-107.5 -151t-58 -118z" />
<glyph unicode="&#x177;" horiz-adv-x="488" d="M503 396q0 -67 -59.5 -176t-145 -211.5t-191 -177t-187.5 -74.5q-30 0 -47.5 14.5t-17.5 38.5q0 43 45 55q10 -32 53 -32q71 0 137 39t85 78q6 13 6 86q0 77 -24 341q-2 23 -12 23q-16 0 -34.5 -25.5t-25 -42t-10.5 -27.5l-16 2q4 26 17.5 59.5t45 66.5t70.5 33 q24 0 32 -16t10 -46q11 -194 11 -401q67 64 121.5 166t54.5 173q0 58 -44 65q4 27 21.5 42.5t40.5 15.5q29 0 46.5 -19.5t17.5 -49.5zM194 552l202 180q56 -114 117 -176q0 -10 -9.5 -19t-26.5 -9q-40 0 -66 51t-29 107l-132 -158z" />
<glyph unicode="&#x178;" horiz-adv-x="695" d="M401 792q-20 0 -32 12.5t-12 31.5q0 23 17 42t42 19q19 0 31 -12.5t12 -31.5q0 -23 -17 -42t-41 -19zM599 792q-20 0 -32 12.5t-12 31.5q0 23 17 42t42 19q19 0 31 -12.5t12 -31.5q0 -23 -17.5 -42t-40.5 -19zM412 300l-46 -201q-4 -20 -4 -29q0 -17 11 -24.5t35 -11.5 l32 -5l-7 -29q-54 3 -140 3l-132 -3l7 29l21 5q41 10 62.5 32.5t31.5 65.5l41 178l-25 139q-9 47 -15 75.5t-16 57.5t-21 44.5t-27 25t-38 9.5q-30 0 -57 -24l-5 23q42 54 104 54q41 0 70 -19t46 -56.5t25.5 -72.5t16.5 -88l19 -131q5 14 20.5 47t48.5 91t69.5 106.5 t85 85.5t92.5 37q31 0 49.5 -15.5t18.5 -44.5q0 -21 -17 -37t-35 -16q-6 0 -9 1q1 4 1 9q0 13 -9.5 22.5t-29.5 9.5q-45 0 -108.5 -74t-107.5 -151t-58 -118z" />
<glyph unicode="&#x179;" horiz-adv-x="649" d="M526 927q6 2 12 2q12 0 20.5 -9t8.5 -23q0 -38 -49.5 -77.5t-94.5 -53.5l-7 9q71 75 110 152zM692 700l8 -22l-575 -637l194 3q49 1 88.5 11t64 21.5t50.5 39t39 45t39 57.5l6 9l24 -6l-83 -221h-548l-4 14l578 644l-218 -6q-85 -2 -127.5 -33.5t-69.5 -88.5l-24 3 l58 183h28q2 -16 45 -16h427z" />
<glyph unicode="&#x17a;" horiz-adv-x="503" d="M246 460q44 0 99.5 -34t78.5 -34q29 0 49.5 28t23.5 46q25 0 25 -20q0 -16 -11 -34.5t-33.5 -39.5t-39 -34.5t-46 -35.5t-35.5 -27q-42 -33 -126 -87t-115 -80l3 -3q12 7 30 7q45 0 116.5 -38t94.5 -38q34 0 55 14t21 41q0 18 -11.5 30t-32.5 12q-10 0 -16 -3q0 27 19 43 t39 16q25 0 39.5 -13.5t14.5 -38.5q0 -52 -51 -104.5t-117 -52.5q-36 0 -68.5 13.5t-52 30t-43 30t-44.5 13.5q-16 0 -27 -11.5t-11 -25.5q0 -18 12 -35q-13 -11 -30 -11q-15 0 -24.5 10.5t-9.5 27.5q0 21 10.5 40.5t33.5 40.5t43 35.5t56 39.5q14 9 53.5 35.5t66 45 t64 46.5t65.5 53l-3 3q-21 -8 -44 -8q-31 0 -90.5 24.5t-85.5 24.5q-19 0 -33.5 -10.5t-14.5 -30.5q0 -42 54 -42q-4 -23 -20 -36.5t-38 -13.5q-24 0 -37 15.5t-13 36.5q0 56 53 97.5t104 41.5zM544 694q0 -46 -73 -105t-132 -74l-5 13q93 94 168 207q20 0 31 -13t11 -28z " />
<glyph unicode="&#x17b;" horiz-adv-x="649" d="M465 785q-23 0 -37.5 14.5t-14.5 37.5q0 28 20.5 51t50.5 23q23 0 37 -15t14 -38q0 -27 -20.5 -50t-49.5 -23zM692 700l8 -22l-575 -637l194 3q49 1 88.5 11t64 21.5t50.5 39t39 45t39 57.5l6 9l24 -6l-83 -221h-548l-4 14l578 644l-218 -6q-85 -2 -127.5 -33.5 t-69.5 -88.5l-24 3l58 183h28q2 -16 45 -16h427z" />
<glyph unicode="&#x17c;" horiz-adv-x="503" d="M246 460q44 0 99.5 -34t78.5 -34q29 0 49.5 28t23.5 46q25 0 25 -20q0 -16 -11 -34.5t-33.5 -39.5t-39 -34.5t-46 -35.5t-35.5 -27q-42 -33 -126 -87t-115 -80l3 -3q12 7 30 7q45 0 116.5 -38t94.5 -38q34 0 55 14t21 41q0 18 -11.5 30t-32.5 12q-10 0 -16 -3q0 27 19 43 t39 16q25 0 39.5 -13.5t14.5 -38.5q0 -52 -51 -104.5t-117 -52.5q-36 0 -68.5 13.5t-52 30t-43 30t-44.5 13.5q-16 0 -27 -11.5t-11 -25.5q0 -18 12 -35q-13 -11 -30 -11q-15 0 -24.5 10.5t-9.5 27.5q0 21 10.5 40.5t33.5 40.5t43 35.5t56 39.5q14 9 53.5 35.5t66 45 t64 46.5t65.5 53l-3 3q-21 -8 -44 -8q-31 0 -90.5 24.5t-85.5 24.5q-19 0 -33.5 -10.5t-14.5 -30.5q0 -42 54 -42q-4 -23 -20 -36.5t-38 -13.5q-24 0 -37 15.5t-13 36.5q0 56 53 97.5t104 41.5zM375 563q-23 0 -37.5 14.5t-14.5 37.5q0 28 20.5 51t50.5 23q23 0 37 -15 t14 -38q0 -27 -20.5 -50t-49.5 -23z" />
<glyph unicode="&#x17d;" horiz-adv-x="649" d="M461 751l-130 131l63 35l77 -120q24 42 66.5 80t79.5 38q36 0 36 -28zM692 700l8 -22l-575 -637l194 3q49 1 88.5 11t64 21.5t50.5 39t39 45t39 57.5l6 9l24 -6l-83 -221h-548l-4 14l578 644l-218 -6q-85 -2 -127.5 -33.5t-69.5 -88.5l-24 3l58 183h28q2 -16 45 -16h427z " />
<glyph unicode="&#x17e;" horiz-adv-x="503" d="M246 460q44 0 99.5 -34t78.5 -34q29 0 49.5 28t23.5 46q25 0 25 -20q0 -16 -11 -34.5t-33.5 -39.5t-39 -34.5t-46 -35.5t-35.5 -27q-42 -33 -126 -87t-115 -80l3 -3q12 7 30 7q45 0 116.5 -38t94.5 -38q34 0 55 14t21 41q0 18 -11.5 30t-32.5 12q-10 0 -16 -3q0 27 19 43 t39 16q25 0 39.5 -13.5t14.5 -38.5q0 -52 -51 -104.5t-117 -52.5q-36 0 -68.5 13.5t-52 30t-43 30t-44.5 13.5q-16 0 -27 -11.5t-11 -25.5q0 -18 12 -35q-13 -11 -30 -11q-15 0 -24.5 10.5t-9.5 27.5q0 21 10.5 40.5t33.5 40.5t43 35.5t56 39.5q14 9 53.5 35.5t66 45 t64 46.5t65.5 53l-3 3q-21 -8 -44 -8q-31 0 -90.5 24.5t-85.5 24.5q-19 0 -33.5 -10.5t-14.5 -30.5q0 -42 54 -42q-4 -23 -20 -36.5t-38 -13.5q-24 0 -37 15.5t-13 36.5q0 56 53 97.5t104 41.5zM374 533l-117 176l66 23l61 -153q26 54 70.5 103.5t84.5 49.5q18 0 28 -8 t10 -18q-42 -29 -92.5 -72t-80.5 -72z" />
<glyph unicode="&#x192;" horiz-adv-x="510" d="M446 613q49 0 76.5 -19.5t27.5 -46.5q0 -21 -17 -35t-37 -14l-10 1q0 23 -18 46.5t-52 23.5q-91 0 -130 -126l-37 -121h132l-13 -38h-131l-70 -229q-25 -82 -59 -144.5t-68.5 -95.5t-65.5 -49t-57 -16q-30 0 -49.5 15t-19.5 42q0 39 41 51q20 -59 70 -59q34 0 57.5 33 t42.5 105l91 347h-86l3 13q21 2 44.5 7t36.5 9l13 4q30 129 109.5 212.5t175.5 83.5z" />
<glyph unicode="&#x1e2;" horiz-adv-x="902" d="M645 867q73 -3 138 -3l140 3l-13 -55q-65 3 -138 3l-140 -3zM500 671l7 29q52 -3 140 -3l319 3l-43 -164h-20q0 61 -35.5 95.5t-107.5 34.5q-48 0 -78 -7l-67 -281h77q41 0 65.5 19t43.5 58l19 39h26q-25 -71 -38 -128q-6 -28 -10.5 -55.5t-5.5 -40.5l-2 -14h-25l-1 25 q-2 58 -60 58h-99l-51 -214q-6 -24 -6 -40q0 -27 16.5 -39t54.5 -12q147 0 234 154l21 -3l-62 -185q-249 3 -335 3l-132 -3l7 29l21 5q41 10 62.5 32.5t31.5 65.5l29 130h-202l-114 -137q-2 -3 -9.5 -11t-10.5 -12t-8.5 -11t-8.5 -12t-5 -10.5t-2 -10.5q0 -16 38 -24l25 -5 l-7 -29q-79 3 -126 3l-112 -3l7 29l22 5q47 10 77 33.5t74 73.5l440 506q-8 13 -42 19zM326 303h180l65 284z" />
<glyph unicode="&#x1e3;" horiz-adv-x="657" d="M676 397q0 -57 -69.5 -101.5t-212.5 -81.5q-15 -51 -15 -98q0 -32 16.5 -53.5t52.5 -21.5q42 0 84.5 31t65.5 65l15 -11q-9 -17 -21.5 -34t-38 -45t-60.5 -45.5t-74 -17.5q-59 0 -90.5 31.5t-31.5 89.5q0 12 1 19q-74 -141 -170 -141q-44 0 -66 31.5t-22 82.5 q0 80 40 159.5t107 131t139 51.5q64 0 98 -46q78 73 175 73q39 0 58 -20.5t19 -48.5zM165 42q39 0 84.5 58.5t76.5 128t47 127.5q-19 45 -67 45q-75 0 -131.5 -90.5t-56.5 -193.5q0 -40 10.5 -57.5t36.5 -17.5zM599 390q0 36 -34 36q-56 0 -104 -63t-61 -122q35 11 61.5 21 t62 28.5t55.5 44t20 55.5zM374 643q71 -3 136 -3l136 3l-12 -55q-63 3 -136 3l-136 -3z" />
<glyph unicode="&#x1fa;" d="M504 886q35 0 57.5 -21t22.5 -56q0 -36 -24 -69t-63 -48l55 -599q2 -28 15 -41t42 -18l32 -5l-7 -29q-54 3 -125 3l-155 -3l7 29l21 5q80 16 74 90l-10 138h-213l-72 -137q-25 -46 -25 -64q0 -21 41 -27l32 -5l-7 -29q-72 3 -119 3l-120 -3l7 29l21 5q44 10 68 34.5 t51 72.5l307 544q-52 15 -52 74q0 48 41 87.5t98 39.5zM441 303l-26 294l-163 -294h189zM463 716q38 0 56 24.5t18 56.5q0 25 -14.5 40t-37.5 15q-36 0 -55 -24t-19 -57q0 -25 15 -40t37 -15zM569 1071q6 2 12 2q12 0 20.5 -9t8.5 -23q0 -38 -49.5 -77.5t-94.5 -53.5l-7 9 q71 75 110 152z" />
<glyph unicode="&#x1fb;" horiz-adv-x="478" d="M472 927q6 2 12 2q12 0 20.5 -9t8.5 -23q0 -38 -49.5 -77.5t-94.5 -53.5l-7 9q71 75 110 152zM374 50q38 0 93 90l15 -10q-23 -54 -62.5 -100.5t-86.5 -46.5q-52 0 -52 57q0 37 30 115h-4q-16 -33 -28 -54t-36 -53t-54.5 -48.5t-66.5 -16.5q-44 0 -66 31.5t-22 82.5 q0 80 40 159.5t107 131t139 51.5q39 0 77 -31q6 19 21 38t37 19q21 0 38 -15q-28 -32 -83 -172t-55 -206q0 -22 19 -22zM159 42q39 0 84.5 58.5t76.5 128t47 127.5q-19 45 -67 45q-75 0 -131.5 -90.5t-56.5 -193.5q0 -40 10.5 -57.5t36.5 -17.5zM364 559q38 0 56 24.5 t18 56.5q0 26 -15 40.5t-37 14.5q-36 0 -55 -24t-19 -57q0 -25 15 -40t37 -15zM405 729q35 0 57.5 -21t22.5 -56q0 -48 -41 -87.5t-99 -39.5q-35 0 -57 20.5t-22 56.5q0 48 41 87.5t98 39.5z" />
<glyph unicode="&#x1fc;" horiz-adv-x="902" d="M801 927q6 2 12 2q12 0 20.5 -9t8.5 -23q0 -38 -49.5 -77.5t-94.5 -53.5l-7 9q71 75 110 152zM500 671l7 29q52 -3 140 -3l319 3l-43 -164h-20q0 61 -35.5 95.5t-107.5 34.5q-48 0 -78 -7l-67 -281h77q41 0 65.5 19t43.5 58l19 39h26q-25 -71 -38 -128 q-6 -28 -10.5 -55.5t-5.5 -40.5l-2 -14h-25l-1 25q-2 58 -60 58h-99l-51 -214q-6 -24 -6 -40q0 -27 16.5 -39t54.5 -12q147 0 234 154l21 -3l-62 -185q-249 3 -335 3l-132 -3l7 29l21 5q41 10 62.5 32.5t31.5 65.5l29 130h-202l-114 -137q-2 -3 -9.5 -11t-10.5 -12t-8.5 -11 t-8.5 -12t-5 -10.5t-2 -10.5q0 -16 38 -24l25 -5l-7 -29q-79 3 -126 3l-112 -3l7 29l22 5q47 10 77 33.5t74 73.5l440 506q-8 13 -42 19zM326 303h180l65 284z" />
<glyph unicode="&#x1fd;" horiz-adv-x="657" d="M676 397q0 -57 -69.5 -101.5t-212.5 -81.5q-15 -51 -15 -98q0 -32 16.5 -53.5t52.5 -21.5q42 0 84.5 31t65.5 65l15 -11q-9 -17 -21.5 -34t-38 -45t-60.5 -45.5t-74 -17.5q-59 0 -90.5 31.5t-31.5 89.5q0 12 1 19q-74 -141 -170 -141q-44 0 -66 31.5t-22 82.5 q0 80 40 159.5t107 131t139 51.5q64 0 98 -46q78 73 175 73q39 0 58 -20.5t19 -48.5zM165 42q39 0 84.5 58.5t76.5 128t47 127.5q-19 45 -67 45q-75 0 -131.5 -90.5t-56.5 -193.5q0 -40 10.5 -57.5t36.5 -17.5zM599 390q0 36 -34 36q-56 0 -104 -63t-61 -122q35 11 61.5 21 t62 28.5t55.5 44t20 55.5zM654 694q0 -46 -73 -105t-132 -74l-5 13q93 94 168 207q20 0 31 -13t11 -28z" />
<glyph unicode="&#x1fe;" horiz-adv-x="760" d="M495 714q104 0 172 -56l51 56h63q-6 -6 -34.5 -35t-48.5 -51q60 -71 60 -183q0 -121 -58.5 -227t-160 -170t-219.5 -64q-102 0 -169 53l-48 -53h-63q33 34 79 83q-62 72 -62 186q0 121 58.5 227t160 170t219.5 64zM185 137q102 106 212 226l212 231q-60 81 -162 81 q-70 0 -128 -40t-92 -102t-52 -129.5t-18 -130.5q0 -78 28 -136zM368 23q70 0 128 40t92 102t52 129.5t18 130.5q0 75 -27 132l-210 -223q-44 -48 -213 -234q60 -77 160 -77zM577 927q6 2 12 2q12 0 20.5 -9t8.5 -23q0 -38 -49.5 -77.5t-94.5 -53.5l-7 9q71 75 110 152z" />
<glyph unicode="&#x1ff;" horiz-adv-x="435" d="M161 -16q-57 0 -89 41q-27 -27 -39 -41h-60l80 81q-8 27 -8 58q0 55 21.5 116t57 111t87.5 83t107 33q56 0 87 -40l38 39h63q-45 -42 -80 -77q9 -27 9 -62q0 -75 -35.5 -153.5t-100 -133.5t-138.5 -55zM190 21q43 0 82 50.5t60 118.5t21 126q-22 -21 -43.5 -42.5 t-41 -41.5t-24.5 -25l-114 -119q12 -67 60 -67zM127 141l221 226q-12 61 -58 61q-42 0 -80.5 -48.5t-59.5 -114.5t-23 -124zM500 694q0 -46 -73 -105t-132 -74l-5 13q93 94 168 207q20 0 31 -13t11 -28z" />
<glyph unicode="&#x218;" horiz-adv-x="487" d="M542 693l-47 -156h-29q4 20 4 35q0 45 -33.5 74t-93.5 29q-52 0 -83.5 -30.5t-31.5 -75.5q0 -40 22 -74.5t53.5 -62t63 -57.5t53.5 -76t22 -104q0 -86 -63.5 -148.5t-178.5 -62.5q-37 0 -92.5 15t-90.5 15l30 163h25v-16q0 -137 138 -137q68 0 110.5 35.5t42.5 90.5 q0 43 -22 81t-53.5 68t-63 61t-53.5 75t-22 95q0 78 57.5 131t153.5 53q37 0 92.5 -10.5t89.5 -10.5zM171 -62q24 0 39.5 -15t15.5 -40q0 -64 -60.5 -109t-129.5 -54l-2 18q45 12 70.5 37.5t25.5 53.5q0 33 -35 48q6 27 27 44t49 17z" />
<glyph unicode="&#x219;" horiz-adv-x="335" d="M368 409q0 -23 -16.5 -39t-43.5 -16q-8 0 -16 2q5 10 5 20q0 43 -52 43q-36 0 -55.5 -21.5t-19.5 -48.5q0 -30 24.5 -63t49 -71t24.5 -80q0 -67 -58 -109t-119 -42q-87 0 -87 53q0 25 18 40.5t42 15.5l10 -1q-6 -10 -6 -22q0 -15 15 -25t35 -10q82 0 82 67q0 34 -21 68 t-42 71.5t-21 79.5q0 60 52.5 102.5t109.5 42.5q42 0 66 -16t24 -41zM89 -62q24 0 39.5 -15t15.5 -40q0 -64 -60.5 -109t-129.5 -54l-2 18q45 12 70.5 37.5t25.5 53.5q0 33 -35 48q6 27 27 44t49 17z" />
<glyph unicode="&#x237;" horiz-adv-x="272" d="M59 21l102 315q6 24 6 33q0 28 -68 28v22q97 4 184 46l-134 -416q-22 -67 -48.5 -111.5t-71.5 -77.5q-30 -21 -94 -36t-96 -35l-6 19q25 22 80.5 44.5t75.5 41.5q43 40 70 127z" />
<glyph unicode="&#x2b0;" horiz-adv-x="407" d="M300 891q-52 -137 -96 -252t-60.5 -158.5t-17.5 -45.5h4q47 96 107 162.5t117 66.5q43 0 43 -40q0 -28 -15 -70l-49 -136q-22 -61 -22 -75q0 -12 12 -12q21 0 68 66l13 -9q-60 -109 -126 -109q-32 0 -32 30q0 34 27 109l49 135q10 26 10 40q0 16 -12 16 q-38 0 -91.5 -63.5t-91 -141.5t-37.5 -119q-9 -6 -29 -6q-32 0 -32 28q0 12 5 26l154 454q6 15 6 27q0 22 -51 22v19q77 3 147 36z" />
<glyph unicode="&#x2b2;" horiz-adv-x="218" d="M78 606v20q79 4 148 37l-107 -333q-18 -56 -37.5 -90.5t-53.5 -59.5q-24 -17 -78 -29.5t-79 -28.5l-7 16q20 17 65.5 35t61.5 33q33 30 56 102l81 249q5 15 5 26q0 23 -55 23zM225 779q-15 0 -24.5 10t-9.5 25q0 18 13.5 33t32.5 15q15 0 24 -9.5t9 -24.5 q0 -18 -13 -33.5t-32 -15.5z" />
<glyph unicode="&#x2b7;" horiz-adv-x="538" d="M318 665q34 0 34 -51q0 -27 -5 -94.5t-11 -121.5l-5 -54q47 0 104 77t57 145q0 46 -35 52q4 21 17.5 33.5t31.5 12.5q24 0 38.5 -15.5t14.5 -39.5q0 -83 -77.5 -183.5t-198.5 -145.5l-10 8q4 86 9 162q-69 -125 -196 -170l-10 8q14 230 17 307q0 16 -11 16q-27 0 -53 -76 l-14 3q3 21 14 47.5t36.5 53t56.5 26.5q33 0 33 -51q0 -27 -5.5 -94.5t-10.5 -121.5l-5 -54q52 2 104 83.5t52 167.5q0 16 -11 16q-27 0 -53 -76l-14 3q6 38 34 82.5t72 44.5z" />
<glyph unicode="&#x2b8;" horiz-adv-x="390" d="M402 609q0 -72 -77 -194t-190 -219.5t-199 -97.5q-24 0 -38 11.5t-14 30.5q0 35 36 44q8 -25 42 -25q58 0 110.5 30.5t67.5 62.5q8 18 5 69q-11 196 -19 266q-3 25 -10 25q-10 0 -20.5 -11t-18.5 -27t-11.5 -24.5t-5.5 -13.5l-13 2q6 38 34 82.5t72 44.5q19 0 25.5 -13 t8.5 -37q9 -158 9 -320q54 50 97.5 132t43.5 139q0 46 -36 52q4 21 18 33.5t32 12.5q23 0 37 -15.5t14 -39.5z" />
<glyph unicode="&#x2c6;" horiz-adv-x="337" d="M145 552l202 180q56 -114 117 -176q0 -10 -9 -19t-27 -9q-40 0 -66 51t-29 107l-132 -158z" />
<glyph unicode="&#x2c7;" horiz-adv-x="337" d="M299 533l-117 176l66 23l61 -153q26 54 70.5 103.5t84.5 49.5q18 0 28 -8t10 -18q-42 -29 -92.5 -72t-80.5 -72z" />
<glyph unicode="&#x2d8;" horiz-adv-x="349" d="M444 698h28q-17 -72 -63.5 -113.5t-112.5 -41.5q-54 0 -84.5 28t-30.5 79q0 21 6 48h68q-4 -16 -4 -33q0 -66 70 -66q46 0 79.5 26.5t43.5 72.5z" />
<glyph unicode="&#x2d9;" horiz-adv-x="220" d="M271 563q-23 0 -37.5 14.5t-14.5 37.5q0 28 20.5 51t50.5 23q23 0 37 -15t14 -38q0 -27 -20.5 -50t-49.5 -23z" />
<glyph unicode="&#x2da;" horiz-adv-x="282" d="M281 572q38 0 56 24.5t18 56.5q0 25 -14.5 40t-37.5 15q-36 0 -55 -24t-19 -57q0 -25 15 -40t37 -15zM322 742q35 0 57.5 -21t22.5 -56q0 -48 -41 -87.5t-99 -39.5q-35 0 -57 20.5t-22 56.5q0 48 41 87.5t98 39.5z" />
<glyph unicode="&#x2db;" horiz-adv-x="208" d="M165 -194q0 -17 -28 -35.5t-77 -18.5q-38 0 -60.5 18.5t-22.5 52.5q0 32 19 63.5t46 53t54 38.5t46 25l19 8l7 -13q-117 -85 -117 -149q0 -45 53 -45q34 0 51 19q10 -4 10 -17z" />
<glyph unicode="&#x2dc;" horiz-adv-x="380" d="M287 677q31 0 66 -24t61 -24q52 0 81 51l11 -16q-37 -95 -123 -95q-30 0 -63.5 24t-59.5 24q-52 0 -80 -51l-12 16q17 43 48 69t71 26z" />
<glyph unicode="&#x2dd;" horiz-adv-x="436" d="M327 694q0 -46 -73 -105t-132 -74l-5 13q93 94 168 207q20 0 31 -13t11 -28zM481 694q0 -46 -73 -105t-132 -74l-5 13q93 94 168 207q20 0 31 -13t11 -28z" />
<glyph unicode="&#x2e3;" horiz-adv-x="439" d="M265 498q17 -164 48 -164t73 91l15 -4q-45 -142 -104 -142q-28 0 -47.5 38.5t-25.5 77.5l-5 39l-11 -16.5t-28.5 -37.5t-42 -47t-47 -37t-48.5 -17q-42 0 -42 37q0 17 13 30t23 13q0 -21 23 -21q26 0 64 32t63 64l26 33q-9 144 -40 144q-14 0 -32.5 -23t-29.5 -46 l-11 -23l-12 10q2 6 5.5 15t15 32.5t24 41.5t32 32.5t39.5 14.5q19 0 33 -33.5t18 -66.5l5 -33q3 5 8 14t21.5 32t33 40t41.5 31.5t49 14.5q23 0 36 -11t13 -29q0 -21 -18.5 -34t-34.5 -13q0 1 0.5 4.5t0.5 5.5q0 21 -25 21q-23 0 -53 -27.5t-48 -54.5z" />
<glyph unicode="&#x3a9;" horiz-adv-x="833" d="M534 675q-116 0 -195.5 -88.5t-79.5 -200.5q0 -61 47.5 -175.5t47.5 -173.5q0 -17 -3 -37h-270l10 159h25q1 -41 18.5 -63t65.5 -22h101q-2 22 -24.5 57.5t-48.5 69.5t-47 84t-21 99q0 102 58 179.5t143.5 114t180.5 36.5q124 0 201 -58.5t77 -169.5q0 -52 -23.5 -105.5 t-60.5 -98t-74 -81.5t-74 -72.5t-51 -54.5h109q49 0 75 22t41 63h26l-48 -159h-279q14 52 46.5 104.5t67.5 95t68.5 87t55 97.5t21.5 108q0 86 -47.5 134.5t-138.5 48.5z" />
<glyph unicode="&#x3c0;" horiz-adv-x="571" d="M429 377h-131q-16 -47 -37 -121.5t-33.5 -112.5t-31.5 -80.5t-41.5 -60.5t-51.5 -18q-14 0 -25.5 11t-11.5 29q32 17 61 54.5t53 92.5t39.5 99t35.5 107q-52 0 -87 -19t-58 -69l-14 5q27 147 171 147h241q60 0 86 15l8 -5q-15 -41 -46 -57t-91 -17q-28 -55 -49.5 -134 t-21.5 -138q0 -52 40 -52q23 0 43 14.5t48 47.5l14 -12q-70 -119 -156 -119q-64 0 -64 77q0 32 6 64t20 68.5t23.5 58.5t31.5 66.5t29 58.5z" />
<glyph unicode="&#x1e80;" horiz-adv-x="1089" d="M606 927q39 -77 110 -152l-7 -9q-45 14 -94.5 53.5t-49.5 77.5q0 14 8.5 23t20.5 9q6 0 12 -2zM1070 697l110 2l-7 -28l-21 -5q-32 -7 -55 -28.5t-52 -69.5l-359 -580l-31 -4l-33 559l-300 -555l-31 -4l-77 599q-5 39 -21 58.5t-49 24.5l-32 5l7 29q98 -4 128 -4l151 4 l-7 -29l-21 -5q-28 -6 -47.5 -23t-19.5 -44q0 -7 2 -25l50 -452l230 458q16 32 16 50t-11 25t-33 11l-32 5l7 29q50 -3 154 -3l37 -578l264 449q22 39 22 62q0 17 -10 24.5t-34 11.5l-32 5l7 29q67 -3 130 -3z" />
<glyph unicode="&#x1e81;" horiz-adv-x="689" d="M414 466q42 0 42 -63q0 -34 -6.5 -118.5t-13.5 -152.5l-6 -67q37 0 85 45t82 111t34 121q0 58 -44 65q4 27 21.5 42.5t40.5 15.5q29 0 46.5 -19.5t17.5 -49.5q0 -95 -98.5 -225t-246.5 -186l-11 10q5 108 11 203q-40 -73 -104 -129.5t-142 -83.5l-11 10q18 289 21 385 q0 20 -13 20q-35 0 -68 -95l-16 2q4 26 17.5 59.5t45 66.5t70.5 33q42 0 42 -63q0 -34 -6.5 -118.5t-13.5 -152.5l-6 -67q65 2 129.5 104.5t64.5 210.5q0 20 -13 20q-35 0 -68 -95l-16 2q4 26 17.5 59.5t45 66.5t70.5 33zM272 694q0 15 11 28t31 13q75 -113 168 -207l-5 -13 q-59 15 -132 74t-73 105z" />
<glyph unicode="&#x1e82;" horiz-adv-x="1089" d="M739 927q6 2 12 2q12 0 20.5 -9t8.5 -23q0 -38 -49.5 -77.5t-94.5 -53.5l-7 9q71 75 110 152zM1070 697l110 2l-7 -28l-21 -5q-32 -7 -55 -28.5t-52 -69.5l-359 -580l-31 -4l-33 559l-300 -555l-31 -4l-77 599q-5 39 -21 58.5t-49 24.5l-32 5l7 29q98 -4 128 -4l151 4 l-7 -29l-21 -5q-28 -6 -47.5 -23t-19.5 -44q0 -7 2 -25l50 -452l230 458q16 32 16 50t-11 25t-33 11l-32 5l7 29q50 -3 154 -3l37 -578l264 449q22 39 22 62q0 17 -10 24.5t-34 11.5l-32 5l7 29q67 -3 130 -3z" />
<glyph unicode="&#x1e83;" horiz-adv-x="689" d="M414 466q42 0 42 -63q0 -34 -6.5 -118.5t-13.5 -152.5l-6 -67q37 0 85 45t82 111t34 121q0 58 -44 65q4 27 21.5 42.5t40.5 15.5q29 0 46.5 -19.5t17.5 -49.5q0 -95 -98.5 -225t-246.5 -186l-11 10q5 108 11 203q-40 -73 -104 -129.5t-142 -83.5l-11 10q18 289 21 385 q0 20 -13 20q-35 0 -68 -95l-16 2q4 26 17.5 59.5t45 66.5t70.5 33q42 0 42 -63q0 -34 -6.5 -118.5t-13.5 -152.5l-6 -67q65 2 129.5 104.5t64.5 210.5q0 20 -13 20q-35 0 -68 -95l-16 2q4 26 17.5 59.5t45 66.5t70.5 33zM582 694q0 -46 -73 -105t-132 -74l-5 13 q93 94 168 207q20 0 31 -13t11 -28z" />
<glyph unicode="&#x1e84;" horiz-adv-x="1089" d="M575 792q-20 0 -32 12.5t-12 31.5q0 23 17 42t42 19q19 0 31 -12.5t12 -31.5q0 -23 -17 -42t-41 -19zM773 792q-20 0 -32 12.5t-12 31.5q0 23 17 42t42 19q19 0 31 -12.5t12 -31.5q0 -23 -17.5 -42t-40.5 -19zM1070 697l110 2l-7 -28l-21 -5q-32 -7 -55 -28.5t-52 -69.5 l-359 -580l-31 -4l-33 559l-300 -555l-31 -4l-77 599q-5 39 -21 58.5t-49 24.5l-32 5l7 29q98 -4 128 -4l151 4l-7 -29l-21 -5q-28 -6 -47.5 -23t-19.5 -44q0 -7 2 -25l50 -452l230 458q16 32 16 50t-11 25t-33 11l-32 5l7 29q50 -3 154 -3l37 -578l264 449q22 39 22 62 q0 17 -10 24.5t-34 11.5l-32 5l7 29q67 -3 130 -3z" />
<glyph unicode="&#x1e85;" horiz-adv-x="689" d="M414 466q42 0 42 -63q0 -34 -6.5 -118.5t-13.5 -152.5l-6 -67q37 0 85 45t82 111t34 121q0 58 -44 65q4 27 21.5 42.5t40.5 15.5q29 0 46.5 -19.5t17.5 -49.5q0 -95 -98.5 -225t-246.5 -186l-11 10q5 108 11 203q-40 -73 -104 -129.5t-142 -83.5l-11 10q18 289 21 385 q0 20 -13 20q-35 0 -68 -95l-16 2q4 26 17.5 59.5t45 66.5t70.5 33q42 0 42 -63q0 -34 -6.5 -118.5t-13.5 -152.5l-6 -67q65 2 129.5 104.5t64.5 210.5q0 20 -13 20q-35 0 -68 -95l-16 2q4 26 17.5 59.5t45 66.5t70.5 33zM357 556q-20 0 -32 12.5t-12 31.5q0 23 17 42t42 19 q19 0 31 -12.5t12 -31.5q0 -23 -17 -42t-41 -19zM543 556q-20 0 -32 12.5t-12 31.5q0 23 17 42t42 19q19 0 31 -12.5t12 -31.5q0 -23 -17.5 -42t-40.5 -19z" />
<glyph unicode="&#x1ef2;" horiz-adv-x="695" d="M365 927q39 -77 110 -152l-7 -9q-45 14 -94.5 53.5t-49.5 77.5q0 14 8.5 23t20.5 9q6 0 12 -2zM412 300l-46 -201q-4 -20 -4 -29q0 -17 11 -24.5t35 -11.5l32 -5l-7 -29q-54 3 -140 3l-132 -3l7 29l21 5q41 10 62.5 32.5t31.5 65.5l41 178l-25 139q-9 47 -15 75.5 t-16 57.5t-21 44.5t-27 25t-38 9.5q-30 0 -57 -24l-5 23q42 54 104 54q41 0 70 -19t46 -56.5t25.5 -72.5t16.5 -88l19 -131q5 14 20.5 47t48.5 91t69.5 106.5t85 85.5t92.5 37q31 0 49.5 -15.5t18.5 -44.5q0 -21 -17 -37t-35 -16q-6 0 -9 1q1 4 1 9q0 13 -9.5 22.5 t-29.5 9.5q-45 0 -108.5 -74t-107.5 -151t-58 -118z" />
<glyph unicode="&#x1ef3;" horiz-adv-x="488" d="M503 396q0 -67 -59.5 -176t-145 -211.5t-191 -177t-187.5 -74.5q-30 0 -47.5 14.5t-17.5 38.5q0 43 45 55q10 -32 53 -32q71 0 137 39t85 78q6 13 6 86q0 77 -24 341q-2 23 -12 23q-16 0 -34.5 -25.5t-25 -42t-10.5 -27.5l-16 2q4 26 17.5 59.5t45 66.5t70.5 33 q24 0 32 -16t10 -46q11 -194 11 -401q67 64 121.5 166t54.5 173q0 58 -44 65q4 27 21.5 42.5t40.5 15.5q29 0 46.5 -19.5t17.5 -49.5zM139 694q0 15 11 28t31 13q75 -113 168 -207l-5 -13q-59 15 -132 74t-73 105z" />
<glyph unicode="&#x2013;" horiz-adv-x="612" d="M569 264h-504l15 54h504z" />
<glyph unicode="&#x2014;" horiz-adv-x="1108" d="M1064 264h-1000l15 54h1000z" />
<glyph unicode="&#x2018;" horiz-adv-x="244" d="M235 529q-25 0 -40 18t-15 46q0 72 55.5 127.5t130.5 71.5l3 -15q-44 -16 -75 -49.5t-31 -77.5q0 -47 33 -64q-5 -24 -21.5 -40.5t-39.5 -16.5z" />
<glyph unicode="&#x2019;" horiz-adv-x="244" d="M243 774q25 0 40 -18t15 -46q0 -72 -55.5 -127.5t-130.5 -71.5l-3 15q44 16 75 49.5t31 77.5q0 47 -33 64q5 24 21.5 40.5t39.5 16.5z" />
<glyph unicode="&#x201a;" horiz-adv-x="245" d="M114 104q25 0 40 -18t15 -46q0 -72 -55.5 -127.5t-130.5 -71.5l-3 15q44 16 75 49.5t31 77.5q0 47 -33 64q5 24 21.5 40.5t39.5 16.5z" />
<glyph unicode="&#x201c;" horiz-adv-x="414" d="M235 529q-25 0 -40 18t-15 46q0 72 55.5 127.5t130.5 71.5l3 -15q-44 -16 -75 -49.5t-31 -77.5q0 -47 33 -64q-5 -24 -21.5 -40.5t-39.5 -16.5zM405 529q-25 0 -40 18t-15 46q0 72 55.5 127.5t130.5 71.5l3 -15q-44 -16 -75 -49.5t-31 -77.5q0 -47 33 -64 q-5 -24 -21.5 -40.5t-39.5 -16.5z" />
<glyph unicode="&#x201d;" horiz-adv-x="414" d="M413 774q25 0 40 -18t15 -46q0 -72 -55.5 -127.5t-130.5 -71.5l-3 15q44 16 75 49.5t31 77.5q0 47 -33 64q5 24 21.5 40.5t39.5 16.5zM243 774q25 0 40 -18t15 -46q0 -72 -55.5 -127.5t-130.5 -71.5l-3 15q44 16 75 49.5t31 77.5q0 47 -33 64q5 24 21.5 40.5t39.5 16.5z " />
<glyph unicode="&#x201e;" horiz-adv-x="415" d="M284 104q25 0 40 -18t15 -46q0 -72 -55.5 -127.5t-130.5 -71.5l-3 15q44 16 75 49.5t31 77.5q0 47 -33 64q5 24 21.5 40.5t39.5 16.5zM114 104q25 0 40 -18t15 -46q0 -72 -55.5 -127.5t-130.5 -71.5l-3 15q44 16 75 49.5t31 77.5q0 47 -33 64q5 24 21.5 40.5t39.5 16.5z " />
<glyph unicode="&#x2020;" horiz-adv-x="607" d="M221 -192h-23l69 273q6 24 6 45q0 42 -24 92q70 70 88 137l12 58h-6q-25 0 -80.5 -16t-78.5 -16q-52 0 -52 30q0 25 21 38t50 13q23 0 71.5 -15t73.5 -15h6l2 8q6 30 6 68q0 14 -1 40.5t-1 39.5q0 35 5 55q8 32 27.5 51.5t47.5 19.5q43 0 43 -44q0 -14 -4 -27 q-6 -26 -46.5 -100t-48.5 -103l-2 -8h6q25 0 81 15t79 15q51 0 51 -31q0 -25 -22 -37.5t-50 -12.5q-23 0 -71 16t-73 16h-6q-9 -28 -17 -58q-5 -20 -5 -45q0 -44 23 -92q-72 -72 -88 -137z" />
<glyph unicode="&#x2021;" horiz-adv-x="606" d="M209 -192q-43 0 -43 44q0 42 45 119.5t53 107.5l2 8h-6q-25 0 -81 -14.5t-79 -14.5q-51 0 -51 29q0 25 22.5 38t50.5 13q23 0 70.5 -15.5t72.5 -15.5h6q6 16 10 33q4 15 4 34q0 49 -26 85q70 66 83 120l7 34h-6q-25 0 -81 -16t-79 -16q-51 0 -51 30q0 25 22 38t48 13 q24 0 72 -15t74 -15h5l2 8q7 28 7 68q0 14 -1 40.5t-1 39.5q0 35 5 55q17 71 75 71q19 0 31 -12t12 -31q0 -45 -45 -122t-54 -109l-2 -8h6q25 0 81 15t79 15q51 0 51 -31q0 -25 -22 -37.5t-50 -12.5q-23 0 -71 16t-73 16h-6q-6 -16 -10 -34q-4 -15 -4 -33q0 -42 26 -87 q-67 -54 -83 -119l-7 -33h6q25 0 81.5 15.5t79.5 15.5q50 0 50 -31q0 -25 -21.5 -37t-48.5 -12q-24 0 -72 14.5t-74 14.5h-5l-2 -8q-6 -26 -6 -56q0 -15 1.5 -46t1.5 -45q0 -30 -6 -53q-17 -71 -75 -71z" />
<glyph unicode="&#x2022;" horiz-adv-x="500" d="M75 251q0 73 51 124t124 51t124 -51t51 -124q0 -72 -51 -123.5t-124 -51.5t-124 51.5t-51 123.5z" />
<glyph unicode="&#x2030;" horiz-adv-x="1089" d="M662 635h61q-213 -252 -284 -337l-267 -323h-62q217 253 289 339zM297 603q-31 0 -54.5 -31.5t-33 -68t-9.5 -66.5q0 -35 14 -54.5t36 -19.5q44 0 70.5 56.5t26.5 107.5q0 34 -12.5 55t-37.5 21zM321 643q47 0 72 -29.5t25 -76.5q0 -83 -58 -148.5t-134 -65.5 q-43 0 -69.5 27.5t-26.5 76.5q0 83 57.5 149.5t133.5 66.5zM574 245q-31 0 -54.5 -31.5t-33 -68t-9.5 -66.5q0 -35 14 -54.5t36 -19.5q44 0 70.5 56.5t26.5 107.5q0 34 -12.5 55t-37.5 21zM598 285q47 0 72 -29.5t25 -76.5q0 -83 -58 -148.5t-134 -65.5q-43 0 -69.5 27.5 t-26.5 76.5q0 83 57.5 149.5t133.5 66.5zM905 245q-31 0 -54.5 -31.5t-33 -68t-9.5 -66.5q0 -35 14 -54.5t36 -19.5q44 0 70.5 56.5t26.5 107.5q0 34 -12.5 55t-37.5 21zM929 285q47 0 72 -29.5t25 -76.5q0 -83 -58 -148.5t-134 -65.5q-43 0 -69.5 27.5t-26.5 76.5 q0 83 57.5 149.5t133.5 66.5z" />
<glyph unicode="&#x2039;" horiz-adv-x="292" d="M64 237l208 220l28 -51l-185 -167q42 -34 78.5 -80t36.5 -88q0 -26 -18 -43t-35 -17q-17 47 -45 103.5t-48 89.5z" />
<glyph unicode="&#x203a;" horiz-adv-x="292" d="M232 231l-187 -197l-25 46l166 150q-37 29 -70 70.5t-33 79.5q0 24 14 39t33 15q8 -36 33.5 -87t46.5 -83z" />
<glyph unicode="&#x2044;" horiz-adv-x="398" d="M554 788l44 -22q-137 -187 -325 -461t-267 -396l-45 23q79 110 280 399.5t313 456.5z" />
<glyph unicode="&#x2070;" horiz-adv-x="413" d="M365 718q-42 0 -76 -39.5t-51 -94.5t-17 -108q0 -59 20 -94.5t52 -35.5q62 0 103 78t41 162q0 59 -20.5 95.5t-51.5 36.5zM270 312q-56 0 -90.5 41.5t-34.5 113.5q0 111 68 197t176 86q55 0 89.5 -41.5t34.5 -112.5q0 -111 -69 -197.5t-174 -86.5z" />
<glyph unicode="&#x2074;" horiz-adv-x="381" d="M457 434h-85l-14 -59q-5 -18 19 -22l24 -5l-6 -26h-161l6 25l24 6q26 6 32 32l11 49h-174l-5 18l138 141q63 65 63 121q0 18 -5 28q13 8 29 8q21 0 34 -13.5t13 -31.5q0 -29 -24.5 -58.5t-80.5 -81.5l-95 -89h117l19 86l73 33l-27 -119h85z" />
<glyph unicode="&#x2075;" horiz-adv-x="344" d="M224 344q50 0 86.5 38t36.5 87q0 36 -22 56.5t-59 20.5q-17 0 -33.5 -3.5t-24.5 -6.5l-7 -4l-11 3l64 208h150q24 0 38.5 8.5t28.5 30.5l15 -2l-34 -95h-181l-29 -91q20 4 46 4q67 0 101.5 -30.5t34.5 -78.5q0 -79 -66 -128t-150 -49q-42 0 -66.5 14.5t-24.5 36.5 q0 19 14.5 32t35.5 13q11 0 22 -4q-7 -13 -7 -25q0 -15 10.5 -25t31.5 -10z" />
<glyph unicode="&#x2076;" horiz-adv-x="376" d="M315 531q-16 0 -48.5 -10.5t-40.5 -12.5q-15 -39 -15 -78t17.5 -64.5t47.5 -25.5q41 0 69.5 38t28.5 81q0 31 -15.5 51.5t-43.5 20.5zM483 760l4 -23q-92 -23 -157 -75.5t-93 -124.5q12 2 49.5 17.5t66.5 15.5q42 0 70 -26.5t28 -69.5q0 -64 -56.5 -113t-143.5 -49 q-51 0 -82.5 33.5t-31.5 90.5q0 67 33.5 126t86.5 98.5t111.5 65t114.5 34.5z" />
<glyph unicode="&#x2077;" horiz-adv-x="357" d="M222 743h271l6 -12l-142 -175q-51 -64 -76.5 -112t-25.5 -97l2 -27q-16 -8 -34 -8q-22 0 -35 14t-13 37q0 31 22 65.5t82 100.5l148 163l-166 -10q-46 -3 -68 -48l-20 3z" />
<glyph unicode="&#x2078;" horiz-adv-x="338" d="M194 398q0 -24 15 -39.5t39 -15.5q34 0 57 21t23 55q0 22 -15 46.5t-31 38.5l-15 13q-8 -9 -22.5 -24t-21 -23t-15 -20t-11.5 -24.5t-3 -27.5zM340 720q-32 0 -54 -21.5t-22 -53.5q0 -42 62 -86q3 4 20 21.5t23 26t13 26t7 36.5q0 22 -13 36.5t-36 14.5zM458 670 q0 -32 -19.5 -55t-50.5 -42.5t-39 -28.5q10 -7 21.5 -18t24.5 -34t13 -46q0 -63 -55 -98.5t-114 -35.5q-49 0 -81 22.5t-32 61.5q0 33 19 56.5t53 46.5t45 35q-30 26 -43 45t-13 44q0 56 47.5 91.5t117.5 35.5q46 0 76 -22t30 -58z" />
<glyph unicode="&#x2079;" horiz-adv-x="376" d="M306 531q16 0 48.5 10.5t40.5 12.5q15 39 15 78t-17.5 64.5t-47.5 25.5q-41 0 -69.5 -38t-28.5 -81q0 -31 15.5 -51.5t43.5 -20.5zM138 302l-4 23q92 23 157 75.5t93 124.5q-12 -2 -49.5 -17.5t-66.5 -15.5q-42 0 -70 26.5t-28 69.5q0 64 56.5 113t143.5 49 q51 0 82.5 -33.5t31.5 -90.5q0 -67 -33.5 -126t-86.5 -98.5t-111.5 -65t-114.5 -34.5z" />
<glyph unicode="&#x207f;" horiz-adv-x="423" d="M318 330q22 0 68 65l13 -9q-61 -110 -126 -110q-31 0 -31 31q0 30 27 108l48 135q10 27 10 40q0 16 -12 16q-38 0 -91.5 -63.5t-90.5 -141t-37 -118.5q-9 -7 -29 -7q-14 0 -23 7.5t-9 20.5q0 7 4 23l73 231q5 20 5 25q0 14 -12 18.5t-39 4.5v18q78 3 147 37 q-77 -190 -91 -228h4q50 94 109 161.5t114 67.5q42 0 42 -40q0 -29 -15 -71l-48 -136q-22 -60 -22 -74q0 -11 12 -11z" />
<glyph unicode="&#x2080;" horiz-adv-x="413" d="M261 266q-42 0 -76 -39.5t-51 -94.5t-17 -108q0 -59 20 -94.5t52 -35.5q62 0 103 78t41 162q0 59 -20.5 95.5t-51.5 36.5zM166 -140q-56 0 -90.5 41.5t-34.5 113.5q0 111 68 197t176 86q55 0 89.5 -41.5t34.5 -112.5q0 -111 -69 -197.5t-174 -86.5z" />
<glyph unicode="&#x2081;" horiz-adv-x="276" d="M260 298l-85 -367q-4 -15 1.5 -21.5t22.5 -8.5l31 -5l-6 -26q-50 2 -98 2l-103 -2l6 26l29 5q47 8 58 58l65 280q-39 -22 -74 -22q-24 0 -24 18q0 10 10 16q82 13 156 49z" />
<glyph unicode="&#x2082;" horiz-adv-x="357" d="M-5 -130l-2 17l118 93q171 135 171 217q0 27 -15 45t-45 18q-31 0 -50.5 -18t-19.5 -43q0 -8 1 -10q-20 -6 -30 -6q-34 0 -34 29q0 30 43.5 58t109.5 28q55 0 85 -25t30 -66q0 -29 -17.5 -61t-37.5 -55.5t-60 -56t-58.5 -46t-60.5 -42.5l-30 -21l153 5q41 1 67 47l18 -2 l-49 -105h-287z" />
<glyph unicode="&#x2083;" horiz-adv-x="330" d="M212 260q-26 0 -43 -17.5t-17 -39.5q0 -6 2 -14q-10 -6 -31 -6q-36 0 -36 29q0 30 41.5 58t107.5 28q43 0 67.5 -20.5t24.5 -50.5q0 -40 -34.5 -69.5t-87.5 -44.5v-5q41 -6 67 -31t26 -62q0 -68 -57 -111.5t-146 -43.5q-38 0 -62 13t-24 34q0 17 15 29t34 12q13 0 22 -4 q-8 -11 -8 -23q0 -29 37 -29q46 0 79 33.5t33 76.5q0 37 -30.5 57t-81.5 20v25q143 37 143 116q0 17 -10.5 28.5t-30.5 11.5z" />
<glyph unicode="&#x2084;" horiz-adv-x="357" d="M353 -18h-85l-14 -59q-4 -18 19 -22l24 -5l-6 -26h-161l6 25l24 6q26 6 32 32l11 49h-174l-5 18l138 141q63 65 63 121q0 18 -5 28q16 8 34 8q20 0 31 -13t11 -32q0 -29 -24.5 -58.5t-80.5 -81.5l-95 -89h117l19 86l73 33l-27 -119h85z" />
<glyph unicode="&#x2085;" horiz-adv-x="344" d="M119 -108q50 0 86.5 38t36.5 87q0 36 -22.5 56.5t-58.5 20.5q-17 0 -33.5 -3.5t-23.5 -6.5l-8 -4l-11 3l64 208h150q24 0 38.5 8.5t28.5 30.5l15 -2l-34 -95h-181l-29 -91q20 4 46 4q67 0 101.5 -30.5t34.5 -78.5q0 -79 -66 -128t-150 -49q-42 0 -66.5 14.5t-24.5 36.5 q0 19 14.5 32t35.5 13q11 0 22 -4q-8 -10 -8 -25t11.5 -25t31.5 -10z" />
<glyph unicode="&#x2086;" horiz-adv-x="376" d="M210 79q-16 0 -48.5 -10.5t-40.5 -12.5q-15 -39 -15 -78t17.5 -64.5t47.5 -25.5q41 0 69.5 38t28.5 81q0 31 -15.5 51.5t-43.5 20.5zM378 308l4 -23q-92 -23 -157 -75.5t-93 -124.5q12 2 49.5 17.5t66.5 15.5q42 0 70 -26.5t28 -69.5q0 -64 -56.5 -113t-143.5 -49 q-51 0 -82.5 33.5t-31.5 90.5q0 67 33.5 126t86.5 98.5t111.5 65t114.5 34.5z" />
<glyph unicode="&#x2087;" horiz-adv-x="357" d="M118 291h271l6 -12l-142 -175q-51 -64 -76.5 -112t-25.5 -97l2 -27q-16 -8 -34 -8q-22 0 -35 14t-13 37q0 31 22 65.5t82 100.5l148 163l-166 -10q-46 -3 -68 -48l-20 3z" />
<glyph unicode="&#x2088;" horiz-adv-x="338" d="M90 -54q0 -24 15 -39.5t39 -15.5q34 0 57 21t23 55q0 22 -15 46.5t-31 38.5l-15 13q-8 -9 -22.5 -24t-21 -23t-15 -20t-11.5 -24.5t-3 -27.5zM236 268q-32 0 -54 -21.5t-22 -53.5q0 -42 62 -86q3 4 20 21.5t23 26t13 26t7 36.5q0 22 -13 36.5t-36 14.5zM354 218 q0 -32 -19.5 -55t-50.5 -42.5t-39 -28.5q10 -7 21.5 -18t24.5 -34t13 -46q0 -63 -55 -98.5t-114 -35.5q-49 0 -81 22.5t-32 61.5q0 33 19 56.5t53 46.5t45 35q-30 26 -43 45t-13 44q0 56 47.5 91.5t117.5 35.5q46 0 76 -22t30 -58z" />
<glyph unicode="&#x2089;" horiz-adv-x="376" d="M202 79q16 0 48.5 10.5t40.5 12.5q15 39 15 78t-17.5 64.5t-47.5 25.5q-41 0 -69.5 -38t-28.5 -81q0 -31 15.5 -51.5t43.5 -20.5zM34 -150l-4 23q92 23 157 75.5t93 124.5q-12 -2 -49.5 -17.5t-66.5 -15.5q-42 0 -70 26.5t-28 69.5q0 64 56.5 113t143.5 49 q51 0 82.5 -33.5t31.5 -90.5q0 -67 -33.5 -126t-86.5 -98.5t-111.5 -65t-114.5 -34.5z" />
<glyph unicode="&#x20ac;" horiz-adv-x="674" d="M279 230q-2 -18 -2 -33q0 -148 166 -148q87 0 189 52l7 -18q-113 -99 -255 -99q-97 0 -156 48t-59 149q0 23 3 48h-77l16 46q34 -2 69 -2q8 38 22 71h-67l15 46q30 -2 72 -2q52 100 144 163t210 63q79 0 127 -28t48 -67q0 -27 -19.5 -46t-47.5 -19q-14 0 -26 4 q0 116 -100 116q-71 0 -133 -50.5t-105 -136.5l234 3l-16 -46q-33 1 -233 1q-11 -34 -20 -73l223 3l-18 -46q-80 0 -211 1z" />
<glyph unicode="&#x2122;" horiz-adv-x="597" d="M336 704h9l-5 -63l-9 1q0 37 -44 37h-31v-182q0 -16 5 -22t16 -7l11 -1v-16q-30 1 -54 1l-57 -1v16l9 1q24 3 24 47v164h-25q-50 0 -56 -38l-8 2l4 61h8q6 -4 15 -4h173zM394 518l12 132q2 28 -19 32l-14 2v16q39 -3 69 -3q0 -15 6 -27l77 -170l68 165l8 32q39 0 81 3 v-16l-13 -2q-18 -4 -16 -24l14 -165q3 -22 27 -25l11 -1v-16q-23 1 -66 1l-56 -1v16l10 1q27 3 24 46l-13 133l-79 -196l-14 -5l-86 197l-11 -137q-2 -36 23 -38l11 -1v-16q-25 1 -53 1l-43 -1v16l8 1q29 3 34 50z" />
<glyph unicode="&#x2153;" horiz-adv-x="793" d="M746 788l44 -22q-138 -189 -327 -464.5t-265 -392.5l-45 23q84 117 284 404t309 452zM705 390q-26 0 -43 -17.5t-17 -39.5q0 -10 1 -14q-14 -6 -30 -6q-35 0 -35 29q0 30 41 58t107 28q43 0 67.5 -20.5t24.5 -50.5q0 -40 -34.5 -69.5t-87.5 -44.5v-5q42 -6 67.5 -31 t25.5 -62q0 -68 -57 -111.5t-146 -43.5q-38 0 -62 13t-24 34q0 17 15 29t34 12q13 0 22 -4q-8 -11 -8 -23q0 -29 37 -29q46 0 79 33.5t33 76.5q0 37 -30.5 57t-81.5 20v25q143 37 143 116q0 17 -10.5 28.5t-30.5 11.5zM356 714l-85 -367q-4 -15 1.5 -21.5t22.5 -8.5l31 -5 l-6 -26q-50 2 -98 2l-103 -2l6 26l29 5q47 8 58 58l65 280q-39 -22 -74 -22q-24 0 -24 18q0 10 10 16q82 13 156 49z" />
<glyph unicode="&#x2154;" horiz-adv-x="844" d="M91 286l-2 17l118 93q171 135 171 217q0 27 -15 45t-45 18q-31 0 -50.5 -18t-19.5 -43q0 -8 1 -10q-20 -6 -30 -6q-34 0 -34 29q0 30 43.5 58t109.5 28q55 0 85 -25t30 -66q0 -29 -17.5 -61t-37.5 -55.5t-60 -56t-58.5 -46t-60.5 -42.5l-30 -21l153 5q41 1 67 47l18 -2 l-49 -105h-287zM800 788l44 -22q-138 -189 -327 -464.5t-265 -392.5l-45 23q84 117 284 404t309 452zM756 390q-26 0 -43 -17.5t-17 -39.5q0 -10 1 -14q-15 -6 -30 -6q-35 0 -35 29q0 30 41 58t107 28q43 0 67.5 -20.5t24.5 -50.5q0 -41 -34 -70.5t-88 -43.5v-5 q42 -6 67.5 -31t25.5 -62q0 -68 -57 -111.5t-146 -43.5q-38 0 -62 13t-24 34q0 17 15 29t34 12q14 0 22 -4q-8 -10 -8 -23q0 -29 37 -29q46 0 79 33.5t33 76.5q0 37 -30.5 57t-81.5 20v25q143 37 143 116q0 17 -10.5 28.5t-30.5 11.5z" />
<glyph unicode="&#x215b;" horiz-adv-x="794" d="M746 788l44 -22q-138 -189 -327 -464.5t-265 -392.5l-45 23q84 117 284 404t309 452zM356 714l-85 -367q-4 -15 1.5 -21.5t22.5 -8.5l31 -5l-6 -26q-50 2 -98 2l-103 -2l6 26l29 5q47 8 58 58l65 280q-39 -22 -74 -22q-24 0 -24 18q0 10 10 16q82 13 156 49zM576 76 q0 -24 15 -39.5t39 -15.5q34 0 57 21t23 55q0 22 -15 46.5t-31 38.5l-15 13q-8 -9 -22.5 -24t-21 -23t-15 -20t-11.5 -24.5t-3 -27.5zM722 398q-32 0 -54 -21.5t-22 -53.5q0 -42 62 -86q3 4 20 21.5t23 26t13 26t7 36.5q0 22 -13 36.5t-36 14.5zM840 348q0 -32 -19.5 -55 t-50.5 -42.5t-39 -28.5q10 -7 21.5 -18t24.5 -34t13 -46q0 -63 -55 -98.5t-114 -35.5q-49 0 -81 22.5t-32 61.5q0 33 19 56.5t53 46.5t45 35q-30 26 -43 45t-13 44q0 56 47.5 91.5t117.5 35.5q46 0 76 -22t30 -58z" />
<glyph unicode="&#x215c;" horiz-adv-x="799" d="M308 676q-26 0 -43 -17.5t-17 -39.5q0 -10 1 -14q-15 -6 -30 -6q-36 0 -36 29q0 30 41.5 58t107.5 28q43 0 67.5 -20.5t24.5 -50.5q0 -40 -34.5 -69.5t-87.5 -44.5v-5q41 -6 67 -31t26 -62q0 -68 -57 -111.5t-146 -43.5q-38 0 -62 13t-24 34q0 17 15 29t34 12q13 0 22 -4 q-8 -11 -8 -23q0 -29 37 -29q46 0 79 33.5t33 76.5q0 37 -30.5 57t-81.5 20v25q143 37 143 116q0 17 -10.5 28.5t-30.5 11.5zM751 788l44 -22q-137 -187 -325 -461t-267 -396l-45 23q84 117 284 404t309 452zM581 76q0 -24 15.5 -39.5t38.5 -15.5q34 0 57 21t23 55 q0 22 -15.5 46.5t-30.5 38.5l-15 13q-8 -9 -22.5 -24t-21 -23t-15 -20t-11.5 -24.5t-3 -27.5zM727 398q-32 0 -54 -21.5t-22 -53.5q0 -42 62 -86q3 4 20 21.5t23 26t13 26t7 36.5q0 22 -13 36.5t-36 14.5zM845 348q0 -32 -19.5 -55t-50.5 -42.5t-39 -28.5q10 -7 21.5 -18 t24.5 -34t13 -46q0 -63 -55 -98.5t-114 -35.5q-49 0 -81 22.5t-32 61.5q0 33 19 56.5t53 46.5t45 35q-30 26 -43 45t-13 44q0 56 47.5 91.5t117.5 35.5q46 0 76 -22t30 -58z" />
<glyph unicode="&#x215d;" horiz-adv-x="798" d="M751 788l44 -22q-137 -187 -325 -461t-267 -396l-45 23q79 110 280 399.5t313 456.5zM215 308q50 0 86.5 38t36.5 87q0 36 -22 56.5t-59 20.5q-17 0 -33.5 -3.5t-23.5 -6.5l-8 -4l-11 3l64 208h150q24 0 38.5 8.5t28.5 30.5l15 -2l-34 -95h-181l-29 -91q20 4 46 4 q67 0 101.5 -30.5t34.5 -78.5q0 -79 -66 -128t-150 -49q-42 0 -66.5 14.5t-24.5 36.5q0 19 14.5 32t35.5 13q11 0 22 -4q-8 -10 -8 -25t11.5 -25t31.5 -10zM581 76q0 -24 15.5 -39.5t38.5 -15.5q34 0 57 21t23 55q0 22 -15.5 46.5t-30.5 38.5l-15 13q-8 -9 -22.5 -24 t-21 -23t-15 -20t-11.5 -24.5t-3 -27.5zM727 398q-32 0 -54 -21.5t-22 -53.5q0 -42 62 -86q3 4 20 21.5t23 26t13 26t7 36.5q0 22 -13 36.5t-36 14.5zM845 348q0 -32 -19.5 -55t-50.5 -42.5t-39 -28.5q10 -7 21.5 -18t24.5 -34t13 -46q0 -63 -55 -98.5t-114 -35.5 q-49 0 -81 22.5t-32 61.5q0 33 19 56.5t53 46.5t45 35q-30 26 -43 45t-13 44q0 56 47.5 91.5t117.5 35.5q46 0 76 -22t30 -58z" />
<glyph unicode="&#x215e;" horiz-adv-x="743" d="M695 788l44 -22q-137 -187 -325 -461t-267 -396l-45 23q79 110 280 399.5t313 456.5zM214 707h271l5 -12l-141 -175q-51 -64 -76.5 -112t-25.5 -97l1 -27q-16 -8 -34 -8q-22 0 -35 14t-13 37q0 31 22 65.5t82 100.5l148 163l-165 -10q-48 -3 -68 -48l-21 3zM525 76 q0 -24 15.5 -39.5t38.5 -15.5q34 0 57 21t23 55q0 22 -15.5 46.5t-30.5 38.5l-15 13q-8 -9 -22.5 -24t-21 -23t-15 -20t-11.5 -24.5t-3 -27.5zM671 398q-32 0 -54 -21.5t-22 -53.5q0 -42 62 -86q3 4 20 21.5t23 26t13 26t7 36.5q0 22 -13 36.5t-36 14.5zM789 348 q0 -32 -19.5 -55t-50.5 -42.5t-39 -28.5q10 -7 21.5 -18t24.5 -34t13 -46q0 -63 -55 -98.5t-114 -35.5q-49 0 -81 22.5t-32 61.5q0 33 19 56.5t53 46.5t45 35q-30 26 -43 45t-13 44q0 56 47.5 91.5t117.5 35.5q46 0 76 -22t30 -58z" />
<glyph unicode="&#x2202;" horiz-adv-x="508" d="M311 409q36 0 61.5 -12.5t46 -32t27.5 -23.5q35 105 35 186q0 73 -33.5 120.5t-94.5 47.5q-75 0 -118 -53q-9 0 -17.5 7.5t-8.5 20.5q0 25 24 42.5t51 23.5t53 6q105 0 157 -71.5t52 -180.5q0 -63 -21.5 -146.5t-60 -165.5t-102.5 -138t-138 -56q-70 0 -109.5 39.5 t-39.5 112.5q0 100 68.5 186.5t167.5 86.5zM321 372q-46 0 -86 -43t-60 -99.5t-20 -105.5q0 -43 15.5 -73t47.5 -30q24 0 46.5 11.5t39 26.5t35.5 44t29.5 48t25.5 56.5t20 51t18 48.5q-11 8 -32 26.5t-39 28.5t-40 10z" />
<glyph unicode="&#x2206;" horiz-adv-x="679" d="M610 0h-552l-10 29l401 681l49 6l133 -687zM117 50h420l-96 563z" />
<glyph unicode="&#x220f;" horiz-adv-x="810" d="M545 19l143 624q3 10 3 19q0 32 -50 32h-239q-29 0 -46.5 -10.5t-24.5 -40.5l-149 -657q-4 -20 -4 -25q0 -34 47 -40l37 -5l-8 -29q-67 3 -145 3l-137 -3l8 29l27 5q66 12 85 98l143 624q4 20 4 26q0 19 -11 27t-36 12l-32 5l8 29q139 -3 370 -3l366 3l-8 -29l-26 -5 q-73 -13 -92 -98l-143 -624q-4 -20 -4 -25q0 -34 47 -40l37 -5l-8 -29q-67 3 -145 3l-138 -3l8 29l27 5q67 12 86 98z" />
<glyph unicode="&#x2211;" horiz-adv-x="654" d="M31 -80h284q153 0 215 133l23 -3l-44 -167h-556l-3 22l411 384l-196 429l15 22h557l-44 -167l-25 -3q0 65 -32.5 99t-112.5 34h-234l174 -376z" />
<glyph unicode="&#x2212;" horiz-adv-x="457" d="M0 250h456v-59h-456v59z" />
<glyph unicode="&#x221a;" horiz-adv-x="589" d="M298 0h-10l-97 450l-87 -27l-2 20l186 57l72 -366l435 674h27z" />
<glyph unicode="&#x221e;" horiz-adv-x="763" d="M580 76q-34 0 -67.5 17.5t-52.5 35.5t-49 52q-43 -33 -69.5 -51.5t-67 -36t-74.5 -17.5q-54 0 -87.5 32.5t-33.5 85.5q0 75 54 129.5t126 54.5q26 0 50 -8t46.5 -26.5t36 -32t36.5 -38.5q38 30 64 48.5t68.5 37.5t78.5 19q54 0 88 -32.5t34 -86.5q0 -74 -55 -128.5 t-126 -54.5zM378 227q-5 5 -20.5 22t-21 23t-19 18t-22.5 16t-22 8.5t-27 4.5q-44 0 -73 -35t-29 -78q0 -30 16.5 -50.5t50.5 -20.5q35 0 70.5 21.5t96.5 70.5zM461 226q6 -6 19.5 -20.5t19.5 -20t17 -16t18.5 -15t17.5 -10t19.5 -7.5t20.5 -2q43 0 73 35t30 76 q0 30 -16.5 51.5t-51.5 21.5q-24 0 -53.5 -14.5t-49.5 -29.5t-64 -49z" />
<glyph unicode="&#x222b;" horiz-adv-x="333" d="M130 248l78 288q42 156 85 217.5t104 61.5q31 0 46.5 -13.5t15.5 -32.5q0 -25 -22 -44t-48 -19q-9 0 -15 2q9 11 9 22q0 14 -22 14q-17 0 -34.5 -15t-25.5 -43q-8 -31 -20.5 -116t-30.5 -150l-78 -288q-42 -156 -84.5 -217.5t-103.5 -61.5q-30 0 -46 15.5t-16 34.5 q0 25 19 42t45 17q15 0 21 -2q-9 -11 -9 -22q0 -14 21 -14q17 0 34.5 15t25.5 43q9 32 21.5 117t29.5 149z" />
<glyph unicode="&#x2248;" horiz-adv-x="555" d="M237 238q45 0 100 -34t91 -34q31 0 61 16.5t49 46.5l20 -17q-21 -49 -63.5 -79.5t-102.5 -30.5q-42 0 -95 32.5t-89 32.5q-72 0 -111 -60l-20 17q21 47 63.5 78.5t96.5 31.5zM272 389q45 0 100 -34t91 -34q31 0 61 16.5t49 46.5l20 -17q-21 -49 -63.5 -79.5t-102.5 -30.5 q-42 0 -95 32.5t-89 32.5q-72 0 -111 -60l-20 17q21 47 63.5 78.5t96.5 31.5z" />
<glyph unicode="&#x2260;" horiz-adv-x="457" d="M457 93h-242l-71 -237h-66q40 113 81 237h-159v59h179l42 136h-221v59h240l72 239h66q-39 -113 -82 -239h161v-59h-181l-43 -136h224v-59z" />
<glyph unicode="&#x2264;" horiz-adv-x="456" d="M456 101l-456 149v59l456 148v-69l-360 -109l360 -109v-69zM0 59h456v-59h-456v59z" />
<glyph unicode="&#x2265;" horiz-adv-x="456" d="M456 250l-456 -149v69l360 109l-360 109v69l456 -148v-59zM0 59h456v-59h-456v59z" />
<glyph unicode="&#x25ca;" horiz-adv-x="556" d="M479 363l-102 320l-218 -320l99 -320zM95 363l267 393h58l123 -393l-269 -393h-58z" />
<glyph unicode="&#xe000;" horiz-adv-x="465" d="M0 465h465v-465h-465v465z" />
<glyph unicode="&#xf6c3;" horiz-adv-x="238" d="M115 -62q24 0 39.5 -15t15.5 -40q0 -64 -60.5 -109t-129.5 -54l-2 18q45 12 70.5 37.5t25.5 53.5q0 33 -35 48q6 27 27 44t49 17z" />
<glyph unicode="&#xf6e9;" horiz-adv-x="388" d="M302 332q19 0 35 19t37 54l15 -9q-20 -44 -51 -81t-68 -37q-44 0 -44 46q0 26 25 92h-4q-12 -26 -22 -43t-29 -42.5t-44 -39t-53 -13.5q-35 0 -53.5 25t-18.5 66q0 100 71 187t159 87q43 0 61 -27q15 48 49 48q15 0 31 -12q-22 -26 -66.5 -138t-44.5 -165q0 -17 15 -17z M128 328q31 0 67.5 45.5t61.5 99.5t38 101q-17 36 -54 36q-60 0 -105 -71.5t-45 -153.5q0 -31 8 -44t29 -13z" />
<glyph unicode="&#xf6ea;" horiz-adv-x="380" d="M276 617q-50 0 -115.5 -95t-65.5 -166q0 -47 41 -47q47 0 89.5 47.5t65.5 106.5t23 103q0 51 -38 51zM276 891l-140 -369h4q30 55 72 98.5t92 43.5q36 0 56 -21t20 -60q0 -48 -21.5 -102t-56 -98.5t-83.5 -74t-99 -29.5q-43 0 -63.5 25.5t-20.5 67.5q0 44 22 101l115 308 q6 17 6 27q0 27 -50 27v20q78 3 147 36z" />
</font>
</defs>
</svg>
